<mxfile host="app.diagrams.net" agent="Mozilla/5.0 (Macintosh; Intel Mac OS X 10_15_7) AppleWebKit/605.1.15 (KHTML, like Gecko) Version/18.3 Safari/605.1.15" version="26.0.6">
  <diagram name="Page-1" id="HFmMEtWG7v4wSglmkI-m">
    <mxGraphModel dx="1406" dy="991" grid="1" gridSize="10" guides="1" tooltips="1" connect="1" arrows="1" fold="1" page="1" pageScale="1" pageWidth="827" pageHeight="1169" math="0" shadow="0">
      <root>
        <mxCell id="0" />
        <mxCell id="1" parent="0" />
        <mxCell id="Ub7rnM4-BQbtpaOfgQL1-1" value="" style="shape=image;verticalLabelPosition=bottom;labelBackgroundColor=default;verticalAlign=top;aspect=fixed;imageAspect=0;editableCssRules=.*;image=data:image/svg+xml,PHN2ZyB4bWxuczp4bGluaz0iaHR0cDovL3d3dy53My5vcmcvMTk5OS94bGluayIgeG1sbnM9Imh0dHA6Ly93d3cudzMub3JnLzIwMDAvc3ZnIiBoZWlnaHQ9IjIwMjcuNiIgd2lkdGg9IjE3NzguMDciIHZpZXdCb3g9IjAgMCAxNzc4LjA3IDIwMjcuNiI+PGcgdHJhbnNmb3JtPSJ0cmFuc2xhdGUoLTIxNiAxMTgwLjUxODAyNzE3MTY0MjQpIj48ZyBmaWx0ZXI9InVybCgjYSkiPjxwYXRoIGZpbGw9IiNmZmYiIHN0cm9rZT0iIzI4MmMzMyIgZD0iTTIzOC4xNCA2OTUuMjRhOS4wNyA5LjA3IDAgMCAxIDkuMDctOS4wN2gxMTkuNDJhOS4wNyA5LjA3IDAgMCAxIDkuMDcgOS4wN3YyNy4yYTkuMDcgOS4wNyAwIDAgMS05LjA4IDkuMDhoLTExOS40YTkuMDcgOS4wNyAwIDAgMS05LjA4LTkuMDd6Ii8+PHBhdGggZmlsbD0idXJsKCNiKSIgZD0iTTI0NS43IDcwMi44YTkuMDcgOS4wNyAwIDAgMSA5LjA3LTkuMDdoMTIuMWE5LjA3IDkuMDcgMCAwIDEgOS4wNiA5LjA3djEyLjFhOS4wNyA5LjA3IDAgMCAxLTkuMDcgOS4wNmgtMTIuMWE5LjA3IDkuMDcgMCAwIDEtOS4wNi05LjA3eiIvPjx1c2UgdHJhbnNmb3JtPSJtYXRyaXgoMSwwLDAsMSwyOTEuMDQzODEzOTA5MzgyOTUsNjg3LjY4NTEzMDA1NTg0ODcpIHRyYW5zbGF0ZSgwIDI2LjAyMzE0MTAxNzQyMDU1KSIgeGxpbms6aHJlZj0iI2MiLz48L2c+PGcgZmlsdGVyPSJ1cmwoI2QpIj48cGF0aCBmaWxsPSIjZmZmIiBzdHJva2U9IiMyODJjMzMiIGQ9Ik0yMzguMTQgNzYxLjRhOS4wNyA5LjA3IDAgMCAxIDkuMDctOS4wOGg5MS44NGE5LjA3IDkuMDcgMCAwIDEgOS4wNyA5LjA3djI3LjJhOS4wNyA5LjA3IDAgMCAxLTkuMDYgOS4wN0gyNDcuMmE5LjA3IDkuMDcgMCAwIDEtOS4wNi05LjA3eiIvPjxwYXRoIGZpbGw9InVybCgjZSkiIGQ9Ik0yNDUuNyA3NjguOTVhOS4wNyA5LjA3IDAgMCAxIDkuMDctOS4wN2gxMi4xYTkuMDcgOS4wNyAwIDAgMSA5LjA2IDkuMDd2MTIuMWE5LjA3IDkuMDcgMCAwIDEtOS4wNyA5LjA2aC0xMi4xYTkuMDcgOS4wNyAwIDAgMS05LjA2LTkuMDZ6Ii8+PHVzZSB0cmFuc2Zvcm09Im1hdHJpeCgxLDAsMCwxLDI5MS4wNDM4MTM5MDkzODI5NSw3NTMuODMzNTE2NTE1ODg0KSB0cmFuc2xhdGUoMCAyNi4wMjMxNDEwMTc0MjA1NSkiIHhsaW5rOmhyZWY9IiNmIi8+PC9nPjxwYXRoIGZpbGw9IiNmZmYiIHN0cm9rZT0iIzNhNDE0YSIgZD0iTTUzOC44OCAzNjAuNGE4IDggMCAwIDEgOC04aDE0NGE4IDggMCAwIDEgOCA4djE0NGE4IDggMCAwIDEtOCA4aC0xNDRhOCA4IDAgMCAxLTgtOHoiLz48dXNlIHRyYW5zZm9ybT0ibWF0cml4KDEsMCwwLDEsNTQzLjg3NTAyNzE0NDQ1ODgsMzU3LjM5MTMxMDE1MTU0OTY1KSB0cmFuc2xhdGUoMzAuNzM0NTY3OTAxMjM0NTcgNTIuNTU1NTU1NTU1NTU1NTYpIiB4bGluazpocmVmPSIjZyIvPjx1c2UgdHJhbnNmb3JtPSJtYXRyaXgoMSwwLDAsMSw1NDMuODc1MDI3MTQ0NDU4OCwzNTcuMzkxMzEwMTUxNTQ5NjUpIHRyYW5zbGF0ZSg3NSA3OS40ODg4ODg4ODg4ODg5KSIgeGxpbms6aHJlZj0iI2giLz48dXNlIHRyYW5zZm9ybT0ibWF0cml4KDEsMCwwLDEsNTQzLjg3NTAyNzE0NDQ1ODgsMzU3LjM5MTMxMDE1MTU0OTY1KSB0cmFuc2xhdGUoMzcuNTkyNTkyNTkyNTkyNiAxMDYuNDIyMjIyMjIyMjIyMjIpIiB4bGluazpocmVmPSIjaSIvPjxwYXRoIGZpbGw9IiNmZmYiIHN0cm9rZT0iIzNhNDE0YSIgZD0iTTM2Ni4yNCA4OGE4IDggMCAwIDEgOC04aDE0NGE4IDggMCAwIDEgOCA4djE0NGE4IDggMCAwIDEtOCA4aC0xNDRhOCA4IDAgMCAxLTgtOHoiLz48dXNlIHRyYW5zZm9ybT0ibWF0cml4KDEsMCwwLDEsMzcxLjI0NDQ0NjcxNzcxOTE0LDg1KSB0cmFuc2xhdGUoMS41MjU2MTcyODM5NTA2MjM1IDc5LjQ4ODg4ODg4ODg4ODg4KSIgeGxpbms6aHJlZj0iI2oiLz48dXNlIHRyYW5zZm9ybT0ibWF0cml4KDEsMCwwLDEsMzcxLjI0NDQ0NjcxNzcxOTE0LDg1KSB0cmFuc2xhdGUoOTEuMTc4NzAzNzAzNzAzNyA3OS40ODg4ODg4ODg4ODg4OCkiIHhsaW5rOmhyZWY9IiNrIi8+PHBhdGggZmlsbD0iI2ZmZiIgc3Ryb2tlPSIjM2E0MTRhIiBkPSJNNjk4Ljg4IDg4YTggOCAwIDAgMSA4LThoMTQ0YTggOCAwIDAgMSA4IDh2MTQ0YTggOCAwIDAgMS04IDhoLTE0NGE4IDggMCAwIDEtOC04eiIvPjx1c2UgdHJhbnNmb3JtPSJtYXRyaXgoMSwwLDAsMSw3MDMuODc1MDI3MTQ0NDU4OCw4NSkgdHJhbnNsYXRlKDE2LjA4MzMzMzMzMzMzMzM1IDc5LjQ4ODg4ODg4ODg4ODg4KSIgeGxpbms6aHJlZj0iI2wiLz48dXNlIHRyYW5zZm9ybT0ibWF0cml4KDEsMCwwLDEsNzAzLjg3NTAyNzE0NDQ1ODgsODUpIHRyYW5zbGF0ZSg2Ny45NTQ5MzgyNzE2MDQ5MyA3OS40ODg4ODg4ODg4ODg4OCkiIHhsaW5rOmhyZWY9IiNtIi8+PHBhdGggZmlsbD0ibm9uZSIgc3Ryb2tlPSIjM2E0MTRhIiBkPSJNNjE4Ljg4IDM1MS40di00My4yYTEyIDEyIDAgMCAwLTEyLTEySDQ1OC4yNGExMiAxMiAwIDAgMS0xMi0xMnYtMjcuMzIiLz48cGF0aCBmaWxsPSIjM2E0MTRhIiBzdHJva2Utd2lkdGg9Ii4wNSIgc3Ryb2tlPSIjM2E0MTRhIiBkPSJNNjE5LjM1IDM1MS45aC0uOTV2LS41MmguOTV6Ii8+PHBhdGggZmlsbD0iIzNhNDE0YSIgc3Ryb2tlPSIjM2E0MTRhIiBkPSJNNDQ2LjI0IDI0Mi4xMmw0LjY0IDE0LjI2aC05LjI3eiIvPjxwYXRoIGZpbGw9Im5vbmUiIHN0cm9rZT0iIzNhNDE0YSIgZD0iTTYxOC44OCAzNTEuNHYtNDMuMmExMiAxMiAwIDAgMSAxMi0xMkg3NzcuMWExMiAxMiAwIDAgMCAxMi0xMnYtMjcuMzIiLz48cGF0aCBmaWxsPSIjM2E0MTRhIiBzdHJva2Utd2lkdGg9Ii4wNSIgc3Ryb2tlPSIjM2E0MTRhIiBkPSJNNjE5LjM1IDM1MS45aC0uOTV2LS41MmguOTV6Ii8+PHBhdGggZmlsbD0iIzNhNDE0YSIgc3Ryb2tlPSIjM2E0MTRhIiBkPSJNNzg5LjEgMjQyLjEybDQuNjQgMTQuMjZoLTkuMjZ6Ii8+PHBhdGggZmlsbD0iI2ZmZiIgc3Ryb2tlPSIjM2E0MTRhIiBkPSJNODk4Ljg4IDM2MC40YTggOCAwIDAgMSA4LThoMTQ0YTggOCAwIDAgMSA4IDh2MTQ0YTggOCAwIDAgMS04IDhoLTE0NGE4IDggMCAwIDEtOC04eiIvPjx1c2UgdHJhbnNmb3JtPSJtYXRyaXgoMSwwLDAsMSw5MDMuODc1MDI3MTQ0NDU4NywzNTcuMzkxMzEwMTUxNTQ5NjUpIHRyYW5zbGF0ZSgzNS43ODQ1Njc5MDEyMzQ1OCA3OS40ODg4ODg4ODg4ODg4OCkiIHhsaW5rOmhyZWY9IiNuIi8+PHBhdGggZmlsbD0iI2ZmZiIgc3Ryb2tlPSIjM2E0MTRhIiBkPSJNMTI1OC44OCAzNjAuNGE4IDggMCAwIDEgOC04aDE0NGE4IDggMCAwIDEgOCA4djE0NGE4IDggMCAwIDEtOCA4aC0xNDRhOCA4IDAgMCAxLTgtOHoiLz48dXNlIHRyYW5zZm9ybT0ibWF0cml4KDEsMCwwLDEsMTI2My44NzUwMjcxNDQ0NTg3LDM1Ny4zOTEzMTAxNTE1NDk2NSkgdHJhbnNsYXRlKDQxLjM2NDUwNjE3MjgzOTUxIDUyLjU1NTU1NTU1NTU1NTU2KSIgeGxpbms6aHJlZj0iI28iLz48dXNlIHRyYW5zZm9ybT0ibWF0cml4KDEsMCwwLDEsMTI2My44NzUwMjcxNDQ0NTg3LDM1Ny4zOTEzMTAxNTE1NDk2NSkgdHJhbnNsYXRlKDc1IDc5LjQ4ODg4ODg4ODg4ODkpIiB4bGluazpocmVmPSIjaCIvPjx1c2UgdHJhbnNmb3JtPSJtYXRyaXgoMSwwLDAsMSwxMjYzLjg3NTAyNzE0NDQ1ODcsMzU3LjM5MTMxMDE1MTU0OTY1KSB0cmFuc2xhdGUoNTkuNDEzNTgwMjQ2OTEzNTggMTA2LjQyMjIyMjIyMjIyMjIyKSIgeGxpbms6aHJlZj0iI3AiLz48cGF0aCBmaWxsPSIjZmZmIiBzdHJva2U9IiMzYTQxNGEiIGQ9Ik0xNjE4Ljg4IDM2MC40YTggOCAwIDAgMSA4LThoMTQ0YTggOCAwIDAgMSA4IDh2MTQ0YTggOCAwIDAgMS04IDhoLTE0NGE4IDggMCAwIDEtOC04eiIvPjx1c2UgdHJhbnNmb3JtPSJtYXRyaXgoMSwwLDAsMSwxNjIzLjg3NTAyNzE0NDQ1ODcsMzU3LjM5MTMxMDE1MTU0OTY1KSB0cmFuc2xhdGUoMzMuOTE0MTk3NTMwODY0MiA3OS40ODg4ODg4ODg4ODg4OCkiIHhsaW5rOmhyZWY9IiNxIi8+PHBhdGggZmlsbD0iI2ZmZiIgc3Ryb2tlPSIjM2E0MTRhIiBkPSJNMTMzOC44OCA4OGE4IDggMCAwIDEgOC04aDE0NGE4IDggMCAwIDEgOCA4djE0NGE4IDggMCAwIDEtOCA4aC0xNDRhOCA4IDAgMCAxLTgtOHoiLz48dXNlIHRyYW5zZm9ybT0ibWF0cml4KDEsMCwwLDEsMTM0My44NzUwMjcxNDQ0NTg3LDg1KSB0cmFuc2xhdGUoMi4yMTE0MTk3NTMwODY0MzE3IDUyLjU1NTU1NTU1NTU1NTU2KSIgeGxpbms6aHJlZj0iI3IiLz48dXNlIHRyYW5zZm9ybT0ibWF0cml4KDEsMCwwLDEsMTM0My44NzUwMjcxNDQ0NTg3LDg1KSB0cmFuc2xhdGUoOTAuNDkyOTAxMjM0NTY3OSA1Mi41NTU1NTU1NTU1NTU1NikiIHhsaW5rOmhyZWY9IiNzIi8+PHVzZSB0cmFuc2Zvcm09Im1hdHJpeCgxLDAsMCwxLDEzNDMuODc1MDI3MTQ0NDU4Nyw4NSkgdHJhbnNsYXRlKDc1IDc5LjQ4ODg4ODg4ODg4ODkpIiB4bGluazpocmVmPSIjaCIvPjx1c2UgdHJhbnNmb3JtPSJtYXRyaXgoMSwwLDAsMSwxMzQzLjg3NTAyNzE0NDQ1ODcsODUpIHRyYW5zbGF0ZSg0Ni45NDQ0NDQ0NDQ0NDQ0NiAxMDYuNDIyMjIyMjIyMjIyMjIpIiB4bGluazpocmVmPSIjdCIvPjxwYXRoIGZpbGw9IiNmZmYiIHN0cm9rZT0iIzNhNDE0YSIgZD0iTTY5OC44OC0yNTJhOCA4IDAgMCAxIDgtOGgxNDRhOCA4IDAgMCAxIDggOHYxNDRhOCA4IDAgMCAxLTggOGgtMTQ0YTggOCAwIDAgMS04LTh6Ii8+PHVzZSB0cmFuc2Zvcm09Im1hdHJpeCgxLDAsMCwxLDcwMy44NzUwMjcxNDQ0NTg4LC0yNTUpIHRyYW5zbGF0ZSgxOC45ODI0MDc0MDc0MDc0MjIgNzkuNDg4ODg4ODg4ODg4ODgpIiB4bGluazpocmVmPSIjdSIvPjx1c2UgdHJhbnNmb3JtPSJtYXRyaXgoMSwwLDAsMSw3MDMuODc1MDI3MTQ0NDU4OCwtMjU1KSB0cmFuc2xhdGUoNzMuNzg0MjU5MjU5MjU5MjYgNzkuNDg4ODg4ODg4ODg4ODgpIiB4bGluazpocmVmPSIjdiIvPjxwYXRoIGZpbGw9IiM2ZGIxZmYiIHN0cm9rZT0iIzNhNDE0YSIgZD0iTTg3OC44OC0yNTJhOCA4IDAgMCAxIDgtOGgxNDRhOCA4IDAgMCAxIDggOHYxNDRhOCA4IDAgMCAxLTggOGgtMTQ0YTggOCAwIDAgMS04LTh6Ii8+PHVzZSB0cmFuc2Zvcm09Im1hdHJpeCgxLDAsMCwxLDg4My44NzUwMjcxNDQ0NTg4LC0yNTUpIHRyYW5zbGF0ZSgyNC41NjIzNDU2NzkwMTIzNiA3OS40ODg4ODg4ODg4ODg4OCkiIHhsaW5rOmhyZWY9IiN3Ii8+PHBhdGggZmlsbD0iI2ZmZiIgc3Ryb2tlPSIjM2E0MTRhIiBkPSJNMTA1OC44OC0yNTJhOCA4IDAgMCAxIDgtOGgxNDRhOCA4IDAgMCAxIDggOHYxNDRhOCA4IDAgMCAxLTggOGgtMTQ0YTggOCAwIDAgMS04LTh6Ii8+PHVzZSB0cmFuc2Zvcm09Im1hdHJpeCgxLDAsMCwxLDEwNjMuODc1MDI3MTQ0NDU4NywtMjU1KSB0cmFuc2xhdGUoNS4yMzUxODUxODUxODUyMDIgNzkuNDg4ODg4ODg4ODg4ODgpIiB4bGluazpocmVmPSIjeCIvPjx1c2UgdHJhbnNmb3JtPSJtYXRyaXgoMSwwLDAsMSwxMDYzLjg3NTAyNzE0NDQ1ODcsLTI1NSkgdHJhbnNsYXRlKDY2LjI3MTYwNDkzODI3MTYxIDc5LjQ4ODg4ODg4ODg4ODg4KSIgeGxpbms6aHJlZj0iI3kiLz48cGF0aCBmaWxsPSJub25lIiBzdHJva2U9IiMzYTQxNGEiIGQ9Ik03NzguODggNzlWLTgzLjEyIi8+PHBhdGggZmlsbD0iIzNhNDE0YSIgc3Ryb2tlLXdpZHRoPSIuMDUiIHN0cm9rZT0iIzNhNDE0YSIgZD0iTTc3OS4zNSA3OS41aC0uOTVWNzloLjk1eiIvPjxwYXRoIGZpbGw9IiMzYTQxNGEiIHN0cm9rZT0iIzNhNDE0YSIgZD0iTTc3OC44OC05Ny44OGw0LjYzIDE0LjI2aC05LjI2eiIvPjxwYXRoIGZpbGw9Im5vbmUiIHN0cm9rZT0iIzNhNDE0YSIgZD0iTTc3OC44OCA3OVYyYTEyIDEyIDAgMCAxIDEyLTEyaDE1NmExMiAxMiAwIDAgMCAxMi0xMnYtNjEuMTIiLz48cGF0aCBmaWxsPSIjM2E0MTRhIiBzdHJva2Utd2lkdGg9Ii4wNSIgc3Ryb2tlPSIjM2E0MTRhIiBkPSJNNzc5LjM1IDc5LjVoLS45NVY3OWguOTV6Ii8+PHBhdGggZmlsbD0iIzNhNDE0YSIgc3Ryb2tlPSIjM2E0MTRhIiBkPSJNOTU4Ljg4LTk3Ljg4bDQuNjMgMTQuMjZoLTkuMjZ6Ii8+PHBhdGggZmlsbD0ibm9uZSIgc3Ryb2tlPSIjM2E0MTRhIiBkPSJNNzc4Ljg4IDc5VjJhMTIgMTIgMCAwIDEgMTItMTJoMzM2YTEyIDEyIDAgMCAwIDEyLTEydi02MS4xMiIvPjxwYXRoIGZpbGw9IiMzYTQxNGEiIHN0cm9rZS13aWR0aD0iLjA1IiBzdHJva2U9IiMzYTQxNGEiIGQ9Ik03NzkuMzUgNzkuNWgtLjk1Vjc5aC45NXoiLz48cGF0aCBmaWxsPSIjM2E0MTRhIiBzdHJva2U9IiMzYTQxNGEiIGQ9Ik0xMTM4Ljg4LTk3Ljg4bDQuNjMgMTQuMjZoLTkuMjZ6Ii8+PHBhdGggZmlsbD0idXJsKCN6KSIgZD0iTTM0OS43NC0yNjBoMTkzdjE3OS4wNWgtMTkzeiIvPjxwYXRoIGZpbGw9InVybCgjQSkiIGQ9Ik0zNjYuMjQtMjYwaDE2MHYxNjBoLTE2MHoiLz48dXNlIHRyYW5zZm9ybT0ibWF0cml4KDEsMCwwLDEsMzc0LjI0NDQ0NjcxNzcxOTE0LC0yNTIpIHRyYW5zbGF0ZSg4LjA5ODQwOTg0MDk4NDExNiA1OS41NjQzNTY0MzU2NDM1NzUpIiB4bGluazpocmVmPSIjQiIvPjx1c2UgdHJhbnNmb3JtPSJtYXRyaXgoMSwwLDAsMSwzNzQuMjQ0NDQ2NzE3NzE5MTQsLTI1MikgdHJhbnNsYXRlKDE2LjkwNjQ5MDY0OTA2NDkyOCA5NC40NzM0NDczNDQ3MzQ1KSIgeGxpbms6aHJlZj0iI0MiLz48cGF0aCBmaWxsPSJub25lIiBzdHJva2U9IiMzYTQxNGEiIGQ9Ik00NDYuMjQgNzlWLTgzLjYyIi8+PHBhdGggZmlsbD0iIzNhNDE0YSIgc3Ryb2tlLXdpZHRoPSIuMDUiIHN0cm9rZT0iIzNhNDE0YSIgZD0iTTQ0Ni43MiA3OS41aC0uOTVWNzloLjk1eiIvPjxwYXRoIGZpbGw9IiMzYTQxNGEiIHN0cm9rZT0iIzNhNDE0YSIgZD0iTTQ0Ni4yNC05OC4zOGw0LjY0IDE0LjI2aC05LjI3eiIvPjxwYXRoIGZpbGw9InVybCgjRCkiIGQ9Ik0xNjAyLjM3IDY1NS44aDE5M3YxNzkuMDZoLTE5M3oiLz48cGF0aCBmaWxsPSJ1cmwoI0UpIiBkPSJNMTYxOC44OCA2NTUuOGgxNjB2MTYwaC0xNjB6Ii8+PHVzZSB0cmFuc2Zvcm09Im1hdHJpeCgxLDAsMCwxLDE2MjYuODc1MDI3MTQ0NDU4Nyw2NjMuODA3OTA3MzczMDA1MykgdHJhbnNsYXRlKDEuMTk1NTAyNjAxMTA3NTkyNyAzMy4wODQzMjYyMjkyMzMwOSkiIHhsaW5rOmhyZWY9IiNGIi8+PHVzZSB0cmFuc2Zvcm09Im1hdHJpeCgxLDAsMCwxLDE2MjYuODc1MDI3MTQ0NDU4Nyw2NjMuODA3OTA3MzczMDA1MykgdHJhbnNsYXRlKDUyLjcyMDkyNjMyOTkyMTE1IDMzLjA4NDMyNjIyOTIzMzA5KSIgeGxpbms6aHJlZj0iI0ciLz48dXNlIHRyYW5zZm9ybT0ibWF0cml4KDEsMCwwLDEsMTYyNi44NzUwMjcxNDQ0NTg3LDY2My44MDc5MDczNzMwMDUzKSB0cmFuc2xhdGUoNy4zMzEwOTU4MjE0NDY1NiA2Mi4zNzI0NjE4MjI0NTM0MykiIHhsaW5rOmhyZWY9IiNIIi8+PHVzZSB0cmFuc2Zvcm09Im1hdHJpeCgxLDAsMCwxLDE2MjYuODc1MDI3MTQ0NDU4Nyw2NjMuODA3OTA3MzczMDA1MykgdHJhbnNsYXRlKDUwLjU4NTMzMzEwOTU4MjE1IDYyLjM3MjQ2MTgyMjQ1MzQzKSIgeGxpbms6aHJlZj0iI0kiLz48dXNlIHRyYW5zZm9ybT0ibWF0cml4KDEsMCwwLDEsMTYyNi44NzUwMjcxNDQ0NTg3LDY2My44MDc5MDczNzMwMDUzKSB0cmFuc2xhdGUoNy4zNjQ5OTQxMjY1MzEzMSA5MS42NjA1OTc0MTU2NzM3OCkiIHhsaW5rOmhyZWY9IiNKIi8+PHVzZSB0cmFuc2Zvcm09Im1hdHJpeCgxLDAsMCwxLDE2MjYuODc1MDI3MTQ0NDU4Nyw2NjMuODA3OTA3MzczMDA1MykgdHJhbnNsYXRlKDYuNjE5MjMxNDE0NjY2OTA0NSAxMjAuOTQ4NzMzMDA4ODk0MSkiIHhsaW5rOmhyZWY9IiNLIi8+PHVzZSB0cmFuc2Zvcm09Im1hdHJpeCgxLDAsMCwxLDE2MjYuODc1MDI3MTQ0NDU4Nyw2NjMuODA3OTA3MzczMDA1MykgdHJhbnNsYXRlKDMzLjczNzg3NTQ4MjQ2MzUxIDEyMC45NDg3MzMwMDg4OTQxKSIgeGxpbms6aHJlZj0iI0wiLz48cGF0aCBmaWxsPSJub25lIiBzdHJva2U9IiMzYTQxNGEiIGQ9Ik0xNjk4Ljg4IDUxMy40djEuOTZtMCAzLjk0djMuOTVtMCAzLjk0djMuOTNtMCAzLjk0VjUzOW0wIDMuOTZ2My45NG0wIDMuOTR2My45NG0wIDMuOTV2My45NG0wIDMuOTR2My45NW0wIDMuOTR2My45NG0wIDMuOTR2My45NG0wIDMuOTR2My45NW0wIDMuOTV2My45NG0wIDMuOTN2My45NG0wIDMuOTV2My45NG0wIDMuOTR2My45NG0wIDMuOTR2My45NW0wIDMuOTR2My45NG0wIDMuOTV2My45NG0wIDMuOTR2MS45NyIvPjxwYXRoIGZpbGw9IiMzYTQxNGEiIHN0cm9rZS13aWR0aD0iLjA1IiBzdHJva2U9IiMzYTQxNGEiIGQ9Ik0xNjk5LjM1IDUxMy40aC0uOTV2LS41aC45NXpNMTY5OS4zNSA2NTUuOGgtLjk1di0uNWguOTV6Ii8+PHBhdGggZmlsbD0idXJsKCNNKSIgZD0iTTEyNDIuMzcgNjY4LjAzaDE5M1Y4NDcuMWgtMTkzeiIvPjxwYXRoIGZpbGw9InVybCgjTikiIGQ9Ik0xMjU4Ljg4IDY2OC4wM2gxNjB2MTYwaC0xNjB6Ii8+PHVzZSB0cmFuc2Zvcm09Im1hdHJpeCgxLDAsMCwxLDEyNjYuODc1MDI3MTQ0NDU4Nyw2NzYuMDM0NzEzNDQyNjE1MikgdHJhbnNsYXRlKDIuNzg4ODI1MzYxNDA5MzkyIDYwLjUxNzA4MjY5NDE4NDkyKSIgeGxpbms6aHJlZj0iI08iLz48dXNlIHRyYW5zZm9ybT0ibWF0cml4KDEsMCwwLDEsMTI2Ni44NzUwMjcxNDQ0NTg3LDY3Ni4wMzQ3MTM0NDI2MTUyKSB0cmFuc2xhdGUoMTYuNzQxODc3MDA0NjAxODkzIDc2Ljc0MjQzNDgwNjg2MDk4KSIgeGxpbms6aHJlZj0iI1AiLz48dXNlIHRyYW5zZm9ybT0ibWF0cml4KDEsMCwwLDEsMTI2Ni44NzUwMjcxNDQ0NTg3LDY3Ni4wMzQ3MTM0NDI2MTUyKSB0cmFuc2xhdGUoNDUuMjQ4OTE5MjU4MTIzMDIgNzYuNzQyNDM0ODA2ODYwOTgpIiB4bGluazpocmVmPSIjUSIvPjx1c2UgdHJhbnNmb3JtPSJtYXRyaXgoMSwwLDAsMSwxMjY2Ljg3NTAyNzE0NDQ1ODcsNjc2LjAzNDcxMzQ0MjYxNTIpIHRyYW5zbGF0ZSgyMS4yODY0Nzc5NDM1NjkwMjUgOTIuOTY3Nzg2OTE5NTM3MDUpIiB4bGluazpocmVmPSIjUiIvPjx1c2UgdHJhbnNmb3JtPSJtYXRyaXgoMSwwLDAsMSwxMjY2Ljg3NTAyNzE0NDQ1ODcsNjc2LjAzNDcxMzQ0MjYxNTIpIHRyYW5zbGF0ZSg3OS43NjUzNTExODMwMDU2NSA5Mi45Njc3ODY5MTk1MzcwNSkiIHhsaW5rOmhyZWY9IiNTIi8+PHBhdGggZmlsbD0ibm9uZSIgc3Ryb2tlPSIjM2E0MTRhIiBkPSJNMTMzOC44OCA1MTMuNHYyLjAybTAgNC4wNnY0LjA1bTAgNC4wNnY0LjA0bTAgNC4wNnY0LjA2bTAgNC4wNXY0LjA3bTAgNC4wNnY0LjA1bTAgNC4wNnY0LjA2bTAgNC4wNXY0LjA2bTAgNC4wN3Y0LjA1bTAgNC4wNnY0LjA1bTAgNC4wNnY0LjA1bTAgNC4wNXY0LjA2bTAgNC4wNnY0LjA1bTAgNC4wNnY0LjA2bTAgNC4wNFY2MjltMCA0LjA1djQuMDZtMCA0LjA3djQuMDVtMCA0LjA2djQuMDZtMCA0LjA1djQuMDVtMCA0LjA2djIuMDMiLz48cGF0aCBmaWxsPSIjM2E0MTRhIiBzdHJva2Utd2lkdGg9Ii4wNSIgc3Ryb2tlPSIjM2E0MTRhIiBkPSJNMTMzOS4zNSA1MTMuNGgtLjk1di0uNWguOTV6TTEzMzkuMzUgNjY4LjAzaC0uOTV2LS41aC45NXoiLz48cGF0aCBmaWxsPSJub25lIiBzdHJva2U9IiMzYTQxNGEiIGQ9Ik05NzguODggNTEzLjR2MS45Nm0wIDMuOTR2My45NW0wIDMuOTR2My45M20wIDMuOTRWNTM5bTAgMy45NnYzLjk0bTAgMy45NHYzLjk0bTAgMy45NXYzLjk0bTAgMy45NHYzLjk1bTAgMy45NHYzLjk0bTAgMy45NHYzLjk0bTAgMy45NHYzLjk1bTAgMy45NXYzLjk0bTAgMy45M3YzLjk0bTAgMy45NXYzLjk0bTAgMy45NHYzLjk0bTAgMy45NHYzLjk1bTAgMy45NHYzLjk0bTAgMy45NXYzLjk0bTAgMy45NHYxLjk3Ii8+PHBhdGggZmlsbD0iIzNhNDE0YSIgc3Ryb2tlLXdpZHRoPSIuMDUiIHN0cm9rZT0iIzNhNDE0YSIgZD0iTTk3OS4zNSA1MTMuNGgtLjk1di0uNWguOTV6TTk3OS4zNSA2NTUuOGgtLjk1di0uNWguOTV6Ii8+PHBhdGggZmlsbD0idXJsKCNUKSIgZD0iTTg4Mi4zNyA2NTUuOGgxOTN2MTc5LjA2aC0xOTN6Ii8+PHBhdGggZmlsbD0idXJsKCNVKSIgZD0iTTg5OC44OCA2NTUuOGgxNjB2MTYwaC0xNjB6Ii8+PHVzZSB0cmFuc2Zvcm09Im1hdHJpeCgxLDAsMCwxLDkwNi44NzUwMjcxNDQ0NTg3LDY2My44MDc5MDczNzMwMDUzKSB0cmFuc2xhdGUoMCAzMy4wODQzMjYyMjkyMzMwOSkiIHhsaW5rOmhyZWY9IiNWIi8+PHVzZSB0cmFuc2Zvcm09Im1hdHJpeCgxLDAsMCwxLDkwNi44NzUwMjcxNDQ0NTg3LDY2My44MDc5MDczNzMwMDUzKSB0cmFuc2xhdGUoMjIuNDQ0NDQ0NDQ0NDQ0NDQzIDMzLjA4NDMyNjIyOTIzMzA5KSIgeGxpbms6aHJlZj0iI1ciLz48dXNlIHRyYW5zZm9ybT0ibWF0cml4KDEsMCwwLDEsOTA2Ljg3NTAyNzE0NDQ1ODcsNjYzLjgwNzkwNzM3MzAwNTMpIHRyYW5zbGF0ZSg2OS44MzQyNzQ5NTI5MTkwMiAzMy4wODQzMjYyMjkyMzMwOSkiIHhsaW5rOmhyZWY9IiNYIi8+PHVzZSB0cmFuc2Zvcm09Im1hdHJpeCgxLDAsMCwxLDkwNi44NzUwMjcxNDQ0NTg3LDY2My44MDc5MDczNzMwMDUzKSB0cmFuc2xhdGUoMjIuNDQ0NDQ0NDQ0NDQ0NDQzIDYyLjM3MjQ2MTgyMjQ1MzQzKSIgeGxpbms6aHJlZj0iI1kiLz48dXNlIHRyYW5zZm9ybT0ibWF0cml4KDEsMCwwLDEsOTA2Ljg3NTAyNzE0NDQ1ODcsNjYzLjgwNzkwNzM3MzAwNTMpIHRyYW5zbGF0ZSgwIDkxLjY2MDU5NzQxNTY3Mzc4KSIgeGxpbms6aHJlZj0iI1oiLz48dXNlIHRyYW5zZm9ybT0ibWF0cml4KDEsMCwwLDEsOTA2Ljg3NTAyNzE0NDQ1ODcsNjYzLjgwNzkwNzM3MzAwNTMpIHRyYW5zbGF0ZSgyMi40NDQ0NDQ0NDQ0NDQ0NDMgOTEuNjYwNTk3NDE1NjczNzgpIiB4bGluazpocmVmPSIjYWEiLz48dXNlIHRyYW5zZm9ybT0ibWF0cml4KDEsMCwwLDEsOTA2Ljg3NTAyNzE0NDQ1ODcsNjYzLjgwNzkwNzM3MzAwNTMpIHRyYW5zbGF0ZSgyMi40NDQ0NDQ0NDQ0NDQ0NDMgMTIwLjk0ODczMzAwODg5NDEpIiB4bGluazpocmVmPSIjYWIiLz48cGF0aCBmaWxsPSJub25lIiBkPSJNMTMxOC44OC03MDBoMjAwdjE0NWgtMjAweiIvPjxwYXRoIGZpbGw9IiMyOWFhZTEiIGQ9Ik0xMzE4Ljg4LTcwMGg0Ni44djE3Ljg0aC00Ni44Vi03MDB6TTEzNjkuNjctNzAwaDQ2LjZ2MTcuODRoLTQ2LjZWLTcwMHpNMTQyMS4wOC03MDBoNDYuNnYxNy44NGgtNDYuNlYtNzAwek0xNDcxLjg4LTcwMGg0Ni44djE3Ljg0aC00Ni44Vi03MDB6TTEzMTkuMjgtNjc4Ljk4aDIyLjh2MTguNTdoLTIyLjhWLTY3OXpNMTM0Ni44OC02NzguOThoNDYuOHYxNy44NGgtNDYuOHYtMTcuODR6TTEzOTkuMDgtNjc4Ljk4aDQ2LjZ2MTcuODRoLTQ2LjZ2LTE3Ljg0ek0xNDUxLjQ3LTY3OC45OGg0Ni44djE3Ljg0aC00Ni44di0xNy44NHpNMTUwMi4wOC02NzguOThoMTYuMnYxOC41N2gtMTYuMlYtNjc5ek0xMzE4Ljg4LTY1Ni44aDQ2Ljh2MTcuN2gtNDYuOHYtMTcuN3pNMTM2OS42Ny02NTYuOGg0Ni44djE3LjdoLTQ2Ljh2LTE3Ljd6TTE0MjEuMDgtNjU2LjhoNDYuOHYxNy43aC00Ni44di0xNy43ek0xNDcyLjA4LTY1Ni44aDQ2Ljh2MTcuN2gtNDYuOHYtMTcuN3pNMTMxOS4yOC02MzUuNDhoMjIuOHYxOC41N2gtMjIuOHYtMTguNTh6TTEzNDYuODgtNjM1LjQ4aDQ2Ljh2MTcuODRoLTQ2Ljh2LTE3Ljg0ek0xMzk5LjA4LTYzNS40OGg0Ni44djE3Ljg0aC00Ni44di0xNy44NHpNMTQ1MS42Ny02MzUuNDhoNDYuNnYxNy44NGgtNDYuNnYtMTcuODR6TTE1MDIuMjgtNjM1LjQ4aDE2LjJ2MTguNTdoLTE2LjJ2LTE4LjU4ek0xMzE4Ljg4LTYxNGg0Ni44djE3LjgyaC00Ni44di0xNy44NHpNMTM2OS42Ny02MTRoNDYuOHYxNy44MmgtNDYuOHYtMTcuODR6TTE0MjEuMDgtNjE0aDQ2Ljh2MTcuODJoLTQ2Ljh2LTE3Ljg0ek0xNDcyLjA4LTYxNGg0Ni44djE3LjgyaC00Ni44di0xNy44NHpNMTMxOS4yOC01OTQuMTVoMjIuOHYxOC41NmgtMjIuOHYtMTguNTV6TTEzNDYuODgtNTk0LjE1aDQ2Ljh2MTcuODNoLTQ2Ljh2LTE3Ljgzek0xMzk5LjA4LTU5NC4xNWg0Ni44djE3LjgzaC00Ni44di0xNy44M3pNMTQ1MS42Ny01OTQuMTVoNDYuNnYxNy44M2gtNDYuNnYtMTcuODN6TTE1MDIuMjgtNTk0LjE1aDE2LjJ2MTguNTZoLTE2LjJ2LTE4LjU1ek0xMzE4Ljg4LTU3Mi43aDQ2Ljh2MTcuODVoLTQ2Ljh2LTE3Ljg0ek0xMzY5LjY3LTU3Mi43aDQ2Ljh2MTcuODVoLTQ2Ljh2LTE3Ljg0ek0xNDIxLjA4LTU3Mi43aDQ2Ljh2MTcuODVoLTQ2Ljh2LTE3Ljg0ek0xNDcyLjA4LTU3Mi43aDQ2Ljh2MTcuODVoLTQ2Ljh2LTE3Ljg0eiIvPjx1c2UgdHJhbnNmb3JtPSJtYXRyaXgoMSwwLDAsMSwxMjg4Ljg3NTAyNzE0NDQ1ODcsLTU1NSkgdHJhbnNsYXRlKDkxLjUzMjcxNjA0OTM4MjczIDE5LjQ4ODg4ODg4ODg4ODg4NykiIHhsaW5rOmhyZWY9IiNhYyIvPjxwYXRoIGZpbGw9Im5vbmUiIHN0cm9rZT0iIzNhNDE0YSIgZD0iTTE1MzIuOTYtNjI3LjVoMTMuNWExMiAxMiAwIDAgMSAxMiAxMnY3NjkuMjNhMTIgMTIgMCAwIDEtMTIgMTJoLTQ2LjYiLz48cGF0aCBmaWxsPSIjM2E0MTRhIiBzdHJva2U9IiMzYTQxNGEiIGQ9Ik0xNTE5LjQ3LTYyNy41bDEzLTcuNXYxNXoiLz48cGF0aCBmaWxsPSIjM2E0MTRhIiBzdHJva2Utd2lkdGg9Ii4wNSIgc3Ryb2tlPSIjM2E0MTRhIiBkPSJNMTQ5OS45IDE2Ni4yaC0uNTN2LS45NGguNTJ6Ii8+PHBhdGggZmlsbD0ibm9uZSIgc3Ryb2tlPSIjM2E0MTRhIiBkPSJNMTg4MCAxMDAuNXYxNjhhMTIgMTIgMCAwIDEtMTIgMTJoLTQ1My4yNGExMiAxMiAwIDAgMS0xMi0xMnYtMTEuNjIiLz48cGF0aCBmaWxsPSIjM2E0MTRhIiBzdHJva2Utd2lkdGg9Ii4wNSIgc3Ryb2tlPSIjM2E0MTRhIiBkPSJNMTg4MC40NyAxMDAuNWgtLjk0di0uNWguOTR6Ii8+PHBhdGggZmlsbD0iIzNhNDE0YSIgc3Ryb2tlPSIjM2E0MTRhIiBkPSJNMTQwMi43NiAyNDIuMTJsNC42MyAxNC4yNmgtOS4yOHoiLz48cGF0aCBmaWxsPSJ1cmwoI2FkKSIgZD0iTTE3ODMuNS02MGgxOTN2MTc5LjA1aC0xOTN6Ii8+PHBhdGggZmlsbD0idXJsKCNhZSkiIGQ9Ik0xODAwLTYwaDE2MHYxNjBoLTE2MHoiLz48dXNlIHRyYW5zZm9ybT0ibWF0cml4KDEsMCwwLDEsMTgwOCwtNTIpIHRyYW5zbGF0ZSg4Ljc0NDg3NDQ4NzQ0ODc2MiAyNy44MDkxODA5MTgwOTE4MTIpIiB4bGluazpocmVmPSIjYWYiLz48dXNlIHRyYW5zZm9ybT0ibWF0cml4KDEsMCwwLDEsMTgwOCwtNTIpIHRyYW5zbGF0ZSgyOS4wNjgxMDY4MTA2ODEwODMgNjIuNzE4MjcxODI3MTgyNzI2KSIgeGxpbms6aHJlZj0iI2FnIi8+PHVzZSB0cmFuc2Zvcm09Im1hdHJpeCgxLDAsMCwxLDE4MDgsLTUyKSB0cmFuc2xhdGUoMTA0Ljc4NTI3ODUyNzg1MjgyIDYyLjcxODI3MTgyNzE4MjcyNikiIHhsaW5rOmhyZWY9IiNhaCIvPjx1c2UgdHJhbnNmb3JtPSJtYXRyaXgoMSwwLDAsMSwxODA4LC01MikgdHJhbnNsYXRlKDI0LjE3OTIxNzkyMTc5MjE5OCA5Ny42MjczNjI3MzYyNzM2MikiIHhsaW5rOmhyZWY9IiNhaSIvPjx1c2UgdHJhbnNmb3JtPSJtYXRyaXgoMSwwLDAsMSwxODA4LC01MikgdHJhbnNsYXRlKDIyLjU2MzA1NjMwNTYzMDU4NSAxMzIuNTM2NDUzNjQ1MzY0NTMpIiB4bGluazpocmVmPSIjYWoiLz48cGF0aCBmaWxsPSJub25lIiBkPSJNMTQxOC44OC0xMTIxLjI2YTggOCAwIDAgMSA4LThoNTU5LjJhOCA4IDAgMCAxIDggOHYxMjJhOCA4IDAgMCAxLTggOGgtNTU5LjJhOCA4IDAgMCAxLTgtOHoiLz48dXNlIHRyYW5zZm9ybT0ibWF0cml4KDEsMCwwLDEsMTQyMy44NzUwMjcxNDQ0NTg3LC0xMTI0LjI2MDQ0MDgyMTcxNDgpIHRyYW5zbGF0ZSgwLjQwNzQwNzQwNzQwNzM5MDU2IDQzLjE2NjY2NjY2NjY2NjY3KSIgeGxpbms6aHJlZj0iI2FrIi8+PHVzZSB0cmFuc2Zvcm09Im1hdHJpeCgxLDAsMCwxLDE0MjMuODc1MDI3MTQ0NDU4NywtMTEyNC4yNjA0NDA4MjE3MTQ4KSB0cmFuc2xhdGUoMjYzLjY2NjY2NjY2NjY2NjcgNDMuMTY2NjY2NjY2NjY2NjcpIiB4bGluazpocmVmPSIjYWwiLz48dXNlIHRyYW5zZm9ybT0ibWF0cml4KDEsMCwwLDEsMTQyMy44NzUwMjcxNDQ0NTg3LC0xMTI0LjI2MDQ0MDgyMTcxNDgpIHRyYW5zbGF0ZSgxMDIuMjU5MjU5MjU5MjU5MjcgMTA3LjE2NjY2NjY2NjY2NjY3KSIgeGxpbms6aHJlZj0iI2FtIi8+PHVzZSB0cmFuc2Zvcm09Im1hdHJpeCgxLDAsMCwxLDE0MjMuODc1MDI3MTQ0NDU4NywtMTEyNC4yNjA0NDA4MjE3MTQ4KSB0cmFuc2xhdGUoMTgyLjI1OTI1OTI1OTI1OTI3IDEwNy4xNjY2NjY2NjY2NjY2NykiIHhsaW5rOmhyZWY9IiNhbiIvPjxwYXRoIGZpbGw9IiNmZmYiIHN0cm9rZT0iIzNhNDE0YSIgZD0iTTQwNi4yNC0xMTQyLjNoNjB2NDIuNThoLTYweiIvPjxwYXRoIGZpbGw9InVybCgjYW8pIiBkPSJNNDEwLjU3LTEwODEuNTRoNTEuMzV2NDcuNjRoLTUxLjM1eiIvPjxwYXRoIGZpbGw9InVybCgjYXApIiBkPSJNNDE0Ljk2LTEwODEuNTRoNDIuNTd2NDIuNTdoLTQyLjU3eiIvPjxwYXRoIGZpbGw9InVybCgjYXEpIiBkPSJNNDEwLjU3LTEwMjAuOGg1MS4zNXY0Ny42NWgtNTEuMzV6Ii8+PHBhdGggZmlsbD0idXJsKCNhcikiIGQ9Ik00MTQuOTYtMTAyMC44aDQyLjU3djQyLjU4aC00Mi41N3oiLz48cGF0aCBmaWxsPSIjNmRiMWZmIiBzdHJva2U9IiMzYTQxNGEiIGQ9Ik00MDYuMjQtOTYwLjA0aDYwdjQ0LjhoLTYweiIvPjxwYXRoIGZpbGw9Im5vbmUiIGQ9Ik00ODYuOTctMTEyOC4zNGE4IDggMCAwIDEgOC04aDE3OC4zYTggOCAwIDAgMSA4IDh2MjAuOTRhOCA4IDAgMCAxLTggOGgtMTc4LjNhOCA4IDAgMCAxLTgtOHoiLz48dXNlIHRyYW5zZm9ybT0ibWF0cml4KDEsMCwwLDEsNDkxLjk2OTc1MzA4NjQxOTY0LC0xMTMxLjM0MjkyMDM3NjkwNDcpIHRyYW5zbGF0ZSgwLjM1MzA4NjQxOTc1MzA5NzQgMTcuOTg4ODg4ODg4ODg4ODg3KSIgeGxpbms6aHJlZj0iI2FzIi8+PHVzZSB0cmFuc2Zvcm09Im1hdHJpeCgxLDAsMCwxLDQ5MS45Njk3NTMwODY0MTk2NCwtMTEzMS4zNDI5MjAzNzY5MDQ3KSB0cmFuc2xhdGUoNjguODA4NjQxOTc1MzA4NjMgMTcuOTg4ODg4ODg4ODg4ODg3KSIgeGxpbms6aHJlZj0iI2F0Ii8+PHBhdGggZmlsbD0ibm9uZSIgZD0iTTQ4Ni45Ny0xMDY2LjQ4YTggOCAwIDAgMSA4LThoMTU3LjFhOCA4IDAgMCAxIDggOHYyMC45NWE4IDggMCAwIDEtOCA4aC0xNTcuMWE4IDggMCAwIDEtOC04eiIvPjxnPjx1c2UgdHJhbnNmb3JtPSJtYXRyaXgoMSwwLDAsMSw0OTEuOTY5NzUzMDg2NDE5NywtMTA2OS40NzcyODYwNDUzMDIyKSB0cmFuc2xhdGUoMC40NTE4NTE4NTE4NTE4NzA0IDE3Ljk4ODg4ODg4ODg4ODg4NykiIHhsaW5rOmhyZWY9IiNhdSIvPjx1c2UgdHJhbnNmb3JtPSJtYXRyaXgoMSwwLDAsMSw0OTEuOTY5NzUzMDg2NDE5NywtMTA2OS40NzcyODYwNDUzMDIyKSB0cmFuc2xhdGUoODguODU4MDI0NjkxMzU4MDQgMTcuOTg4ODg4ODg4ODg4ODg3KSIgeGxpbms6aHJlZj0iI2F2Ii8+PC9nPjxwYXRoIGZpbGw9Im5vbmUiIGQ9Ik00ODYuOTctMTAwNC42YTggOCAwIDAgMSA4LThoMTA1Ljk4YTggOCAwIDAgMSA4IDh2MjAuOTNhOCA4IDAgMCAxLTggOEg0OTQuOTdhOCA4IDAgMCAxLTgtOHoiLz48Zz48dXNlIHRyYW5zZm9ybT0ibWF0cml4KDEsMCwwLDEsNDkxLjk2OTc1MzA4NjQxOTY0LC0xMDA3LjYxMTY1MTcxMzcwMDEpIHRyYW5zbGF0ZSgwLjAxMzU4MDI0NjkxMzU5MTA1NCAxNy45ODg4ODg4ODg4ODg4ODcpIiB4bGluazpocmVmPSIjYXciLz48L2c+PHBhdGggZmlsbD0ibm9uZSIgZD0iTTQ4Ni45Ny05NDIuNzVhOCA4IDAgMCAxIDgtOGgyMDQuMzZhOCA4IDAgMCAxIDggOHYyMC45NWE4IDggMCAwIDEtOCA4SDQ5NC45N2E4IDggMCAwIDEtOC04eiIvPjxnPjx1c2UgdHJhbnNmb3JtPSJtYXRyaXgoMSwwLDAsMSw0OTEuOTY5NzUzMDg2NDE5NywtOTQ1Ljc0NjAxNzM4MjA5NzgpIHRyYW5zbGF0ZSgwLjMyMjgzOTUwNjE3Mjg0MDYzIDE3Ljk4ODg4ODg4ODg4ODg4NykiIHhsaW5rOmhyZWY9IiNheCIvPjx1c2UgdHJhbnNmb3JtPSJtYXRyaXgoMSwwLDAsMSw0OTEuOTY5NzUzMDg2NDE5NywtOTQ1Ljc0NjAxNzM4MjA5NzgpIHRyYW5zbGF0ZSg4My42MTY2NjY2NjY2NjY2NiAxNy45ODg4ODg4ODg4ODg4ODcpIiB4bGluazpocmVmPSIjYXkiLz48L2c+PHBhdGggZmlsbC1vcGFjaXR5PSIwIiBzdHJva2U9IiMzYTQxNGEiIGQ9Ik0zNDAtMTE3MmE4IDggMCAwIDEgOC04aDQ0NGE4IDggMCAwIDEgOCA4djI3Ny4xNGE4IDggMCAwIDEtOCA4SDM0OGE4IDggMCAwIDEtOC04eiIvPjxwYXRoIGZpbGw9Im5vbmUiIHN0cm9rZT0iIzNhNDE0YSIgZD0iTTYxOC44OCAzNTEuNHYtNDMuMmExMiAxMiAwIDAgMSAxMi0xMmg3NzZhMTIgMTIgMCAwIDAgMTItMTJ2LTI3LjMyIi8+PHBhdGggZmlsbD0iIzNhNDE0YSIgc3Ryb2tlLXdpZHRoPSIuMDUiIHN0cm9rZT0iIzNhNDE0YSIgZD0iTTYxOS4zNSAzNTEuOWgtLjk1di0uNTJoLjk1eiIvPjxwYXRoIGZpbGw9IiMzYTQxNGEiIHN0cm9rZT0iIzNhNDE0YSIgZD0iTTE0MTguODggMjQyLjEybDQuNjMgMTQuMjZoLTkuMjZ6Ii8+PHBhdGggZmlsbD0iIzIzMmYzZCIgc3Ryb2tlLW9wYWNpdHk9IjAiIHN0cm9rZT0iIzAwMCIgZD0iTTEyNjkuNC0xMDkwLjM3YzIxLjUgMTEuODQgMzEuNzIgMjYuNTggMzEuNzIgNDQuODIgMCAxNy42NS01LjggMzEuNjItMTcuNCA0Mi4xLTE5LjEgMTcuMDctNDYuMzggMTcuNDYtNDguNzcgMTcuNDZsLTIyMC4zNy0uMThjLTcuNSAwLTE1LTEuOTQtMjEuNS01LjQ0LTEyLjI3LTYuNi0zMy4wOC0yMi41LTMzLjA4LTUyLjc3IDAtMzUuMyAyNi45NS00OS4wNyA0My42Ni01NC4xMiAwLTEuMTYtLjM0LTIuNTItLjM0LTMuNjggMC0yOS41IDIyLjg2LTYwLjE0IDUzLjIyLTcxLjIgMzUuMTMtMTMgNzIuNjYtNi42IDk5Ljk1IDE3LjA3IDcuODMgNi45OCAxNC4zMiAxNS4zMyAxOS43NyAyNS4wMyAxMC4yNC03IDIzLjU0LTkuMTIgMzYuMTYtNS42MyAxNi43MiA0LjY2IDI4LjMyIDE4LjI0IDMxLjQgMzYuODYgOC41IDEuOTQgMTcuNzIgNS40MyAyNS41NyA5Ljd6bTMuNCA3Ni44M2M4LjU0LTcuNTcgMTIuOTctMTguNDMgMTIuOTctMzIgMC04LjE2LTIuNzItMjAuNzctMjQuNTYtMzIuOC0xMS4yNC02LjQtMjEuODItOC4zNC0yNS45LTkuMTItNC4xLS41OC03LjE4LTMuODgtNi41LTcuNzYtMS4zNi0xNC43NC05LjItMjUuMDItMjEuMTQtMjguMzItMTAuMjQtMi43Mi0yMS4xNS41OC0yNy45OCA4LjUzLTEuNyAxLjkzLTQuNDMgMy4xLTcuNSAyLjctMi43My0uMzgtNS4xMi0yLjEzLTYuMTQtNC42NS00Ljc4LTExLjY0LTExLjYtMjEuNTMtMjAuNDctMjkuMS0xMC45LTkuNS00MC45My0yOS44OC04My4yMy0xNC4zNi0yNC4yMiA4LjkyLTQzLjMyIDM0LjUzLTQzLjMyIDU4LjIgMCAyLjcgMCA1LjI0LjM0IDcuOTUuNjggMy41LTIuMDUgNy01LjggNy43NmgtLjM0Yy0xNC4zMyAzLjMtMzcuODcgMTMuMi0zNy44NyA0Mi4xIDAgMjIuMTMgMTQgMzQuMzUgMjUuOTMgNDAuNzYgMy43NSAyLjMyIDguNTIgMy4zIDEzLjMgMy4zbDE4My41Mi4yIDM2Ljg1LjE4Yy4zNCAwIDIzLjItLjIgMzcuODYtMTMuNTh6bS0xNDUuMy04MS42OGMzMCAwIDU4LjY3IDEwLjQ4IDgwLjUgMjkuNWwtMTAuOTIgMTAuMDhjLTE4Ljc2LTE2LjUtNDMuNjYtMjUuNi02OS42LTI1LjYtMjcuNjIgMC01NC4yMyAxMC40Ny03MyAyOC45bC0xMS4yNS05LjdjMjEuODQtMjEuMTUgNTIuNTQtMzMuMTggODQuMjYtMzMuMTh6bTAgMjUuNDJjMjMuODcgMCA0Ni4wNCA4LjczIDYyLjc2IDI0LjI1bC0xMS4yNiA5LjdjLTEzLjY0LTEyLjgtMzIuMDYtMTkuOC01MS41LTE5LjgtMjAuNDcgMC0zOS45MiA3Ljk3LTUzLjU2IDIxLjc0bC0xMS42LTkuMzJjMTYuMzctMTYuODggNDAuMjUtMjYuNTggNjUuMTUtMjYuNTh6bTAgMjUuNmMxNi4zNyAwIDMyLjA2IDYuMjIgNDMuMzIgMTcuMDhsLTExLjI2IDkuNWMtOC41My03Ljk1LTE5LjgtMTIuNC0zMi4wNy0xMi40LTEzLjY1IDAtMjYuMjcgNS40Mi0zNC40NiAxNS4xMmwtMTIuMjgtOC41M2MxMS4yNi0xMy4yIDI4LjMtMjAuNzYgNDYuNzMtMjAuNzZ6Ii8+PGc+PHVzZSB0cmFuc2Zvcm09Im1hdHJpeCgxLDAsMCwxLDkzMCwtOTc2Ljk5KSB0cmFuc2xhdGUoMTYzLjAwMDMwODY0MTk3NTMyIDE3Ljk1NTU1NTU1NTU1NTU1MikiIHhsaW5rOmhyZWY9IiNheiIvPjwvZz48cGF0aCBmaWxsPSJub25lIiBzdHJva2U9IiMzYTQxNGEiIGQ9Ik0xMzY5LjE3LTY5Ny45OGgtMjI2LjZhMTIgMTIgMCAwIDEtMTItMTJWLTk2OS43Ii8+PHBhdGggZmlsbD0iIzNhNDE0YSIgc3Ryb2tlLXdpZHRoPSIuMDUiIHN0cm9rZT0iIzNhNDE0YSIgZD0iTTEzNzIuNjctNjk3LjVoLTN2LS45NmgzeiIvPjxwYXRoIGZpbGw9IiMzYTQxNGEiIHN0cm9rZT0iIzNhNDE0YSIgZD0iTTExMzAuNTYtOTg0LjQ2bDQuNjQgMTQuMjZoLTkuMjd6Ii8+PHBhdGggZmlsbD0iIzNhNDE0YSIgc3Ryb2tlLXdpZHRoPSIuMDUiIHN0cm9rZT0iIzNhNDE0YSIgZD0iTTExMzkuMzUtMjc2Ljg4aC0uOTV2LTE0Ni45aC45NXptMTc5LjQzLTM1MC4xNGgtMTY3LjlsLTEuOC4xNC0xLjc3LjQyLTEuNjYuNy0xLjU0Ljk0LTEuMzcgMS4xNy0xLjE4IDEuMzgtLjk0IDEuNTQtLjY4IDEuNjctLjQzIDEuNzYtLjE1IDEuODJ2MTU1Ljc3aC0uOTV2LTE1NS44MmwuMTUtMS45My40Ni0xLjkuNzYtMS44IDEuMDItMS42OCAxLjI3LTEuNSAxLjUtMS4yNiAxLjY2LTEuMDIgMS44Mi0uNzUgMS45LS40NSAxLjk0LS4xNWgxNjcuOTJ6Ii8+PHBhdGggZmlsbD0iIzNhNDE0YSIgZD0iTTEzMTkuMjgtNjI3LjAyaC0uNTJ2LS45NmguNTJ6Ii8+PHBhdGggZmlsbD0iIzNhNDE0YSIgc3Ryb2tlLXdpZHRoPSIuMDUiIHN0cm9rZT0iIzNhNDE0YSIvPjxwYXRoIGZpbGw9IiMzYTQxNGEiIGQ9Ik0xMTM4Ljg4LTI2Mi4xMmwtNC42NC0xNC4yNmg5LjI3eiIvPjxwYXRoIGZpbGw9IiMzYTQxNGEiIHN0cm9rZS13aWR0aD0iLjA1IiBzdHJva2U9IiMzYTQxNGEiIGQ9Ik0xMTM4Ljg4LTI2MC41OGwtNS4zLTE2LjI4aDEwLjU4em0tNC0xNS4zM2w0IDEyLjI1IDMuOTgtMTIuMjZ6Ii8+PHBhdGggZmlsbC1vcGFjaXR5PSIwIiBzdHJva2U9IiMzYTQxNGEiIGQ9Ik0xMDU2LjAyLTQ0MS43NGExNy40NyAxNy40NyAwIDAgMSAxNy40Ny0xNy40N2gxMzAuNzZhMTcuNDcgMTcuNDcgMCAwIDEgMTcuNDcgMTcuNDYgMTcuNDcgMTcuNDcgMCAwIDEtMTcuNDcgMTcuNDdIMTA3My41YTE3LjQ3IDE3LjQ3IDAgMCAxLTE3LjQ4LTE3LjQ3eiIvPjxnPjx1c2UgdHJhbnNmb3JtPSJtYXRyaXgoMSwwLDAsMSwxMDY4LjAxOTE2Mjk0NjkyOCwtNDU1LjIwODUyNjc0MTM5NjUpIHRyYW5zbGF0ZSgwLjAwNDk5OTk5OTk5OTk5NTQ1MjUgMTcuOTU1NTU1NTU1NTU1NTUyKSIgeGxpbms6aHJlZj0iI2FBIi8+PHVzZSB0cmFuc2Zvcm09Im1hdHJpeCgxLDAsMCwxLDEwNjguMDE5MTYyOTQ2OTI4LC00NTUuMjA4NTI2NzQxMzk2NSkgdHJhbnNsYXRlKDgwLjgwNDk5OTk5OTk5OTk5IDE3Ljk1NTU1NTU1NTU1NTU1MikiIHhsaW5rOmhyZWY9IiNhQiIvPjwvZz48cGF0aCBmaWxsPSIjM2E0MTRhIiBzdHJva2Utd2lkdGg9Ii4wNSIgc3Ryb2tlPSIjM2E0MTRhIiBkPSJNOTUyLjc1LTI3Ni44OGgtLjk1di0xNDYuOWguOTV6bTM2Ni4wMy0zNTAuMTRoLTM1NC41bC0xLjguMTQtMS43Ny40Mi0xLjY2LjctMS41NC45NC0xLjM3IDEuMTctMS4xOCAxLjM4LS45NCAxLjU0LS42OCAxLjY3LS40MyAxLjc2LS4xNSAxLjgydjE1NS43N2gtLjk1di0xNTUuODJsLjE1LTEuOTMuNDYtMS45Ljc2LTEuOCAxLjAyLTEuNjggMS4yNy0xLjUgMS41LTEuMjYgMS42Ni0xLjAyIDEuODItLjc1IDEuOS0uNDUgMS45NC0uMTVoMzU0LjUyeiIvPjxwYXRoIGZpbGw9IiMzYTQxNGEiIGQ9Ik0xMzE5LjI4LTYyNy4wMmgtLjUydi0uOTZoLjUyeiIvPjxwYXRoIGZpbGw9IiMzYTQxNGEiIHN0cm9rZS13aWR0aD0iLjA1IiBzdHJva2U9IiMzYTQxNGEiLz48cGF0aCBmaWxsPSIjM2E0MTRhIiBkPSJNOTUyLjI3LTI2Mi4xMmwtNC42My0xNC4yNmg5LjI3eiIvPjxwYXRoIGZpbGw9IiMzYTQxNGEiIHN0cm9rZS13aWR0aD0iLjA1IiBzdHJva2U9IiMzYTQxNGEiIGQ9Ik05NTIuMjctMjYwLjU4TDk0Ny0yNzYuODZoMTAuNTZ6bS0zLjk4LTE1LjMzbDMuOTggMTIuMjUgMy45OC0xMi4yNnoiLz48cGF0aCBmaWxsLW9wYWNpdHk9IjAiIHN0cm9rZT0iIzNhNDE0YSIgZD0iTTg2OS40Mi00NDEuNzRhMTcuNDcgMTcuNDcgMCAwIDEgMTcuNDctMTcuNDdoMTMwLjc2YTE3LjQ3IDE3LjQ3IDAgMCAxIDE3LjQ3IDE3LjQ2IDE3LjQ3IDE3LjQ3IDAgMCAxLTE3LjQ3IDE3LjQ3SDg4Ni45YTE3LjQ3IDE3LjQ3IDAgMCAxLTE3LjQ4LTE3LjQ3eiIvPjxnPjx1c2UgdHJhbnNmb3JtPSJtYXRyaXgoMSwwLDAsMSw4ODEuNDE5MTA4MzYzNTU2OCwtNDU1LjIwODUyNjc0MTM5NjUpIHRyYW5zbGF0ZSgwLjAwNDk5OTk5OTk5OTk5NTQ1MjUgMTcuOTU1NTU1NTU1NTU1NTUyKSIgeGxpbms6aHJlZj0iI2FBIi8+PHVzZSB0cmFuc2Zvcm09Im1hdHJpeCgxLDAsMCwxLDg4MS40MTkxMDgzNjM1NTY4LC00NTUuMjA4NTI2NzQxMzk2NSkgdHJhbnNsYXRlKDgwLjgwNDk5OTk5OTk5OTk5IDE3Ljk1NTU1NTU1NTU1NTU1MikiIHhsaW5rOmhyZWY9IiNhQiIvPjwvZz48cGF0aCBmaWxsPSIjM2E0MTRhIiBzdHJva2Utd2lkdGg9Ii4wNSIgc3Ryb2tlPSIjM2E0MTRhIiBkPSJNNzc5LjM1LTI3Ni44OGgtLjk1di0xNDYuOWguOTV6bTUzOS40My0zNTAuMTRoLTUyNy45bC0xLjguMTQtMS43Ny40Mi0xLjY2LjctMS41NC45NC0xLjM3IDEuMTctMS4xOCAxLjM4LS45NCAxLjU0LS43IDEuNjctLjQgMS43Ni0uMTUgMS44MnYxNTUuNzdoLS45NXYtMTU1LjgybC4xNS0xLjkzLjQ2LTEuOS43Ni0xLjggMS4wMi0xLjY4IDEuMjctMS41IDEuNS0xLjI2IDEuNjYtMS4wMiAxLjgyLS43NSAxLjktLjQ1IDEuOTQtLjE1aDUyNy45MnoiLz48cGF0aCBmaWxsPSIjM2E0MTRhIiBkPSJNMTMxOS4yOC02MjcuMDJoLS41MnYtLjk2aC41MnoiLz48cGF0aCBmaWxsPSIjM2E0MTRhIiBzdHJva2Utd2lkdGg9Ii4wNSIgc3Ryb2tlPSIjM2E0MTRhIi8+PHBhdGggZmlsbD0iIzNhNDE0YSIgZD0iTTc3OC44OC0yNjIuMTJsLTQuNjQtMTQuMjZoOS4yN3oiLz48cGF0aCBmaWxsPSIjM2E0MTRhIiBzdHJva2Utd2lkdGg9Ii4wNSIgc3Ryb2tlPSIjM2E0MTRhIiBkPSJNNzc4Ljg4LTI2MC41OGwtNS4zLTE2LjI4aDEwLjU4em0tNC0xNS4zM2w0IDEyLjI1IDMuOTgtMTIuMjZ6Ii8+PHBhdGggZmlsbC1vcGFjaXR5PSIwIiBzdHJva2U9IiMzYTQxNGEiIGQ9Ik02OTYuMDItNDQxLjc0YTE3LjQ3IDE3LjQ3IDAgMCAxIDE3LjQ3LTE3LjQ3aDEzMC43NmExNy40NyAxNy40NyAwIDAgMSAxNy40NyAxNy40NiAxNy40NyAxNy40NyAwIDAgMS0xNy40NyAxNy40N0g3MTMuNUExNy40NyAxNy40NyAwIDAgMSA2OTYtNDQxLjc1eiIvPjxnPjx1c2UgdHJhbnNmb3JtPSJtYXRyaXgoMSwwLDAsMSw3MDguMDE5MTYyOTQ2OTI4LC00NTUuMjA4NTI2NzQxMzk2NSkgdHJhbnNsYXRlKDAuMDA0OTk5OTk5OTk5OTk1NDUyNSAxNy45NTU1NTU1NTU1NTU1NTIpIiB4bGluazpocmVmPSIjYUEiLz48dXNlIHRyYW5zZm9ybT0ibWF0cml4KDEsMCwwLDEsNzA4LjAxOTE2Mjk0NjkyOCwtNDU1LjIwODUyNjc0MTM5NjUpIHRyYW5zbGF0ZSg4MC44MDQ5OTk5OTk5OTk5OSAxNy45NTU1NTU1NTU1NTU1NTIpIiB4bGluazpocmVmPSIjYUIiLz48L2c+PGRlZnM+PGltYWdlIHByZXNlcnZlQXNwZWN0UmF0aW89Im5vbmUiIHhsaW5rOmhyZWY9ImRhdGE6aW1hZ2UvcG5nO2Jhc2U2NCxpVkJPUncwS0dnb0FBQUFOU1VoRVVnQUFBR0FBQUFCWUNBWUFBQUFLc2ZMNEFBQUFBWE5TUjBJQXJzNGM2UUFBQUVSbFdFbG1UVTBBS2dBQUFBZ0FBWWRwQUFRQUFBQUJBQUFBR2dBQUFBQUFBNkFCQUFNQUFBQUJBQUVBQUtBQ0FBUUFBQUFCQUFBQVlLQURBQVFBQUFBQkFBQUFXQUFBQUFBNFlxd0pBQUFIWWtsRVFWUjRBZTFkM1c3Yk5oUW1LY3UySEx0Sm5IaHQycXd3dW5RWEN6QmdsN3ZMN1I0Zzc1UDN5VXZrQmJLN2JPZ3dGRm0zRlJpY3BiR1QyTEwxdzUwalc0blRtanlxWkdOb2RBakVrZy9QK1VoK0h5bksrbUdFb0pPa1hkakR3SUF5Mk8vTXBNUCsvcjU3NTgwN244bkFmb1VLSUFVNG94QTR2eEFEcEFDRjBEbVlaSUFGSUNsYXJRTUxzRnArU1hSU2dIMFNnaDJNREdRZ2p4U0FKMkVqdlhSR0J2SklBZWhTMktNSUE2UUFHVVpSa2ZKTEgwc0tVSHFHVmt3QUtjRDQ1VXUrRkpGVGhMMjlaWEMzdjEvTldUNkhDWm83Y2dRd2l3VVl5RENCa2dKa3dDaFFRdzRsQldDS1Zzc0FLY0JMbm9Seks3QTNwaWRoVW9CMzc5N3AzRFVvZWVEdk5abzdVb0NTYzdqeTVyTUFxNlI0R2RlQ01tQ3NzZ2xmTm5hR1UwaHlCUHpFazNEdVRwQmxFcWJCK1pjd3paSEpJd04zNUFnd1liTjlPUXhRQXNqdTdTM2xzNXlhUEVhVThaaThrRW1TRzRZN0pNaGo1RzRaYmVxR3U4aWRsVCtiQVBMdzhGQzF2MnZaZkpaUnowZUxzYlhWVXNpaFRRUWJ1YnJYNjhuaDI3N3phQmxhY2NQK3VQbk5PVDVPQ2pGZVRiQUpJSyt2cjJYWUhOdDhWdHlFTHh2K1NkQlVCd2M5NjJISSt1eWk3L3N5VnNwNkRQdXlLVnA5N2JFVDIwb2hlM2NjeDFZQUczalo4K0k0SXJtekNIQWs4VkowYzIyTkJDazcwYWIydDFwTjZmdXZyUHhaSnRnVHhIV0djZXdPZXIyUnFSQzJteGxvTmp1MTU4L0R5Zm41ZVd6eXNveUFXVWpmRk1yMlpUQkFDN0MrakdMS2lmRWhRN05wQVRLQXNNdGlCallYbXg5WUxRSWN5ZGV2WDR2bTJqUHJKUElBamI4OFlFQjF2a3AvZ0JrNXBDZmhEMVYzTVBpTEorRUgxR2I4NG9uYXJ6OS9NeEhpbDF5VHNGRzFqTVdYM2swNURveUE2YlVJRXhtV1E1Q1lEcC8xZ1NtVzdVdGd3Q2JBYkFROFdVSXhER0Zpd0NhQUNNTlFOaVA2NTdRSnZPeDJlVm5CbzBnNkVTK2t3eXJBd2dnMkxwVUJGbUNwZEg0K0dDbkE5ZWRqY3NTTUFhWHdMTWllU0FIczRaeGJsQUVXb0NpREJlTlpnSUlFMnNJZHh5MStGdFN5bGNCNWhSa2dSd0JQd29VNXRnS1FBcXhsdUs5cExhSEVtVXBWK1N6by85WC9UN0o0WWdSMFNRQjJJQm13amdKQ0FCS2NIUW95d0FJVUpMQm9PQ0hBZVZIOFVzZFhLc25WVUNzSGhBRFdXTTVjQWdNc3dCSklMQUpCQ05BdGdsMzYyUE1NREJnRmdCY0w1TTdPV05ick5hTlBCdnhTdTNTN1hXeC83b2NiMU83dWo5N2UzZytkVXJOWXFQRjdOU3JjMXJ0ekswY1ZXcHI4UGJxbE5nR1NhTjNnbS9JMGpmazk3QUo4blIrWUk3TXhZQkpBSGh3Y3lLZVRiZWw1SGgrS3NuSDVpZGZzTmRWUDdQTUc0N09oOEZLQmRKd3RKMVJSL2FyMy9tWStpUGV6TVhEMVlrMkpYaSt5ZVp0R2dDMkc4N0l5a0dHcEdWSUFqMS9TeTBwM0xqOVNnQnNXSUJleFNWQ0I5WUtTU2JqZGJxbDJ1ODZUY0U0SnNxd1haSitFZHpjYzRjdkc1VDkvOHpQcU9VUzR2S3dCdi9rbVllajFoMG1ST3I3bEVaQ0QvS3docGprQTdtUDI1SFlReUtycm1ueXlsbEZldnlKemdCQ2Q1R1p5SEVVc1FONHVWT1EwRkZmNWlOcHQ2Y1pORmlDbkFGbVdyemVScTA5T1lBVDBla0pybitlQW5BSXNaZVZjWGkwbEovc1lWdVFRZEppY0JIWEVXRmQ1QkJUUWdBbzFrWXQyQmYvSTB4dUd6Z3RYdS85R1VhRHc5dVN0R041aHJzRmVITmVsVXI2K25Wbm5iYWtqNW5uZ053SS96RTlUWElkWTMzL3c1Tmdpdk5SL3ZnemNSNngwaXo3cC9yd2YyakdoRGV1QWRVME1zdzhzRCt1VjJoN1d2d0htYVh2VGVnbUJOa3hvYjRpaEhHbWxsSlpEUjFjcW85aHhOdlZvTklsOFh3U2JtMzU0ZG5ZR0wycWJrMGtBQWZlRW5UZHYrdlVvdXRnUkZma3NESVVycFhDVmxQamVUUktIbC9tTXYrU01aWWF6SEZ5c0MvYy8zaUo0UldNWlVrU3djZkExdzltK0VYU1c0WWhJeHRyUldrWlNRdGcweVFqeFFzREE1M1RDcE03eitYZCs0ajRtdFVISitxNktzL29DVUlLTjlZdGlGY2VPRGtXb3hsV3B4bERWUU5jcXR5TXg2cjg5UGNXSHk0MXZ5V01aUmdFd3IzdHdVS3YxKzIwUlJhMG9jcHk2bEpVSk5BNEQwK1JXWFJFRzRiUkNVTmxKQVAyaVVwSHdpcXVXVmFtREdSRXV4QVdoMURXcE5OUVMwa1RnRFZQY2x6T2ZkSXU1bVBDN25DakFCaTl3bHJLdWNSZDduSjlFM3NjcXdKMUczWC9lNFUwTEZEWEFtQUNlVEh4bnF5L1VQU0g4a1JnRFpocnAxY0UwQnIvRU52V3J4elhwcTdGV1BnZ0NJUUxNbnRmQVYzbWh0NC9qSU5DQjUwM0Nadk5iNkpmdmc5UFRVK3hkZDVncDlzZGIyNXB4K3Z4RWhFKy9qL3JlWURDTVd5MjVYdDF5L0g0L0VRQkpRTEJxdFNhRFNRVEQ4QmErUHdGYUJxSXlXWk5EMTQ4RlZBVlh1N20rVnJvR3EwZE5ibTUwT2g3eEJUWVBiT0gxRGNUZDEzTmpZME5jWFYwbDlWUnFBQm00NWdoVU13bE1SdytLZ0huM3lkYk5uR1RKQURob0REZmdIc2NIamNNclRkdU5ocmdZRG9VN0I3QlIzeFlYTnhlcFM3SU5SQXRHRGx5UndkYjc4QWRiMzI5Q1hjZHcySEYxbzlHUG1zMzErTldyZW54OGZJcG9jNlVrRUFzL0h2VG1CUjZZRDMrSGNIRXVXZjBQeUxRdlFyY0E0MUdiV3ExV1FuU24wOUhIeDhjYXp0dDFjdGhhUWF0QmlDUDgzVEFUWmJvOU9scTk3ZU15ODM1ZlZGY2c3RUY3RUh1aEh3eTZCZVhPMnlBN1NZakhpUmxnQnBnQlpvQVpJQm40RHp0bUZtQmpjNDRPQUFBQUFFbEZUa1N1UW1DQyIgaWQ9ImJVIiBoZWlnaHQ9IjEwIiB3aWR0aD0iMTAiLz48aW1hZ2UgcHJlc2VydmVBc3BlY3RSYXRpbz0ibm9uZSIgeGxpbms6aHJlZj0iZGF0YTppbWFnZS9wbmc7YmFzZTY0LGlWQk9SdzBLR2dvQUFBQU5TVWhFVWdBQUFEa0FBQUE1Q0FZQUFBQ01HSU9GQUFBQUFYTlNSMElBcnM0YzZRQUFBRVJsV0VsbVRVMEFLZ0FBQUFnQUFZZHBBQVFBQUFBQkFBQUFHZ0FBQUFBQUE2QUJBQU1BQUFBQkFBRUFBS0FDQUFRQUFBQUJBQUFBT2FBREFBUUFBQUFCQUFBQU9RQUFBQUMza1lxZ0FBQUtTRWxFUVZSb0JlMVpmV3lUeHhtL2UyM0hEaVFVQW95V3BXRktVanVKQXpUMjJNYldzYVdzbXFaQ1I2YTJGRVpKeDZDMEs3VFRwQW1wV3JWTlZUZXByRnFsaHFhdG1OUlBxYkFOdHJCdTFTYjRZMXRYcWEyTkIzYjhFWWRFR1dRRkdnZ0tnV1RPKzk1K3o5bnZHK2YxUno2V1pFSHlDWHgzenoxMzkvenUrYnIzd2xpaEZFNmdjQUtGRXlpY1FPRUVwblFDZkVxejV0WWtpN1BXdTVFcllqZkVFZ09YK2IyOXZiNXI2U0phMHpzM1V0dnA5QzVoVnJaTDRld1J4bGtGd3crVjBsS3REdFZIc3BQNnVlRkFPdDIzcjFHWTVUSEJ4QU9jYzNzNkdHb1BLY281TSsyR01OZnE2bXE3NGlpOW53dStGOERXbUVIb2ZjSFk5V2pRTng5OU5FZkxuTlprcGR0YlVjUzFSd1RqT3pualMxTVdPU3E5cWNVRk93UFNHSURFTWlkQk91c2Exbk5GMlFQNU5qS21XTkxNalFMS1BCSmNMMENrQXR3RkhNQXRNR0VDbVZIbURFaVh5MVVxclBPM0E5QmpNTWxhWFZJaHhERGFod1huL1JpRFJzY1dqUCtRNkFnOHQyQWtLMGhsN0pUWjc5MVc3Nm10Y1h0ZVlOYVNjd3JuTFFaQXdYbzBqVDA1eklZL0E2bjZJT2hlZ0NsT2x4Q2FleXNXOGovUE9DY2VHQ3JQQ3ZML3BVbmtOczg5WElIV0dGOVB2b1ovc2tBeng0WEdEc1RDL3JicTZvWXl1OTF4aUhQV21CbzJLaUZZWVBES2hWMHJhcjAzZ3loTldGUG1nTGxDNktWS2tiSnpOTGNsWlliQUE1eUoxN1VFYjRuRi9CR2lWdGQ2UFZhRkhRWDZDdW9EL0Q5d0ZQVUF2QUNocFkrcmF0UFpzMmV2dTl4TFBJeFppSVZLWjdJYSt6c3Jta3psdGowd3I4MFEwc2h0RUR5TXdIR0Fqd3krSG9sR0IzVFJuUFVORDBLekw2TmZEQjROYzU1Ryt5NENTSUVHcE0yeFNLQ2IrQkY1cThnS3dDZXVYN2tnYVVSUEx6TUdVdVkyZStsbW1PTWVQYmVoVGZGZGhRREhoS2ExeE5wUEhrOFhCbTJyeSszWkQ3N3ZFeDJIMGcvWnR5TENiZ1RBTHhLTmEyeGZORzBlL0xpUzZDai9KczBtbTJOL3B4MmtrZHVFc2d1Q0xkRzNnOEFYQWZIZ0NFdTBkZ2FELzlMcGVrMm1iTEVyaHpIbnE1SW1XR2lFc1UwUWNCMW9qeVpwNHUxSXUvODVmUTdWTVBWS2pLTmtEem8wTW0wZ00zS2IzRmdLOFlGZzJnRnRlT0JRUEI2bmRKQlJzdmpmYnkreDRZY1dNVnN0NDhxTE5BR0hkQXFYNys5bVRHWkpUV0s3ckpHVitQOG5rS25jMWd4elJKUmtOYm9BTUxGaG1Od2hqYWt0c1ZEZ1E1MmVyWmIrSjlncnNHUUg1cEgvUFJVTitYOVdWYlhxVTd6WWNnVHIyb0h3RWhzWjJkVGJlMnJNMXdXdGgzRnBybHFPb0VNOFV3Skp1YzBpR0M3SmZEc2laU2t0SkF2bE5zWmFXWUlmak1aOG4ramtIRFg1M3k5d0dFK1FwTHIvUlVNbi93UitxNjNZK212VTVlVERLbWRiNHRGVFhlWjF5c3ZMaXpIdlp2SjFMcktuRDVvekdaQjZidHVESmU4a3dmQlBGbWdBdVEzaFArdzdCZ0lGbHJ3bGwvOTF0cCtNMDBSY0RuNkoxZGZKUllSNE1oN3kvem5iZ280RmkrR1BLWTlVdEttYnE1N2JrTGdmQmFoYjljMVN1ZTAxNUxZRGVtN1R4L0xWTlRVZUw3UHdJemloQ3VMREFVbi91eGdLWGFXKzArMXR4aGpkVzBtN2gyRzZ6MUk3VzdGeWl4NVoyWkJJVEI2azA3MzZjNXhaYUxQN2NWWkdib05VN1Jwakw1cHpXelloekRTbnUyRTdUUHhsckRmRy8zUStPZ0NZNTB2VVIzMjYvK0xJRG4wc1c0MzdiR1hLbXE1MWgwSWZaK01oV29hNUxuVzdTOHFZb3cyQ05PcVR5QzhRL3R1Z3ZSYWM3QW1kUG9uYTZxcjNQZ2VCSHFjNTVIK290a1NDL25mMU5jaGloSlVmQlk4REhKZFZ4cHZPbno4MXFJL25xSFZONXRRaXpjc0F1WkRacXRNQkpoZkhsZXMvNmxPeDJEOHp2cnB6Ykc2UVNYaXJnMU1RK1VxS0dCd1JyS2t6NUpmK2w2SlpaWTZFTzFDRUJXMXJQT1RyVEkzbHJIQWdWVFNJT1hsQkt1WVZPa0tCZ0NhMFp0Q0QraGdDelhlVUltdDNUYjNuaUxPMjRXdWdZLzN4QzVtZnhhSDR3QzRCd2hKKzB5ZUcxcG9BTWhsbFU1Y0FJZmlQWUMyR2h2UHRBbkFUMG1SZVlaMTFuaThqUlh3UEczMExuek5GeG9aQ2RPQzRXNGNHRXEvMjlKeStiTkRUR3VSL25DbUcvNUh3c1hiZno5TllaTk5WNTluR0ZmNEdkU2dJQWVDOVpwNGNmUTRYR0FTQVlxWnBqMGZhVDc2UWcyOWlHcUhFakx5MUU4NzBNTUN1MEJjVGVGT0JhRy9Ed2xyVGt2NFkveVAvZ2dhM1p0Tk9kZDNxQm90aWZVOEtpbXRjSHh2NmdoNWw5VDF5MVM1WHczSnVTejVhcVNyYjBCSDJ2Wk9MTjY4bXMweFNrTVB1QmppNlMzNGRLU3JOM0lVUGgwQTNGMXlvaytZSm5pRGRQK1BCVFAraUowWEZKajZpUTZOQUJEOWRZemJqTFBzYkpLU2FPMkJsZnlPQ3lrUmRSOUFmTmdaTmpZekFZeG8zZDdWSXlFOEovNWpUdWJLUzJXeTdBV2dIQWhVdTR0d0xnUFI1SkF2NVgvOG5pWWR5UkVnTHQ0bERFaURNQUY4azMrNE1COUlEa2I1TW5scURQeXBrNGlJeGVLa3JEeU80cGxoaXNkTm5ZSUw3MU9FcjVSRHpRWmpsKzhaU2dyMFdEZm51eXdFUU54cnZzN0NDTzVQODRzZXhjT0NQeHR3Sk5pQzRqS3c0Mk43dTd1NmhmTk1tcThtTXRWSmZGbTlpNEUxRVgvcDZYMHYzeVF6R0ZPRTJkOE1XQ1BhRFpGY2N4VjMxbVZ5OCtlakdSU0Q1REptUGRlcWF6TFlxZlBVbzBlSG9qZmhvWG1EbVFjUmRiZUhLUWFMRHlzS3dzMlpxbXZrbTFNZDNKUEVodmVYTmtjUXpaWE9seWVhU1VMWGZTUnJTRGJlWDNtMGVWN2hDV3BPUFRqaUllZHhXc3J2YzdTNHo4MDJrRDNBU0pGTFo3SUk4RXc1MFFDOGhFaExQRXB2U2hWMiszRHNQd1dpOVFVdW1vdjN6bWVNY2ZQUlZlZ2N5eHNacDBGcFFvWFFKZkdLTmV6T2FWazJTYkxySjRnMzBHL1RPbzh1N1lKRllUeGR6Nm10QzdFWDFEa3lXUHBJZEVMaFo0WllQWFBXZUQxMTFEVHNrQ0gxaWxycjRwb1RVSWcycFd2NHJIZkZNTzBoVlMva2xQcVlWVzRtaE9jRlowbnp4WVkwSDRaWkkwTGVCcTFvVmdPN0hmK21YTU1IUDRzOER2eW90RStkdzFYc2V1ZFI0YlNCaDlXSlZSait4MU9IY24xZzYvN1NEaklkOWZxaXpoemJnaXFWSjN3ZzlDUkpvakp2SjBGRC94OUFrUGdqd2k0S29mSkZxZ0YwSTBoTktFUXU3M040VHJqcnZmWXg1YlRTV0xFbC94SXpCcnE3Z2VaMmFxNTUya0xRUnRKWUtRT0llZEJXS3FrQlJMc2MwOVE5VVYxU3NYR1Nmdi9ndmdDUVBBc3BzRyt5L3NFSWt4R29jeEVzSXYxZUpEL0FiY2E4NlhPTm1QUUQ4ZEZWOS9hMlVQbWdNbzEzSk92K3ZQTUg4TEpNZmhUQ05FTzRFemRRRXd5VmZySU5BejBENDY0UDk1eGM3SEdXTHJYYmJ1MUNaVzY0dXhDdTRTZEdIZ0NyNytLRkhNbVlyMllZbXZVaXMxT2xZZzNpdWduWVRqUHozdUhTTUNYQTZYM285STVyRXhuK0Y3ZlhKalRnaklUWlFHNUh3T0wzTFdCeTI5dzJBVFB3VUFIRTlIQVZJdkZHOHFPTVBxcTM0djBvSTlRNlk4bHZRTmw0QjhYZ0NnTVNERC9seDB3Znh6UWhJckl2NEkraU9TOEMyNE1RL1QyMzBCaXlLNWU4UVVyN0NJY28rak5lQm44aWhQRC9SVU9DOWFOQy9UU1I0T1lEdWd6YlBrRVpWVGFPWHZYRUw5cHVaNHFxNy9ac0lQRW5mTkcxQlpzdUU5Z0N1ZEcybW9ZbDIrYkpscStibHVodWJGNWt4a1BRbVdySndHYjI5eWh1T3NURTlGSE4xWXlRWXdEMTNkc3BNbVN1VGYzd1JZdXd6QmowK0o5aVhaaE1nSGVPTWdhVEZOUzRNYzRXSm5oWWoydHBZekJlaHNka3NscG5jekc3OWRMeklJVHhJZG9IRU5kWVVqL3ZKZkF1bGNBS0ZFeWljUU9FRUNpZHdvNXpBZndGNEgrcVpRTURIVFFBQUFBQkpSVTVFcmtKZ2dnPT0iIGlkPSJhSiIgaGVpZ2h0PSIxMCIgd2lkdGg9IjEwIi8+PGltYWdlIHByZXNlcnZlQXNwZWN0UmF0aW89Im5vbmUiIHhsaW5rOmhyZWY9ImRhdGE6aW1hZ2UvcG5nO2Jhc2U2NCxpVkJPUncwS0dnb0FBQUFOU1VoRVVnQUFBRGtBQUFBNUNBWUFBQUNNR0lPRkFBQUFBWE5TUjBJQXJzNGM2UUFBQUVSbFdFbG1UVTBBS2dBQUFBZ0FBWWRwQUFRQUFBQUJBQUFBR2dBQUFBQUFBNkFCQUFNQUFBQUJBQUVBQUtBQ0FBUUFBQUFCQUFBQU9hQURBQVFBQUFBQkFBQUFPUUFBQUFDM2tZcWdBQUFHREVsRVFWUm9CZTFaYld3VVJSaWVkL2RLdjBRSUNqRUVLTUVtcEJTMUJVWGFheFBnMmw3UWVIQ05KTVJJTk1Id2h3U0R2elJSaWFpSm12akxIMzRyR0g5b1NIcFFOS2FsQnpXOW8waUFDbHBCTE5XQURVcEUwSVpDMjl0OWZXYTVhNVpqZDYvMGRrdkJtNlRkbVhtZm1YbWVlZWY3aE1pRlhBL2tlaURYQTdrZXlQVkFyZ2YrMXoxQW8xU3YrQnZDQVlXNWtra3BHbVVaejJERStvQk8xQlZ2alVUUmlKNnBvWXdpL2N0RDg1VThkWWNndWk5VFplTnVaLzVCSDliV3hQYzEvK3pVdHFQSXFtQndtazhVSDBVRnMyUWxMTGhmQ1ByYnFjTHhzZkUwRWpRNTJkYnZDWEhwZ2M2V0ZsdGVQaWRTS2hkdkZpUm1NUUsrNjJNdGtXM0FzMU9aY2JKUlRURDhOSmg4VEVTekRKNUN2R1RYdG1KbmtQbEVIRFRzSkNJUStDbmlFMEdncE1RR0gvQ1NpUkdlTW1FUkhFVUNQMTJXWVYzOGFGSDJwbWVaZUJrODdRZzVpc1FZTmVZc2hzUkU4ZUExT2xLOFVqeXZNWm9TamlKTnVGczZtaE41Uzd2UFJONXhDekhoUmgzMTE0Y2VKRVY5QXdXcWlHbFlFSCtMSFdocnJIWG40ZlJLL1BXTno1RENtN0UrbGhMem41ajRFWTBHWG5IYTg5THJHRTNhMWVGYUhXaDhTQ0ZmQnpicUFQNktzTGRPZ1lDUUlHVS9qb1gxWmtJMURhdGZWQlR4SVhBTHNMcE53aG8zR3d2SkpoOFhmN2NrRUw3TGpNMDI3cXBJeGNkdlFWaEJPaWtwUWlIeEFmS045bXByVjA2SGNPdk5tMFJwbnNwYjB1dklKdTJxU0lpcHNpZERjNWV1YUt5UWRpNHFXR3g0endhc0NGcHRZeHBUdHFzaWNSNDY1OFJDVmJWN3BEMHhUSTQ0N0hzR3pxbXVHN0c1S2hJTHgyZE9qZXNrTGtyN2diMU5YUUkzQ0Z0c0VtZHJ2MEdEcXlJdjlKM2NDbTkrYWNWQkh2TFZnY1R4cEkxWkU0L2oySC9DQ29zTytNa3lmNHlacm00aDNkM2RRNks3ZXkzdW9GdEVIbFVvQXN1Tm9BUVdveDA0SUI3cWlIMTlJY1V6Rm8yY1JIeWhQN0NxV3FqS0hNSFVqKzFrQlZiYlo3SDF0S1p3Ym54ZEZaa2lsTHpFR2hmWm1vYndheUFPNS9CSEtidnBxOFdqdXpxU2FhVTIyUGdxZ0ltRU5yemRoTWs2NnVwd1RXZXp0QzVjQms4K2g4djJxUXQ5djJ4THQ1dlQvbURqSnFUdjF3Vy8yN24zcXo2ekxkdTRKNTZVcE9Tcmdvb1RES0w1T29zTnhsQzJZZXNQaHBaalhMK0p6ZVczUzBQaVpSdlltTE05RVdsczlxS3dCYXptdzR2UDcyK043TFZqS0FVcTdHdUdmVWhuYmMzMzdjM0dDbXlISDB1KzY4TzFLcmg2aVNncU9BZ3lsWmlIcitNR0R3OVpoNXI2OEVaaVh3dmo0S3BUSWhUZjAzeklHcGxkcnV1ZTlMSHlNRWpQd0FLeVB0WWErY1NPWG5sNU9jNnI0bEVjNEgrbGhMWW1GbTArWm9mTk50OTFUM2EwTnIwemxCQnpuQVJLMG5LTy90RjdKZnd2WDFyVTRhRkEyWmJybnBTVkhveEd6c3R2cHREVDg4Mmc2QkdEbVhEWjJsMzNaTGFFdkNpZkUrbEZyOTZNT3AwOXlmSm5BUmw0NXRYdlJQdWY1RFhDMDVxZm8wZ2NxZzhZeFVpc3JRMnNXbUJkeGMzSk5maUFsMng5aEtjTkZaeW03SU04ZSthcG9ndlY1T05hZEJrZWphSkE1cFdUeEdXY1FidXZER3BmSEc3Zi9aZDlDMWN0aTVjOWRuZEJ2cm9XTHdMbHVLb1Zac0xqM29vM0lMd2prY1R5NExBbUtnKzBSVkxYdU91S080cVVhSDlkdUpFVSt2eHFoZGVWZDg1Z3ZxZ3pQUlhmMHlTUGJaWUJMM1loaFhnNzNESFZFdUNRS1R1ZWRYNHkzaFpwY29EaHpER0tVTDNpa1JMS3k5K0FId3NxQVMvS1ZBU1ZTbThzQW5FZmVuMUlUL0N5L2RGSVozcTU2a0M0U3ZGUk8vQ1Q1QlVMOWlQQVk4UmtEQU5Nb291MHhQdXh0dDJuTTZGSEpUSlRKVloyT1dkWVZmYmhtWEdHdkYwTWFQMFZoOXZhL2tsaEY5ZlZUU2xVN3p3S0FpVTQ0NTRqVFYvZUVkM2w2b3RBcWkzSGhTY0ZHc3RYRXRhWjEwRUFuRU56QzlYSjhrbHlKTWgwVWlCR0hLL3pTcUJzRUZjKzc4S1ozaE9uU3U0dHV3UER0aHF2QStXejU1WDFuZWs5ZmtTK25DdEVMOGlXSWZUdCtKNmQ3M25Id21PUmt2ajBxY1h0dnNLcEs3Rnd6Y1NObzI3T3ZBWEg4WllqWDg3ejRPTkRsOCtmZnVMczJiTzZseUk5bTVObTBsWEJVS2txMUNNUWx2cWRIenNGOTJ0Q1c5VFowdHhqeG5vUjkyeE9tc2thUW5UZWFNNFRTSStIUU5tbXAzUFNMT3AwNzRsakphVmxjNUZYZ2I5dHVHOXVOZHR2cDdoUzNSQmVDRUhqTW9KdXA0N0xhY24xUUs0SGNqMHc4WHJnUDRFcTlPaC8wUW51QUFBQUFFbEZUa1N1UW1DQyIgaWQ9ImFDIiBoZWlnaHQ9IjEwIiB3aWR0aD0iMTAiLz48aW1hZ2UgcHJlc2VydmVBc3BlY3RSYXRpbz0ibm9uZSIgeGxpbms6aHJlZj0iZGF0YTppbWFnZS9wbmc7YmFzZTY0LGlWQk9SdzBLR2dvQUFBQU5TVWhFVWdBQUFKb0FBQUNPQ0FZQUFBREp1QkdhQUFBQUFYTlNSMElBcnM0YzZRQUFBRVJsV0VsbVRVMEFLZ0FBQUFnQUFZZHBBQVFBQUFBQkFBQUFHZ0FBQUFBQUE2QUJBQU1BQUFBQkFBRUFBS0FDQUFRQUFBQUJBQUFBbXFBREFBUUFBQUFCQUFBQWpnQUFBQURTdy93eUFBQVNsMGxFUVZSNEFlMWQzWkxjTm5vbFFMSzdaeVJac2hSNTE0bDJNNldLYjZ6S2Mrd1R6UHUwbjhlWGZnSGY1Y3FWS3lVWFRybFU4U2JlV21XOWttWTAvVU1TeURrQTBjUHU2WjRtSVUvWE5QbWhacG9rZ0EvQWQzRHdBUVJCTUVuaW5Jb1RFNmtlSUtCamRJZ1NlblYrbnNka0pqTEhqOENyVitkWmpCWlJSUHZqNWFWWXRCaTBleUN6V01UVmZSVFJmdXdCWUtMQ1lSR0lJdHBoaXlpNTlRRUJJVm9mYXZFSWRCQ2lIVUVsOWFHSVFyUSsxT0lSNkNCRU80Sks2a01SaFdoOXFNVWowQ0dLYUY4ZGdXSlN4RHRDSUxMeW80Z204MmgzVkluSGtHeGs1VWNSN1Jqd2tETGVMd1NFYVBlclBucGJHaUZhYjZ2MmZpa1dSYlRJOGVEOTBseEtjMUFFb29nV09SNDhxR0tTMmYxQ0lJcG9ZdEh1VnlVZVEybWlpQ1lXN1JpcTluNlZNWXBvOTBzRktjMHhJQ0JFTzRaYTZrRVpoV2c5cU1SalVFR0lkZ3kxZEovS0dIa25HRVcweUx6dUUxeFNsbGdFSXU4RW80Z1dtVmVzYWlMWEF3U2lpQ1lXclFjMUg2dENaT1ZIRVMyMmpDTFhBd1FpdTdNb29rWG0xUU9VUllYa2tCWXRNaStwcFFFakVHWFJCb3lYcUI2SmdCQXRFcmpCaWtXT200Um9nMlhNWVJXUElsb2txUStybWVSMnJ4Q0lJdHE5MGtBS2MxZ0VJdThFbzRnV21kZGhBWkhjN2dhQnlPNHNpbWlSZWQyTjRwTHFVU0FRUmJTajBFd0tlVGNJUkhablFyUzdxUTVKZFFNQklkb0dJSEs1QjRISWNWTU0wZFNMMlV3MlM5NVRIeEs4amtBTTBkWlRrS3RoSVhESU1kcGlzUkNMTml4NlhXdDdvSzZUQkJPU1hjTXVaeTBSNk54MVRxZlRaTGxjQ3RsYUF0eTdhSWZxT3FkQXJuajJUSWpXT3diZHJVS2RMZHI1NjllcUVvdDJ0N1hTdzlRN0U2MkhHSWhLWFJBNDBNMkFLMUpaRk5KMWRxa2NpWnVJUlJNU0hBU0Jya1JUYjkrK1ZVL0tVaXphUWFxblA1bDBKWnJUL0cvOTBWODBPUkFDSFlrMmRjVjZkcURDU1RiOVFhQWowYnppWXRINlE0RE9taHhtd25iYXVWd2kwRE1FRGpLOWdjZFA0Z1NCR0FTNmRKMHFxWWxtNUs0ekJ1dEJ5M1FobWcxSWZSNU81RGc4QkE0eFJ1UEtqWXVMQzVsREd4NjlyalUrd0JpdFFUQ3hhZGZJeTFrYkJMcDBuUmlpdlc2UXJVM3lFa2NROEFoMEl0cjV1UmVxS25rRUpRVHFoa0Fub2pIcCtYd3VWcTBieGhJYkNIUW1tcUFtQ01RZ0lFU0xRVTFrT2lNUVFiU3ZFeG1qZGNaNThBS2RpYlpZWEtyazhlQnhFd0E2SXRDWmFFemZWSlhjRUhRRWV1alJ1eEROcmE0ZE9tQ2lmeHdDWFlqbWNpaGZ5QVl2Y1ZBUFc2b3owUWhYOVhmcE9vZE5tKzdhdHlYYWFreDJ4ancrNjU2UlNBd2JnYlpFQTBwKzVjWi95VTVDdzJaTXBQWWRpT1p6K0FNT2N0Y1ppZmFBeGRvVDdieTVjdVBSZ0NFVDFXTVFhRTAwTHR6Z0EzVnVXV1dNM0F6RWdOMExtVU9zc08wRlVLTEVweUZ3Z0JXMktPRFhTWUVOWGs3bHljQ25WZFlBcFZ0M25jUm1zZmgzTjgwaFhlY0FtZktKS3JjbFd2MzQ2U3VzM0pEeDJTZGlQa2p4dGtUejRMaUI0UFBFbnBqVkJPNGdVUk9sT3lQUWlXZ2xQbVJSUHNFbWZGZWQ4eEdCZ1NQUWttaFRCOU1aZi84UEU3YVRpVmcwaDRqOHRFV2dEZEVVZDBMZ2k4TnZrT3FUSnlYbTBhVHJiQXV3eFBNSXRDRWFubko2OXlXZWM4cVdWVFVZQXoyVVpkd3lzVlpFNDVidkFkZkgyT0RGaWtVTGNNaXhKUUpaeTNqaGZVN0Y2UTFqcGV0c2k1dkU4d2kwc21nQkxENFZ3Q2d0RVlzV0VKRmpXd1E2RVkySjhsVzdrNU8yeVV1ODNpRndGcWRSSzZKeHkvZkY0byt3WnI5M3VkZ3I2VHJqNE82QjFKczRIZG9RYlhValVGVllJdlFRWTdUUmVPVVhsNjFJSFMwQ1ozRWxiMEcwcVV2NUJkNStLc3RDeVlzcGNVQVBYV292MFRoWlMvZUdQLytBZjd5WVl1V3VrMmlJNjREQVBxSzVMcEpQQmM2UUtEL053L2NGUmpLUDFnRmlpVW9FOWhFdGJNU050V2orcVFBZlAxbHJaWXdtL09tRXdGNmluZGN2cGZCZEFUNFZPSzFPMUd5VUM5RTZ3U3lSOXhMdFcyQVVkbmtNaXg3SFl0R0VPUjBSMkV1MGtGNTRLc0JsM0xKNkk2QXl3T09iT0ozM0VvMnYyZm5KV3Y5VWdIZWNNa2FMQTN2SVVudUp4cWNDQktpcW5ycjNPYzJFUkpNeDJwQkpFNlA3UHFJNWtuR3JLazdXY2c1dGdydk9rY3lqeFdEZEM1bnl5d1U1MGZsbWNCL1Ixc0J4UzRUTVJNMk02U1MzbG9oY0hEVUMzSHNseHQxR0dNZGFUdFp5WlMxWGJYQ3lsbU8wVVNZUDFXUEE3b1BNejVGSzNFWTBKRGxkSmZ2NHNYOVhRQ1pzVjVBTTh1UXVMRnJTbkt3bHFweXNwVVV6SnQxRDBFSFdnU2g5Q3dKN0NkT2NySFZ6YUNPak1wbXd2UVZTQ2RxR3dGNmlVWWlUdFZYMTBJM1p4bmFzYkNZV2JSdVk0cmNiZ2R1STV2YmJDSk8xVElKYkllQ09VeVpzZCtQWis1QTd1aGtBYnRodll6Vlo2K2JRTEI5QjNVYlEzb005WkFWLys1dUJlc1hqQys2M3daVzFEeXJGeVZyTE1Wb3FSQnNxMlg2T05HbTdMSk5xekd4NFREOWd6dzFNMXZJNUo5N3IzQ1UzVlB4Rjd6MElaTGVGYzdKMk5CcXA2b2xSdXNSa2JhRndVNURwekZnaDJtM0FTZGdOQkhZU0pzeWhVWUlMSGgrWVU3YzhpTTg1clhTZE40QWNqRWZrSUcwbjBRaGMySVdienpqNTd5ZHJqY2E5d0sxeWd3RjlnSXIrRGl1dFk5VGVTeGkvNEpIak03N1A2WmNJcGFsMG5URmdEMW5tVnFLRk9UUk8xbklPeldLeTFxU1Z4dDRidDhvTkdWRFJmVHNDdXdqak4wZGVtME9idU5mcytKelRXSGt5c0IxTzhkMkZ3QTZpVFYzODhqLzlwbXVjUStPcURXTnd4NG1wRFd1cWRGZUM0aThJYkVOZ0I5SHFxR2RKNGpaSHhxV2ZySjJqNjhTZEFOeTJ4TVJ2Q0FqOFk1U1Myd2pqSm12RGdzZndkcnEvNDh4VmlxNFRrN2JiNUtJS0lFTEhoc0Qvb3NEVHpuZWVXd2t6YmVoZU51YlFjT2VwT1ljR25tMlZhNGpKYVc4UmlMTm9XNThNdk1hZXRmVTZORGQveHFrTk94NnJVWUxubmtXR2pyTVNvdldXU1BzVW8wWDdibCtrRytHM0VtWnREczE4VkdidVNKYUtSYnVCbzNqc1FXQW4wY0lPajI0T0RZK2R1T0F4ektIWlZEWjUyWU9yQkc4Z3NJMW85UWZHdUE2dDN1RVJYMHJCSXlnOGV2SnphSEl6c0lIaWdDNURMOWRWNVcxRWMybUVsNGI1ak5OTmJjQ3FaWm5ScWNJY0doWnpkTTFJNGc4YmdiMkVNWlZmdFdGSGZtVXRud3BBcVBQdDdiQmg3by8yZWY3UE5rYWJUY0xndTA5VDlkMTMzNlZZaDVhOU5TYlhaVG1hRk5tazBNbUpyWkxQTXAwOE00bDVZaXZ6REJtT0VxM1cwNmpncS9CeGxjUzQ4cERKeHUzMzUzL3BDUUVVVmljVlF2aUlnZmV3cWFIZnRWTklnMWRNanM3SjRIRnJvakUrNUxGT0h3SHdxK09FTkZ6KzNvKy9NTUVvdW51WTRmTXdQbFdWK0R4V01lczhWOWM0OFdWdCtseWZJN0YxM2ErRC9CbmZGbk1LYmdZUWdIcWNXNWY5T2dZRStNMTY3WTZBU2ErNkQ0K29qNGs1cHExNVk0YnpwbjlGdnpvalZ4Nm1WRjhUVHpxREJCMnlGcStLVzNSYmFnbVBTd1Q4cW5SNm9jcDBVYVoyOXZSQitwZC8rOU9mRnRpaHNWa2NsOFJ0UHplbU56aTFFUVFNNXRBZVlSMWFZZVpxaEpwZktzN1ZMa3Rqa2l2Y2VacFU4WEdVWHNWM2NzcFhJdlJaRVFYeGJBVnZrOVVWaTNQd3c2b1Vtb0UwZUFYZVVVNGxGV1JZcEpMQ1RwNkpHeERDWGVCK2wzbkFEMGNBcFh4OHBYRXM0VmtUaGVFR0ZNMTVqYnp3aC9qNFpkcVVBYUlya2dVWkVoWU95YmdTck1McDZWd0lLUnR4cnVFckVuN3NvNzVHMU15ZHN2VElmTFB5WFozV1ladUVZWFhUMVkwaEJVQko2dGpoT0F2Y0ZVdWlGVnNWQUF3dXBOT29maCtPMklpVlFtc2k0TUJJbVVjTmlRdmxqNGFrTWFYR28yeWd5ZXBHNU12TTZuZEpsVjRxblMrektpdVd5NHR5dFExb3lMdkY4UnFwUnVRd2gvWTUvQXFNMFJpMFJJWG8wbFFteGRjNlZWcmhzZnJNV2lnS3haMG95TVNqVWxDSng5cGFaRFVaOHBTa1FFVjZsTmlNMEtnUlQ1TjhHZVI0aEs2bHhwSFdEdGVCQkV3UDV5b3BVUTN3enlpSTY1SW5FS2t5aXlYQU9LY0kvUEdmTzFJaExobGYwSS9oU0pYeWRYcnVxSkhmY2duL3NmTlBWR0ZaUkxveC9wZDR1ekFCNU9TR2NqcHFuQ003aEMyUTNuakVJK0l1NmVOcmVZRThDMk1Wdzd3c2QxOUNJaU42SUMyU3AzYWtQTk56L2p3Nk9uaS92SlpmZ2hpb1p2WWZiSElxWnhyQVBpVGk1T3NMbnhaak1BN2paajU5ZUpHdVNZRTg2amJuWmcrb0xKS0dPQUpnUXRUWXBEa2dXQmFGMXRrY2FseGRqY3Y1NTBsWmdCZmx5NWRmbXg5KytNRmp4ZlJhdXExRWE4cW1XSHhtVEFFTERtdVd3Y1FsZWdIclZLbFVnMUVFSnVTSlUxUWlyMGdJeExBRlV3ZHh2SGRkeVZDZGxhNWdueE1vWDhCNGpaQUlVTE1GQ1FmaThSejBSVklnRHVWUjJRcGtZWVU2UUdCWm1iRWVGUzd6YklsdzlLbHNEQXBoV0xLSlBFNWRtRjR1Ykg0S3Y1bE81dEFCSFpIelYzcnVqdFJWVCtnSEhlZmE1aWN3UHpNZmh4SHlPV1BVYmlYQmtybDZUMWdvOHNGOUgrdlV4L1BWREZxVFVHU3JzNEVhMVZndkd0UStvaldYVUFmbitKM2dadXNLUnpxR2NudXdaRWF5R0pWck1HTUNQNFB2TzdnNE0rUVBsZUVaU0RzQ3FSemhJV3N0cWduNWttaXV5QWd3c085TTI2Sk51aVBTZFJtVHY0aTNUTmtoNURaTmw2WW9NOHd4NU1XNG9vRWJMZlBMekl5ZU9rUFNRSUNwdEhjN2lZWXhtc1VZRFZic3lwNmtJek1yU3ByV0N1Mm9BSkRvbXNvS3JjcDE5Q1NZSXcrT3pOcFZOb2ltS2hCSzAxTFFZbUR5amZGZ0VKQ0NHMWNwVStCZDVLUW1DREFBRVZ3Y1I1eWFXRGxrTEFneVd0alJBZ1JBYWhpMk9HSnBlNEtIWWRwZUFWUU40dVF6NUE4OHRENEZZS205U0M0OWlkQlE5V2xxMGJiWkM5a0VMOXF3a2pUYkNseWFlc3RJNG9OdmFPSHZrZytRcDBYdjRxb2lmRy8reVpvWU44aFo4Nmd2RElZbHdiLzZUQ2VvWG5jTjJ3ZWtBMGw5REs2ZWVlUnRFcWFkVGxaeTVxUW1EaGlZWDJLRkRXVmhsMDVCVnhLWGNxY2pmakk2U3o3aW5GOVhJbm5keUpVTmdmSEhFNVV2RnNDQ3hyc3llWlZXNDNTT3p2dEJ1VnphOHVIRGVmWDI3UmNHMzVxd3IxNjlzdDkreXcxbnU3bXRSSnRNSnI0QzNvSCtNRkxMQjBzczJzQ0R6aVdlUUlGYWVwUWFXMktJVm8vSFBORkFFaElGbG9kRlVCcldodFlEWGFmQ0pnb2ExMHBOMEhRS3V3UlJUaEIzZ2U1SzY0WE5Gc3h2aG9wbnF3S3BzcEdsOWNubXNEb3dueXlEQm1IVHZDWVB3alNJa0h6QUVCOUhzcDNoYk8wa3pZZjB3cEhrTWJyZzk1a25rWUl1TEZlSmJ5VmtDWWdPcDlTdjdtak03NU04LzVzN3B6OHJnU1JqWS9zWnh6L1FhNHZqQnRKTmI1U2x2cnhZZVJmRk04QkRtL2VYbFI5UCtLNnM2N09DTDhoditSbHhmT0daMzNOUTcvT2t3a2Q0UXpEZjIwanFiNHp6dHAvVFR2d0FuS1laU3pDTXd1TFUxVjBEdXBQNXFIVERmUXlPMWF4dVFjUnBobGtFZk9iWEVmQlIrdEFsendhUzVoUGZNTEVRTENreGo2VUxzMWpvaWlSNy8vNkw2dkhqdjVybnoxODJNSEtpclgrMkVvM1N2NHpIOWdGTVFKN24xVVh4S3kxWm1XQmg3VmlEY2t2WWxCd2plNWhja294V1JZSDZISjgyU2VRc0ZGcUtzMEIyYkdud1ZWYTYrTVdjbzR4QUlBc2xBWXgrREFKZHdScWg2L3dBSytTc0ljbHo2UlNrQlhvR0V2TGp0STQ0L01ER081TG1yYk9ZTEhlS0FVWWdDYStmNC8rWFg4YjJ4Vm45VVE1Y1Y0dVRHckIvU3NiamgrNjhxdjRISWRlT2pXMjUvTmZrZDhrUEhGM3RkZlc0ZGt1ODYzVERpdVVia2I3eVB1VU1UZVZMZjM2RzQyTGhMWTd6cWNkM2dkeWUxSjdRUmZFRnFvRkU1cmU2ZUFTSm5kVm1rMEhqNGlhS3hJcWZLWC9DTllaWndpbURzdlNkZFZnaWNkMHd4ekNFSCszVHA4YlFrcEZrTDErK05MUm1tSldvc1VNQ0hSd3lYWE51ZXVQNzc3L1hmLzd6U1lvTTBzdkxTWXFKMm55ZWZzeEdSYzVwRDQydWdJMGpTZmladXhrdEViczhXQmtjQWJnbjNrTmN6MUxYaFgzVVY2NXd0RUxPQXRFYXZTY3BhR1hlNFpqYVlIbFNXSjRzOHhZblRiM0ZBZG1kUEMxTUtPMFlEWUhuS0tmbDIvVEpqeGlRai85N0ZSNnNjb2ovNk5HalZWandDOGZuejUrdmhiRmo0TjY5VGNmZVlqcDlaWnQzNWMzd2NNNTQ1NXZDSWJCeERGdTJOcnpXVHJsTWE4MmpjWEdUMUYrdlFoY0xqUHRxUEp3bnp0MEMxck1rd1o5ei9HWkVmZW9PZ2J3Qlh4cVpETGdTVDJBRFMvWWMzZVVyWUxSR3NqWE1tdWx0TzEvTEVCRWMwUWptVHovOXBHRXlkU0RieVVtZUZzVkNGNU9sNXF0MzNuVERtS2N6UjZ4QUlyWWtXcDVnaFFLSjJJTGUxU1FLQkdLQlNLS2dJTHVwZjRHU2I5Nmd6V1cwT2orQ1BDUVVnZnlQcEVtZVRlSnNrZ1VDaVcrQlBKdVNKZTdBcS9xa0UxQmU3amYvYmVBLzllVmFsWlBYTEhZNCtta25rbmhiUTNDUkd6KzdpSHdiZ1J2aVNjRDN0eUFaMDIwbzZySmhkNWg4ODgwM2lsYU5oUXBrbTg4ZmFhNjI1VUpJcmxGTDNDam03NnN4RU15ZXpWdzNSa3QxYllrQ2lkaEttQU5iQ28rN3JFOVFrSEhvTmdsMFRSNkdUdXQvZDk2R09HM2lNTEg3NGxnL0xQTm1QYlVwMzBxR1pKMVNBajg0YmZ5L2htRzVhYVZKNU1SYk1KNXRZclo1elRoNzNhb3dkY3h3VGN1V1hKUHR2UzVmdkhCYmpESmVNTFU4SjVIV3VqRjZ3Z1VpQlN2VWlrQVVuSzUrZUhLYlVyZUZVVmJjT2dLc1cyTFdQSzdIMkgzMXlWZ0hZald6Y0g0Z21qdXlHNlVaRGlaM2MzeXdqVWliVmdpM3czVkJwOGlILzdjU3FFMDQ0NGc3SWdTMkVZM0ZiL2g3d2pXM1NHanF4NjZNMTdTQURiZXJCZXp5YjRqS2FSOFJhQkJxcTNyN3dwdENRcUltR25JdUNBZ0Nnb0FnMEZNRS9oK0hDSmJhdXBwb2N3QUFBQUJKUlU1RXJrSmdnZz09IiBpZD0iYkIiIGhlaWdodD0iMTAiIHdpZHRoPSIxMCIvPjxpbWFnZSBwcmVzZXJ2ZUFzcGVjdFJhdGlvPSJub25lIiB4bGluazpocmVmPSJkYXRhOmltYWdlL3BuZztiYXNlNjQsaVZCT1J3MEtHZ29BQUFBTlNVaEVVZ0FBQUpvQUFBQ09DQVlBQUFESnVCR2FBQUFBQVhOU1IwSUFyczRjNlFBQUFFUmxXRWxtVFUwQUtnQUFBQWdBQVlkcEFBUUFBQUFCQUFBQUdnQUFBQUFBQTZBQkFBTUFBQUFCQUFFQUFLQUNBQVFBQUFBQkFBQUFtcUFEQUFRQUFBQUJBQUFBamdBQUFBRFN3L3d5QUFBUkRVbEVRVlI0QWUyZHkyNGN4eFdHcS9vMnZKcXlaQ1lSTEJpRWdXek1SUlpCOW5vSnZzKzhqNVorQWI5QWxyWVhCZ3dpTUJJbmltSlN2TTFNZDFmbC82dTZoOE1SSlhLT3djWk05Mm1ZMDkzVmRUbm5QMStkcWg1S2xqR3l3OHFhYWFzZUtKQklmQkExT2o0NXlTV0RhWnZOVitENCtDU1RlQ0VDN2F2TFM4MW9FclY3MEdZNmxjVmVCTnBQUFJCTVhlaFdBUkZvM1pxb28vVkJBUVd0RDFIY0FCOFV0QTBJVWg5TVZORDZFTVVOOEVGQjI0QWc5Y0ZFQmEwUFVkd0FIMFNnL1hrREhGTVRuMGdCWWZCRm9PbjNhRThVeEUzb1ZoaDhFV2lib0lmYXVGNEtLR2pyRlkvZVdxT2c5VGEwNitXWUNEVGhmbkM5UEZkck9sVkFCSnB3UDlpcFl6clllaWtnQWswejJub0ZjUk9zRVlHbUdXMFRRcnRlTm9wQVd5OFgxSnBOVUVCQjI0UW85Y0JHQmEwSFFkd0VGeFMwVFlqU090a29mQk1VZ1NZY2E1M2tVbHVrQ2dqZkJFV2dDY2VTdXFidGVxQ0FDRFROYUQySXZOUUZZZkJGb0VsdDFIWTlVRUM0bklsQUU0N1ZBNVhWQmRObFJoT09wVkVhc0FLaWpEWmd2ZFIxb1FJS21sQzR3VFlUN3BzVXRNRVMwNjNqSXRDRVVIZnJtWTYyVmdxSVFGc3JEOVNZYmhVUXZnbUtRQk9PMWEwZ090clRLQ0JjemtTZ0NjZDZHc2UxMTQxUVFBVGFSbmltUmo2TkFzTGxURUY3bW5Cb3Iwc0tLR2hMZ3VqdEF3b0k5MDBpMElUWjh3RVA5SEdmRlJDQkpvUzZ6em9PeHpkaGxoR0JOaHhWMWRNUEZCQm1HUVh0QXlXMTRDa1VFSUVteko1UFliLzIyYlVDd3VDTFFPdmFOeDF2OHhWUTBEWS9ocDE2VVAxNEkvcm5tVVNnQ2ZlRG5RcWlnNjJYQWlMUTFzc0Z0V1lURkZEUU5pRktQYkJSUWV0QkVMdDBJY3UydldROEJVMmltclpaV1FFUmFNS3ZVbFkyVGh2MFJ3RVJhUHJXMlI4QVZ2WkVtR1ZFb0sxc25EYm9qd0xDTEtPZzlRZUJ0ZlpFUVZ2cjhQVEhPQVd0UDdIc3hoUGRvM1dqOCtCSDBUM2E0QkZZYXdGMDZWenI4UFRIT0FXdFA3RmNhMDhVdExVT1QzK01VOUQ2RTh1MTlrUkJXK3Z3OU1jNEVXakNyMUw2bzVwNnNySUNJdENFWDZXc2JKdzI2SThDSXRBMG8vVUhnSzQ4RVlHbUdhMnI4UFJuSEJGby9YRmZQZWxLQVFXdEs2VUhQbzZDTm5BQXVuSmZRZXRLNllHUG82QU5ISUN1M0ZmUXVsSjY0T09JUU5QdjBRWk1qVEQ0SXREMGU3UUJneVlNdmdpMEFjdXNyZ3NWVU5DRXdtbXoxUlJRMEZiVFMyc0xGUkNCSnR3UENrM1VabjFRUUFTYWNEL1lCNzNVQjZFQ0l0QTBvd25WSG5BekVXaWEwUVpNak5CMUVXakNzYlRaZ0JWUTBBWWMvQzVkVjlDNlZIdkFZeWxvQXc2K3lIWGhtNkFJTk9GWUlyKzAwWm9wSUh3VEZJRW1IR3ZORkZOenVsUkFCSnBtdEM1RDFJK3hSS0QxdzNYMW9rc0ZSS0RwMHRsbGlQb3hsZ2cwWFRyN0VYeVpGN0kwSXdKTlpxQzJHcklDQ3RxUW95L3d2YXBlZGZjUHd3cnMweVlEVjBDVTBXU3I5TUNWN29uNytzOG85aVNRYSsrRzhFMVFsTkdFWTYyOWhtcmdJeFFRTG1jaTBJUmpQY0lMcmJMdUNsVFZqYjRNckh1UWhteWZLS01OV1REMVhhYUFnaWJUYmJpdGptU3VpMERUbHdHWjJFTnVKUUpOWHdhR2pJek1keEZvc3FHMFZTOFVPSlY1SVFOTlU1cE03UUczRW9IMjZwWHN1NVFCNjl3ZjE0OWtyb2hBa3cybHJZYXNnSUkyNU9oMzZMc0VOSHZhb1lFNjFKb3BJQXkrQkRSenRHYStxem5ycjRBSXRPbDBLdnJGNnZyTG9SWStsUUlpMEo3S0dPMjN2d3FJUUp2TnZ0Q00xbDhtUHUzWjBhY2ZmK3lwQkRSQTlzK1A5YWZsZlZmZ1ZPYmdxcUNGVEZhK2VLRVpUYWIzNXJjNmtybXdLbWhtUEI0Yjg2dHNNRzNWQXdWT1pUNElRUHZlMXM5bm10RmtlbTkrcXlPWkN5dURkbklpRzBoYkRWdUJsVUY3Ky9hdHJjcFNNOXBRdVRtVk9iNGlhT01BV0YxVkNwcE03ODF2ZFNSellSWFFBTmM0alBKQ05wYTI2b01DcHpJbnNsV2JYVnhjMk4rTTBZeTJxbkFEcjc5S1JqTW5KeWNCc00vcWZRVnQ0T0NzNnY1S29MSHp5ZVJyaFd4VmxiVytlZlRTaVM5cTdYZmZmV2VuMDIyYjUyZm1tNy84N2RpNzZvWHgrUXVmMUo4Wjd3dnJiZWFOeWF4SkVtTjk0bzBIbEdtUU9YNUd4ZXNQaEs5Unk2THA3ZUZ3K2RBc2NOYmNhVE52elFHc3YvTU1odUQrWXowNnovRjRzRWE0dHRZdjJod2VDajlxVHgzaWNXdEJNaStMVHh3TnZGdVcyTHYzcUFoUjc1VGRwMU1OM1cyako4ZmpQY2RJbTFqYzFiODIxbHBuSVFGYTFZbHpwVS9NbFRmSmJ6RDdMRW45RGN5YTFSTmZaWHYrWm5yK3k3L1oxNnJISGFNZmFKeThmdjA2T1FWSW83TE1zN1BacnJYcDU3V3RENzJyRDlJMEdkVzF5ZUZobGlTQXpDY0pCVTRSc0FmNnBYS28wN3JmaERlMGE4cDRRckdqZUcyMWowR0dxcTNJY1Z3MFdLamJQZ3ZkdUx1MlJUc1dySVg2N1VTWjk5VUU2NjY5allIQnVBVThQZC9PYis4UmROdWF6LzdTNUJiQU9DbFJPQWZwdHQzOFdUUmlvUTRuQnZxNHJZcG5CTGdkSmYwUTNyWVBuamtCb0xNMU5TaER1S3l2RWE5WlpkeGw3ckwvb3AvZkVOTnI3OU1adm1nb0R3NnE2dTkvLzNwcXpKdDJnTVhlUG5uOTJJd0c0NDNoaTREWjN6Y0dKaFE3VzdYbE4ycWxMVjJhbGg1a3dWOWtCdXRnQmE2QklkeUlvOU11bElSWkZxOVJiUTRnWmlXdW03bGU0NUtRaFlUVWxLRVg5QXBCR0NwMDFiVEZUSnozZ1Y3bkdjaUc1TkNPakNUYjFnSndMYWxNdWUyUW1CeXhSbU9hcVdPL05JVkJZeWJnV0JVZ3lPWmpMa3JYWHNjenRHajhic3R4MzhEQUU0d0l6M21LRUZHNXRnekxRalFkOVdLN3ByUFlKc0RSZElicjBBZEViNXF3YzR6VjZJWk9HOFZpZWFnVTIzcURTV0FaRThUQmhzWEhJVjVVWUlieFo2V3BacmxKWitnT1AvbXNlcFdYaUh4bHpERlVlVE1mN3JFWHJVOFAxdWZ2T0wvOTlsdnpFbi9vOGUwelp5OW1oZGt1SzFlYVpHYWNtd0F4WkY2TGJHWlNCK2hvZnFRQ1hZZmczRVkvT05jRW4wR09zbUE2b1dvS0hXcGttb3puR3FHbWhYRFBVNHdValZBcEFrdVRDUVFMTWtDR1NqanFBQWtHenlJc2VOeU1SRE40emFqd0dRV3ZJRGRtZEFPV3lka0Juc1hvek9sd29lK01Hd0pNcERnT3g3cnZDSERNVVdHTkNvTmlOMEVyQ0FGUGFUekRhdHp6T3N5RjhBd3J2cTNoTTZpR21XRWZ3cWU4WWlIT3pGaHhvUTgxMkNjMXdwSGl1a0xqbEhNeThNUjJhTFlRQzB5MFVFWVYwUzJjWmNXYSt4em5IRU5nWjhodTA2eElxd20weTJqNEY4WWNzYVBmY1RRbVB0ekQrUHZ2N1YvYmF1K01PVGk0OWhPb250bjZ1azRZdUx4SWJKVUJraFNrSlNZak52RUltUWZ4WVZCWndvL29adHhJeGN4VW1aUXh6TEUzQWw4VkFvN1Foak1ySTN0Q2lqeGtGbHZqT2g0NE05c1lYMEp0OW1PRExTVlI4cVpFdXlLZURYZVFwVVU5eEMvWXdiMEoxM2pVU2FOZHZHZlFiRm1pdERCVE13dDFSN0JqeXVBaWJxTm1ZS3dmNFpwbkhxTUNIelA4Rk5aTVp4R0V3dWV3SE5IS0FRZWUrUXk3U2h4dFJxdDlESHJtTVN2eUNBV3N0WDRHQXRDVTBGWU9rT0xJY0kwbGpLNDJmZUNjNFJudVBNSGlRZWlDdXN4TitPME4yV1Fad09lWnJvYi9jSjJGWjNGOFRqVEUwQ1VwZ3Vhck1rbVNLVVNZcGFsMzZlZGIzcHpsM2h5R0Vkb1Bqb2Z1SG44OEdyVEZMdE0vWnY3cUhVemZ6aXRmemFiTVprQ2l4SVRMc0VYQUZFbHNDV2lZSUVwODJBcEJKaWdvQ1RDRWE1Unpub2ZnTTZCRm5IYzFOaTVZaWZuSUFRZ2tFV1IybEpXRm4xa0NnSFlBSTBEQmE5WkpTaVQzZ0JhVVRGQXY5U1BVbkJVQVo0STYyd0FxbWNKZ2NveTBpUE9FRzBtQzFSeTd1TDgyMThoYUtCdFJ4OUlVRTlUZGhxSTNpU2RIUE5vR3ZPZjF2THdsRHVmY0E2Z2RQTCt1amR1Q2w4aHFybWdnUXdIRGpiMjMzZUhac1J4Z0p0aVB1eEdjd0QwNjlTZ3ZBamhZQ1FDc0x5WjRqak9CUWRzQXE2OU1rYk1NY0tJKzhjYU5yVDFFSlV4SUE1aG82SXh5OG9mUWxyQWJjdUpabHVITXljZ0p5cWxaMXJYRDBvQzBQYlBKVnBsbHBVc3VRUnU2K09XWGJZKy96MnZHWXhOK1VMVFNzVEpvb3hGQytLL1NwQm1DTU9QVWRVaFU0SitaSk9mYkMrWUdsZ3I2VndHb2hNa1l6N0JqUTdhQmp6T29BaDR0b01HZkFmRWpkRk5iVEdkY2h5QWpkMWk3aFowQm5zTjVRc2FJMm55S3hBRGdwdkUrQ1gwMjExQjFNdHBGTFlDQ1JaenAzZ0dpZ3U5b01BUjdMQlE0YzdXRmV3UTF3VlFOU3dLeVRZcHI4NTdKeUpraVlSL3hTTk5MK0lOZENRSmhzck8yMkx4SC9jL25kN2NYK0JMYnNCekxQWUtKbzN3V1oxcDlocks5VU9aY3UyeWgzaTVjUkRXSEpZRFZkeDJ4UXprM3VheTNpdzNHcGNjMW51K2tac3R0ODhVUUFMRitHa0QxSTJkcmw5Z1J5cmh4Q1JBV1NOMCtRaG5lZGhFaGxoUGFBR1NPN0lrKzJROTJKbmFVRkhBeFptN0VCU1hZREFPNUFvNWcxRG9wcmgwMjR0RGxTNXJYUWpiWEtSUSs0bU5sMEVqMmFJVFZJRDlEd3NHNmFYYXF4Rnpib3NwOGxTU0lJbk1OM2hQd2ljVndubkVzTWc0MzZjeEdzN0M4NWFpS21zZzBHWklONUFoN29BbGsyMDF1c0lUdG1DcVplUHdIQ1FrSXNNRzdkcG9EREhOcHJnZ2dEa0xEaUtaWHpKaXhEc3ZUbE4rMG5BVXdlUDg1bGorSEtjeGZuNTNoekJlYUxNT1NFSTYzK0R5RXJmOXI3dG1lenk3aVkvalJIdmRCeG1kdE9jQnRxc2EyWlVtWlFISTRuZ2VZZU9uUDR4OU1zRi9raHI4N3ZrQ3c4VktIZVVWWTl5RXM1aSt1ZWUrS3l0NDBBRHVjZ1QvbXpZNnRTK2dNS010dGdIWkpJSGNBNUtXOVF0YmNJbnlnRDhIQytRclRlbVFMQW9hOW55OWlaaVRFWlZpK1lUTTROYTdFOWpwMXVmTVZhS3ZxdXFxbmU1ay9nTG1qMFQvODRlRTMwR1JNamVqSFhDdGNQM2c4SHJRM3gzNy85VnMvbWZ6RGIyM0JuY3ZkR3BQSHdnMmtYeXhEUlpha1ZaWFFzWFozbGsybnlGTFdUN0NRYlhOQkJUV1RaTStuazBrRFQ0MnlVWURuQXZBd294R2Ntd0FPbCtORmNKQmh6RFBVdWZEbkdaYlo1ckJuZ0FhYlZTNVkvQXhMTU03Ty9XcnlQQS9acHloaS9YYWJNVVc1ZVduTTlKU3diYVBkVjhiOEdZMSsrdEpRVUdPK1FiQnhINDRmd2lkOG5vL0pnc2xrTW9lR3p4YnZRNE9sai9nM3gySlc0RmpWajhZZUhSbHppbm92bWJWNEZBVVdDU3o4NlFYc1gvZ1RNdStmVy84TTk1Z2M3cG0xNTZoNlVGM2ZRamtCb0loa0JESUhuN1daQU1oZDlGdVgrTWJKTWNzQlNOeTdyUzI3dzNXSUVHSnhhV0hrU3NHWEhTeFZEb3NVMzhPcTJlNnMzcnNwNjNmdm43c1grTVkwMkJnL0ZxOFhpajkrT1JmcjQxWENFOWF6L0JYVXp6Ly9uSnlmL3lFNU9QaFBlbm01bFc1dlg0R2JJblc3dGQwcVI1aC90d2VYcGF2a09oaEZnTnBsS21TbWhZekRiSERPTElPWGpKaUpick5ObWpMTC9BblF2QXY5dE5Cd2xMQ01OOE14MHphWGMxaU0rY0VzQThJNisvdjc4N3B0RzU0UER3L3ZMVitzODN1dStVZXNsdHVIcjR3V0NoZUJuWDcxbFRVL1lRNEF6Qjl2NHYvdmhHLzliWFZDeVd0K3gxVFhNVnRXVlFRVTJjamllNi93UEdSSTNMTXVsK1Vhc1hMMURpQTdSM2JjQzhzOVk4UEpudVc1eTI4S2Q3TlQxanMzTi9YNzU4L3IzYmR2SGJSeDM3MSs3YkIyVXFPVmRab2JUU00rY2NSNitPM0FDZDQrRjJHRE1NbDBieTloMnAvdlQ1QjVNQ3VETVFRb1pkYkIwUzVWRVI3a0lHWVdITXZ3bkxMdUhYRDJVTy8rekxJTXpjZGdPVDQrOW1QMGErWWZ2QWczT0ljajJOTGVQT0c1MFh5TUlab2ZuSGoxUGJURjZjN3hLVGdqbE4rRSt0UHBaV2hiNFgvQWM0U1M5dS9lTHNMSUNWdlhNMHNZNjJjUlBNWXRkTkI4dFBIYTI1dlU3L2IzWFFzWmRYM3o1ZzF5WVRoVzF1ck9JRTBuOTUzYWVwYTd3VnZZemhQK2t5MHZYMDV0NjlCaTR4WWdacDVUUERqQ1Q1dDVScVA3NFhrc09IRGF0enZUVzE3Q2JNTW9qejVXRnV6UlBUK3VZcXZyeDJ0amNrYy94NkVPNUEvSFExQzJtZkpPaG1RMlJIcDgxV1RIWlJqWk1XUDJMOFNMRXozdXl3Nlp6UWdadFdyMWFzL0Jsc2Q4UE96b2JTOXRYVHVHdDNTVXMrMCtoOWhrZWNsYUJPaStyUE1HZThDbEROT08vSkJUZkU3Ykhxclg5cmZwNXpZT3kzNHNsWThEbjR0QUxtZkgrMkxYeG8zeFlwekNTakRtVVBOSkxOSjV5YmhsMnorNFg2dy9CKzZEV2sxQitFVkZBSWdGNDZiMFFTQkVqclNkNnprb3NCaW5aVW1hWitNUUVxNU95eFY0SDJOM0o0dXhXQnliZXdkaGo1ODRKRzNZbmRqSVQ5aWlqK1FLckJwSGpaOWNhMjNabFFML0IzKzRxWDlKVitndkFBQUFBRWxGVGtTdVFtQ0MiIGlkPSJiTSIgaGVpZ2h0PSIxMCIgd2lkdGg9IjEwIi8+PGltYWdlIHByZXNlcnZlQXNwZWN0UmF0aW89Im5vbmUiIHhsaW5rOmhyZWY9ImRhdGE6aW1hZ2UvcG5nO2Jhc2U2NCxpVkJPUncwS0dnb0FBQUFOU1VoRVVnQUFBSm9BQUFDT0NBWUFBQURKdUJHYUFBQUFBWE5TUjBJQXJzNGM2UUFBQUVSbFdFbG1UVTBBS2dBQUFBZ0FBWWRwQUFRQUFBQUJBQUFBR2dBQUFBQUFBNkFCQUFNQUFBQUJBQUVBQUtBQ0FBUUFBQUFCQUFBQW1xQURBQVFBQUFBQkFBQUFqZ0FBQUFEU3cvd3lBQUFSVDBsRVFWUjRBZTJkM1hMY3hwWEh1eHZBekpDVW9vOHN0NXlZY2ZFaXFkcXlxbEo1QkYxdFZSNUE3elB2bzVmUUcreVZjK01iVnV5MVU4dFlrY1NQNFF5QTd2My91NEhoa0tiSndaRTVtUUVPWkJKQWY1Ly8rZlhwQmtnUGpaRWRWbFpOYS9WQUFTZXhRVlRwMVpzM2hhUXpyYlA3Q3J4NjlTYVhXQ0VDN2F2emM0MW9FclY3VUdjK2wvbGVCTnEzUFJCTVRkaXNBaUxRTmp0RTdhMFBDaWhvZmZEaUR0aWdvTzJBay9vd1JBV3REMTdjQVJzVXRCMXdVaCtHcUtEMXdZczdZSU1JdEQvdGdHRTZ4RWRTUU9oOEVXajZIdTJSbkxnTHpRcWRMd0p0Ri9UUU1XNlhBZ3JhZHZtanQ2TlIwSHJyMnUweVRBU2FjRCs0WFpicmFEYXFnQWcwNFg1d280WnBaOXVsZ0FnMGpXamI1Y1JkR0kwSU5JMW91K0RhN1JxakNMVHRNa0ZIc3dzS0tHaTc0S1VlakZGQjY0RVRkOEVFQlcwWHZMUk5ZeFErQ1lwQUUvYTFUWExwV0tRS0NKOEVSYUFKKzVLYXB2VjZvSUFJTkkxb1BmQzgxQVNoODBXZ1NjZW85WHFnZ0hBNUU0RW03S3NIS3FzSlpwTVJUZGlYZW1uQUNvZ2kyb0QxVXRPRkNpaG9RdUVHVzAyNGIxTFFCa3ZNWmcwWGdTYUVlck9XYVc5YnBZQUl0SzJ5UUFleldRV0VUNElpMElSOWJWWVE3ZTF4RkJBdVp5TFFoSDA5anVIYTZrNG9JQUp0Snl6VFFUNk9Bc0xsVEVGN0hIZG9xN2NVVU5CdUNhSzNEeWdnM0RlSlFCTkd6d2NzME93K0t5QUNUUWgxbjNVY2ptM0NLQ01DYlRpcXFxVS9VMEFZWlJTMG55bXBDWStoZ0FnMFlmUjhqUEZybXh0V29EcWFpZjZZaVFpMERkdW0zVzJSQXZuMzN3ZkpjQlEwaVdvRHJsTWRIVzB1b2duM2d3TjJUNDlNUDVIWm9oRk5wcHZXNnFpQWd0WlJNQzB1VTBCQmsrbW10VG9xb0tCMUZHend4WTlsQ29oQTAvZG9NckY3VWV0RVpvVUlOSDNxbEluZGkxckhNaXRFb01tNjBscTlVT0JFWm9XQ0p0Tk5hM1ZVUUVIcktOamdpeC9MRkZEUVpMb050OWFKekhRRlRhYmJjR3NkeTB4WDBHUzZEYlpXTlo5djdvZnFnMVZaRFc4VjZBeWJSclJXT2owL3FnSUsycVBLMjcvRy95QTBTVUVUQ2pmVWF0OTlKN05jUVpQcE50eGF3cEFtQWsxL3FENWN6cVNXaTBEVEg2cEw1UjV1UFJGb0d0R0dDNHh3NVRRaTBEU2lEUmMwcWVVaTBLU2RhYjNkVjBDZk9uZmZoenRod1IrRWE2ZEd0SjF3Ny9ZTVVpUGE5dmlpM3lQUmlOWnYvMjZOZGZxVGdhMXhoUTdrRGdWRWV6UjlqM2FIa2dOSjJ1akRnTDVIR3doVnY2S1pvb2oySy9hdlRlMllBb3ZGb3ZNdlBkSkVCVzNISEwycncxWFFkdFZ6T3padUVXajZNTEJqWHQ2QzRZcEEwNGVCTGZEY3YyMEl2eGYxTEFKTkk1cEk2NTVVK2tGa2h3ZzBqV2dpclFkZFNRVGFvQlVidlBGY09xZWRYM0VvYUlNSFJ5TEF0SE1sQmEyelpFT3Z3RDNhdExNSUNscG55WVpkNGNkby9yU3pDQ0xROUttenM4NjlxZkM3YU1tMHN6MGkwUFNwczdQT1BhdXdJZEEwb3ZXTW13N21sR1dKSjg0TmdkWmhYRnEwbHdwc0NEUmRPbnRKejNwR2ZmR0ZtVTQzQkpvdW5ldjVwSytsR3N3NnZiUVZQUXowVlVDMWF3MEYvckhjb1hYNkE3RUsyaHJhYXBIUFYwQkIrM3dOdFlVMUZCQ0JwZzhEYXlpclJUNWZnVC8rOWEvanoyOUZXOWhGQmY3ODUvOCt3TGc3QjZqT0ZTaU9Qblh1SWlLLzRwalQ2NDNIZityVXBmTlhkTm91TmpYdFBtaFJST3ZlamRib2l3SjF2YkJ2M256VEtaclJkZ1d0THdSc3lJNHNHNFczYjE5MWVvZW1vRzNJT1gzcWhoSE5tQTFGTkgwWTZCTTYzVzE1ODZaN0hkSFMrYTArRFhSWHVpODFEbzE1KzdhN01TTFE5UDFHZDZGN1UrUFVtSTFGTktNUnJUZmNiTW9RVVVUN2syN1NOdVdmM3ZRakFtMDJtM1YrajlJYnhkUVFrUUlpMEVROWFhVkJLeUFDN1dUUWtxbnhFZ1ZFb0VrNjBqckRWa0JCRzdiL04yYTlncll4cWZ2U0VWNmtDUTRGVFNEYWtLdFUxWFBSR3djRmJjalViTkIyQ1dqMmVJTUQxSzc2b1lBRXRIRFNEOXZWQ3FFQ3A2ZW5uWmRQQ1dqQzRXbTF2aWh3ZUhpNGtWOTh0TCtienpzVDNSZVIxUTVqTktJcEJWdXJnQzZkVyt1YXJSOVlwMVZOUWR0NmYvWmpnQXBhUC95NE1TdnE1MVduU05ZT1RFRnJsZER6b3lxZ29EMnF2TnA0cTBEZVhuUTVqOGZqOEY5LytjdHhac2Y3dGpSNUNIN3NuZG56TnVBSFllR0Y5V1lmTDFweUcyeUcvMFhaQnVOd2NYM1UxNWZOVlcweUZsczVQSzdYbVFVc1o5RHBTdFYwNmNPTk5NVDdsZnZiTGZzUTIwRk41dkE2czlmajRYaFh4NC9iNWxodmxIVUlONWFiMUx0RG1zZVllRzZQTkFva1hxYzVlMzNkRkhQaE92K3VFZFFtb0ZJYWYydFBRRnJTMk5uYitpZmJvQUYwdERnRlp5b1hRbFVaVStiR3p1dVFmVEptOFQ2NC9DZnpJZi9CN0xYalhmOHNBZzNOVjFsWi90TzVKMFV3NVFpQ2pXc3oyaCtIdWl4ZDVVMXdjK2lUMjh4bnVMWUFFZG8wQnh4NDI4MTBiNXR2VFIwdjJ6STF5a2NoR20vN0dnSXlvVldMa0xXVjJ5Nml5SzEvbW9JTmpNa0J5YUUxWmthcWtzcmllNlNUZDBUQVFIVWlGdStidHE4N2JoTlNXNytFSWt1aGw5UkJVd1UxMkZWcTJjRzl6VUVZZUJtL2hTeWxOODIzZWN5UFNhdHRaamRCemlMWTE2SllUaHUwbWxJdzdkbkl5aEZZbm40Sk5TYWNxMTF0S2doUlpabGQxTTVmMlZCOWhDdFBxNG43OE9MQWc3L3VoeFEwTTU5L1ZZN0hNL1JZV3ovWmQ2UDVKVDRZUEN4d3V3aTVYV0RhK05yWUxETVEwcmF6dG81ODVBaUNhYWd0Qk1uaEVCRDJRWVlsUklpSktFbGhvVlRnUlp6ZmFObTQxSWFOa2FldDBDS0hTa2hpWGhYZGlWYWFIb05OSUJNNDF5Z2UyK2FBMkV5RU9JMG5sYXdSbWxOZnJjSVl2Nm53Yi9YQXpJOXB6R3VQNk1CNDA3QzBBZ1FNVFoxRUFLZ1BPb2R3YlYzTTBIZ043OGR6REVPSmVSUkJiaHNsY1dZb1luMmd1NnlQQXVBcnRZWnBmQ09kNndlendCTFNjUlV4eEhBczRnRmlXcDBGUkRSTEF4Zm9jZ0haRnhCODhjemE4a2VzWnNlcDJVN2ZyMVZadjlyMW9KczZ6bDBoVnJzQXF1cTZOblBuTVIwZElsb0lHVll3bEtjSDJWV09oWUt6aHZmcG9NTUpBWjJkL0k3N2FEc2dRYkVjMTJnMFJob1VhbkRCZXB4aURocGhHZ2xNTUFEbFZBYTkyaHl5TVFLMmxMRTB4cG1pSnFVR0xrMmJzUnd0STlvWUNDNlhudksyaW0wMlhFYndlVjJ4YlppVmw1bjFlUlVqaFY4QkVPYXp4WGlnQVZqSVZ2a05wd1k2N0R0d3orbkRUaUZGakZTVnFSRk9ZcmtxV0dvUWNwWkRaN0U4N0kyTnhlK3hIRzZ0eVpFT1BBZ2NmSkhTMlFneVU3dTh0dWpKNDEvc2wxbXBIMmFoY1V3K2oyMVE1U3ZNVVFRTVUvdTVjL204S0tyNnd3ZnNpQVRMSmx1V2dNWjY2VVBTL2c1NVhCYjhaV1hLQXNHMURBdVlkQUhKeXNnSWNMczJFUEdOam9GOXJYTlRRelNWT2xCdVFvTC9LdDdEaDRRQURTWFBJN3ExVU1BanRvYnpPWHBHdWhLcTRwemFSV3doR0kzZnNERkJQbnV5Z2FjUjJpalJLUHNhWVhoY0hHTzdoTnVsRmQ2V0pWSkhabzZKekx3eHhqeG5DMDMvS2NZQ2RyS0tralVkSERIRENjY3kyc0NkbzFEQWtRdWs0WXhOUnZCcHFXeDFnY1hJOXlZdk9DOWhJbUtIYWE1alkraW04aW5TTVIvVEtZS0JiOWhUUUNIMkJ3bWpzSEgrb2d4VE9KOW9NQUNOd0tOZ0NQeGpGTXhGRzJneVFzNmRUZ005L1FObHdCbldVRmRVVUhTQi9mWWMwRitlbVFvcXl3OEphQmduRG53dVFyYS9qeG53RXZhWEFYczI3MzJOdVYzTUlGZUpwVDRycXd5Z2NlYWtnd0MwenJKMmhIYks2RHhDc29Bb2lQVXgzN29VUVpqT210anZCVVRJMEFLd3NDVjJ0cmczRFBXb1YzQVpMRU8rZ040NEZram5SMUlDRTNvdTJCR2ZUV2FtV0JBa0Z3cUV6Q3RBeHJYQjRjdzZCNERzMGx4aTR1Qit6Q0dYWm9SSnhMd3djd0dNMEtOckg5aVhXclBQS3RoRGVQS1FsdG9KdGhMZVR5ei9oOFVKeWx6eVRQaTRRSTJaaDg3dERQWEdXQkt4aVlSK0kweWgyUDBJNjFwTUcrRWUzQ0tkK1ZleERIVWV4Y2pIaHcrZ3dpVUZ3YnNBdU1FdUlFT1JNMHJDQ09aWGhMU0VSdGdZd0Mxa2tyNUJHQWhsbVdOL1ZtRU9PSUEybXNPMzg4SWRWSGI4eWRmZmZ4bk1FYlpNMDJuNldsTVJDV2lXUDczSEQxWkRVUlRoWCtZc3ZNQ1NlVmFOT0I4cWgrMkdxMHFvNWpBQktqZXlSWnhZQ2JJRUVzZkdXR2RMS0FEakNBNUxSME1CRjN5TjlFbkFSaEJwRGhzL0NNQi94UVI1YzRDeWgyZWhPYTZSaHZ3WnRKdUV2WEExQmlTWGw2YkFsQVNaQVU4cWlET0VERHVSN0VtNG1GemlHdHZkTEF0eFhzZDBLTTluS2tZZmR4RExwdktJSFRGQ2ZERFpPQUhIOVB1UEY4aitWeXlDNVI1K2ZMNHNYdGNKRnVLR0NXbUwzNkJQd29EN0N0QjRsQ2RFVHlmY2YreEZzUHdlakQ3SEZ4ZTd5U1RtRTA0MlNwQlJIT0YyWW5OL2dmZ2NaNGNaTVExUkw0eEdFY0lJcG9mY2tMN3loSllSRnZVaGZlMjU1SGpVWlhwdXF4Z0lNS2xzaGRIbTNLK1VWVkhYVHdHZGN4NCtMY0o0L0FRYU5hQ3hvVFVQQ1doMGhwMU1KckFGdzM3di9HSms2MUVvQ1JraVA2TUtBcTdMY09ld28weXhIZytoTWVvUUlMdkEwb1J4TTBvdFFKV0RtUVRJemhOSVYxaXM5bER2cXNDVHRrUFVqSkVHYXN5NGh4aWpmVzh5UUhmaENBNlJ6c0lNVkdRWEFNS040bkxPOUN6anZnMmdJSi8zUGsvN09NdnpQNUh3SC9qNlFCejVlL0NIZ1BwOUxJY2IxR0Y2dkVvbmZLZTl5NXM3THk3TUFnSXdDMzNpKzFrc3hiK2Z4SmgyZmJ5MGhEdFVYTXB3WUJ6Z0kxNjc2aElyT1BlbFQ2M0RlbDI3NWszOFZXVWQ0SndUU0VLTTQ4RHYyN3JFYzdsSGhNTWNDZWZlbGhISTh4aXhDQ1Zwak5GMVFzREg4QUlCUlJxaUdKZnowRVJKUEdhaXpUamI0UnRzbzYycngzakZBVGVWaTNwU1Y1WHpMMS82Y0hYMU4zTjQrUFVET25CME53OEphTXNXVGsrZisvMzkvL1dYZTN0MS9oSEJHT3MrbmdnODJTRjNCc2FaSnZwQVZnQlFCRHdyaHdQRTZpdjNKTGlycTVEaHhVZ0xFSHdMZU5LeU9XZlV5UkRWUGpFR0pIaXkvRHdhMklMekFzRDhoRno3SVFHRWpVN01UOEI4QVdmL2hIczZQRUdDRDhLSng0K0l4SVovRC9DRSs2czlsUGtxN1RtLy9kS2tHVXRIcytqZitNMXdVdkc4QUVWZGpxdXJxd1JTclBRMUF2VC80QjZmSjhHUGxQaldtS01qWTArYUJvK0xBdm40OWF2UmlQMWdNNThnOWI2QjBieTAxWHRlSTdvOXZ3MGx3SXRRUHJFbUFqbmhBNVM5d3RjQm9ETG1pVWxBMXJiRTIwNHUzUk4vYmkrdzkvT1Z4elhMWUdwajZVNHJCWGR2R1hoRVpOdkhScTFlMUUrd05UbzkvZEkvZTdhSVdtRFk3Ym14NFA0VE91aDhvTTdVdm43OXpwMmRuZG1mbmo3TmZ2UCtmUWJZc3IzTElpdjNGbTRQYjlQYThNL1dFeGpuNW9JRUFxQjRqeG5OQjRtVW55UHRMRjUvYktKT0JuanlCaHgreXFBeC96QmNxdHZSdHRHRkw0K1pkbktDYlc2RUpwVkl3TndFSmVVWTgvVHAwMlU3YlJyUDYveEMzOXRYK0xURGI3NnhVNXluVTM0Z0hlNm5xSXcwZzdRM1BEOXczUDU5THVxNFd1VWEwQVpPZnRnSndLeXFtVDAranZQRHRMOFRTQ2haTi8zVnVTOEFHTzlQVWZhNTVjOGxmNHU4cXFvc0l5U2plMTAvQVdnQUU5R1JNQzZYYk1MWVJNckxiQmJ5b3ZERmJPUm4rMlc5UDV2Vm56NjlyQThPVGowMDh1L2V2Y1l5T3FXR2Qrckk4ZHcrNGlCdkp6NXdIK3ZnRDAvWmQrL2VPWWptTGc0UDNXL1B6dHo1K1NUalh1VFpzOWF3MUJJaFdnV0lxYXNRRlFVanovWFNSSGhPbUlBajMwUEVnY2pqOGQrWFJyVVJKcFg0T1RpL0JNeXJDQWRyVFZlK2VCK1BaZnR0d2lPZVYzU2ZYbmVEeTd0QXZRL01tMUNleDNhcm8vVFpLTWRvbVZIeUpvd0VETkd4V2JiYkg1SS9pekRXaUtScDh0TmY0L005YkEzUFBJS0pQemhOa0ZIYnQyL2ZBclI0ckszWmlzRk4xWWRQVFoxcC9OQmNpc0FaK2ZIamY3b2pHTGhxbURHL1Iycy9MUGMyMytIdWp3MUVEd0cwR25YdUFvZlFjS2pUNVRkZThJZ3pMVjArL0gxdG9SNXU2ck5LVUZPTzVUNS9JRzhhTzVtbVU3eis1bFlFWFlWeU5WSzJRT0pGdStYU2ZkUjhVTThKV3JrZEhka3dWd3krbk0yLzN3dlBudjJmcHo4U1pOUjlxZkhhK3QxbkdQdjdwYU9wTjdXMG5iT3dCWTRWa2xGZjQrcm5TOWNxUUN5N0NoRS9TWEE2NVpJMFpWWnpUSEZlR3RZbTNuVmUyK2k3S3U5UTJrTStXK1pUUjBwNSsxTzBINEt4MVlJclIrdXYxNjlmKzhZdnJjN3R1UzErNzNrNXFIdEwzWjJKdXV5TFRWd0RkM2RSZkJ3bEk5QzB6VjFlM0RmWSsvTGFodlQ4eXdyUU1hMkRicGRxL0Q1TjZUamR0V1F6TS9rTkJXN3V4enI3cHVtUTdZaVBybTEwSHFSNFpGcHhIUVc2K0U5OXQ0NmlXdWJmcDhEL0E4U2J0UUpuVVR3cEFBQUFBRWxGVGtTdVFtQ0MiIGlkPSJieSIgaGVpZ2h0PSIxMCIgd2lkdGg9IjEwIi8+PGltYWdlIHByZXNlcnZlQXNwZWN0UmF0aW89Im5vbmUiIHhsaW5rOmhyZWY9ImRhdGE6aW1hZ2UvcG5nO2Jhc2U2NCxpVkJPUncwS0dnb0FBQUFOU1VoRVVnQUFBSm9BQUFDT0NBWUFBQURKdUJHYUFBQUFBWE5TUjBJQXJzNGM2UUFBQUVSbFdFbG1UVTBBS2dBQUFBZ0FBWWRwQUFRQUFBQUJBQUFBR2dBQUFBQUFBNkFCQUFNQUFBQUJBQUVBQUtBQ0FBUUFBQUFCQUFBQW1xQURBQVFBQUFBQkFBQUFqZ0FBQUFEU3cvd3lBQUFWczBsRVFWUjRBZTFkMlpMY09IWUZ3Q1V6UzdWSTNhUHhqRVB1cUhCTVA0emtGNGQvb0gvQWovb05md1AvcHg3MUxkMStHRWVIb2kyN3U2M1JXa3N1SkFHZmMwRXlzMHExSkNGVnFUSUpSR1FTSkhFQjNJUERpNVdnVW1GT2g0bEZxUzFBd0lUb0VDVDA3UG56TENTeEtMUDVDRHg3OWp3TjBTS0lhTitkbkVTTEZvTDJGc2pNNTJGbEgwUzB2MjBCWUZHRnUwVWdpR2gzbThXWTJqWWdFSW0yRGFXNEFUcEVvbTFBSVcxREZpUFJ0cUVVTjBDSFNMUU5LS1J0eUdJazJqYVU0Z2JvRUVTMDd6ZEFzWmpGVzBJZ3NQQ0RpQmJIMFc2cEVEY2gyc0RDRHlMYUp1QVI4M2kvRUloRXUxL2xzYlc1aVVUYjJxSzlYNG9GRVMyd1BYaS9OSSs1dVZNRWdvZ1cyQjY4VThWaVl2Y0xnU0NpUll0MnZ3cHhFM0lUUkxSbzBUYWhhTzlYSG9PSWRyOVVpTG5aQkFRaTBUYWhsTFlnajVGb1cxQ0ltNkJDSk5vbWxOSjl5bU5nVHpDSWFJRnAzU2U0WWw1Q0VRanNDUVlSTFRDdFVOV2kzQllnRUVTMGFORzJvT1JEVlFncy9DQ2loZVl4eW0wQkFvSFZXUkRSQXRQYUFwU2pDdW91TFZwZ1dyR1VCb3hBa0VVYk1GNVI5VUFFSXRFQ2dSdXNXR0M3S1JKdHNJeTVXOFdEaUJaSTZydlZMS1oycnhBSUl0cTkwaUJtNW00UkNPd0pCaEV0TUsyN0JTU21kanNJQkZablFVUUxUT3QyRkkreGJnUUNRVVRiQ00xaUptOEhnY0RxTEJMdGRvb2p4bm9CZ1VpMEM0REUweHNRQ0d3M0JSSHR5WFFhTjB1K29Uemk3Zk1JaEJCTnZ6d2ZSendiRWdKMzJVWTdIQkt3VWRmekNOeGwxVG1mejJQVmVSNyt3WnhWVlZpekthVHFIQXlvVWRGUEVYaHdxUGpsbE42R0pvUm9lckg0USsrRVBzMXl2TEtKQ0V5UGp4T2xpdDdsSDBLMFRjUW41dmtMSWZCZ01UR3E2QjlaWDZMcG9paFUrVzFzby9XSGVqc2traVIxcWloY1gyMzZFcTF2L0RIOGxpSHdQbENmU0xSQTRJWXFacExqM3RhTVdQVW0ybzgvL3FqcnhhSjNZM0NvQlJQMTlnajBKbG9FYnRnSW1CUnR0QUFYaVJZQVdoVHBqMEJ2b2gwZDlVOGtTbXdQQXNsZFdiVG56NVdxeWpLMjBiYUhPM2VpU1crTGRpZTVpb25jV3dUUzkxbHNvOTNiMG9rWjZ6Kzg4ZnIxNjFodERwZzRTWkxmaFVYems2bDFWVVd5RFpac3Z3VnBIdHRvUWJBTldlaFBWTDYzVmV0RE5GaXhZc2dJUjkwL0E0RStSSE5jdVVGblk5VXBPQXp4TDh0R3ZhMFpjZXBETkdtWEhSOGY2MGZxMFJBeGpqcC9CZ0o5aU5ZbDg2N3pSYy9RRVBoVi9XK1F5cjJJeHBVYlRHVy9qcjNPSUxRSExOU0xhSnptbk0xbWNXaGp5SVRKNzJBY0RkT2NjRTlWdlJzdDJvQzVGcVI2TDR2V3BtRHJPbHExRm95aEhmODdUT0ZlUk9QMDAzeCtFa2tXaHZWV1NLVi91YVBoRGFKVlI0dTJGYVFKVXVKbGtGU3ZjVFJKb1hveTFmWjlyRHJENEI2dTFMcFZaMWRkSGhLcnZlRUNGalVQUTJCZG9pSDJRbkZXNEwrd3dZdTFPeDN4d3BLTlVrTkRZRzJpUFgvdUIydi9DUWk1MkVZYkdrOCtXOSswVHd6TllLMmUyRFJhdEQ3QXhiRDlPd1BFekRrYmlUWlE4cVIvbmR6NjZnMUErMVNWZUFQSzJuRWsya0NKcG01N3g4ZlZ3Vm83am9PMlErVlpxTjdyZGdZNkMxYlgzK2k2enRlVkM4MVhsTnN5QkhvUmhvTzFWVlhxOFNpMjBiYU1CN2V1empwRWd6VXJKQ09IK0sreEZxMnVzblhrUkNiK1JRU0l3SHFFS1pRTTFuSTM3b09EU3NkZVp5UlBYd1RXSXRwenJLeGRYZkRvYkt3Nit3STk5UEJyRWMyRDlGUXRzQUZmWGUvcExFdDd5QTBkNHFnL0VlaEJtSjh3aHZZdGlQWUd2N01lY2hIb2lNQjZSTk4rRE8wN0dlS3dkaGNEdHRHaVJmTDBRMkJ0eThTaGpicGU2SEs4TUZra1dqK1VZK2dicTg1dWFJTllWUTg1L2JTamJWS3ZUZENJOFpZaGNGdGZ0K011Q0Z5SDltY01iWEFYb1Iwc0ViTFdScUp0R1gvV1Z1ZTI1anF4MzBZMy9YUUFvdFYxYVJLYlJLS3RYVEl4SUJHNGtURFBzV2t0eDlBNHRFRUJPN2JhcGRHaUVZdEJ1dHVxT2xzdy9kQkdqZW96anhhdEJXV0l4OXVxT29ubGZNNmhqZDh3ejdtcjY3d3lzWTAyUklZMU90K1NSWk14TkNiQjVVSFcxbnFNNlNlWHhLcHp3RlFMVXYzR05ocGpiWmNIMVE5cW5kV1pnY1BIUWFPTENLeVB3SFZFazI5emRrTWJEeXZOUFRmd2xyckI2bzNyNU5aUFBZYmNQQVJ1bzQxV0ZQNFZPNkxCN1VUSDVjaFlUS2hqR0MwU2JmTW84bFZ6ZkMxaCtEbWVkbWlEMjRteWpVYUxsaVR1V3JtdnFsRk0vRjRpc0JaaCtPWlRYZjlkMTZNSzg1eUpRYzI1bHR5OTFEaG02dk1RQ094MVh2c0NjYnRxWTJlblJxL3pUSSsxMHd1TDRRMFRMZHJubGRZR1M5OUNHODFQUFlIQlhMVmhkMldPVTllbVNweUxGbTJEcWZKVnNuNVZGZGpOYno2WitqZWZ1Q2NhWGt3eFNacVlCRGJ0cStRMkp2cjFFUWlzT3E4aHpITDNvTG9iMnFqUVByUEd3cVI5ZlkxakRqWUpnU3NKczdwN0VGZHRQT0E2dEF5RHRiN1RlYVhjSmlrZjh4cUFRR0FiN2RyT1FMdDdFRjlJc1hhaDNjaHB0NEExYzdxcldnT3lHa1VHaU1DTmxza1BiZmgxYUZtTndWcU1iYmhZZFE2UUtvM0tYN3FOMWc1dHRJaHlIUm9IYXpuUDZXRFMydXZ4T0RBRUFxdk95eXdhU09SWDFmb1hVckJxb3huYVlJZVRuUUdNYmx3bU56REVvN3A5RUxpTU1OaG9yZWppNEFzcGZtZ2pONWhVNXp3blpxQ2lSZXNBR3BybkMxYWQ1MWR0b01jNUtVc3o0aGdhWHJOcnh0QmkxVGswZ24ybXZwZjJPdmtWdTdiSGVhQWU2UkxUVHpaWFdya3lzWFZpdElxOXpzL0VmWERpbHhKdEZRVnVVOFZWRzFaeGtGWm1PUTNtb2FKRld3VnBTUDR2MkJsUWJZK3pIZHJnTmxXWnhVZ3RWbTVnaFpCQkl5NFNiVWprK2dLNlh0WVpFQkoxUFU1WXN5clBEWWMycktrVG1YNktuWUV2QVAyd292aVVhRVVoQ0J6aW45dUk4ajBCdnBBaUsydTVoQnNrZzFDMGFJSlMvRnNYZ1l0RTB3VWsrWjRBZDNkc0o5TjkxWWtlSjZwT09tWGk4TWE2QU1kd0hvR0xSRk5GODkxMHZwbk95WFMrSjhEbFFkelloVlVuUG1laDQ4eEFwRTlmQkQ0aEdqOW5QWnY5czFTTmZqSWRQYzU4cEJNWnFjVW9HdWM1WFJLcnpyNUliMHY0d0FIYlQ0WTNmSS96bFU2U0hXeUtqSTJSSitoeHpwMnBNZitrYXV6VjRkZytDL3BLeTdaQVBXdzl2dER3Um1PcHZzZnliUzdkUm84VGUyMXdoMGRaOEdodDRwSllkUTZiYVdIYW42czZzVVdWeFBKRVBsenhzT3R4dW55R3FoTWRBV3lGd0JjR3dwS0tVa05HWUpVMG1PTzh2TWRaY3gwYTVwNmNkVnlMRnR0blEyWk1ZQnR0bFdoS05SOS9KWTd0OHUwYWUyMkFaT2gxNG4xT0dEV09vdzBaNThIci9pWGFhRzJQMDM5UG9OWmx1VEEydHpwM21jYkxBbGdlbEdCb0F6MU82UkFNSHZJSVFBOEV6bHMwQ003bkp5QVkxNkR0eXFkNFJwam5sSGM1OFhaNnU3a0xHbXJScXZVQU9RWTl2N1dvN0lXMk9zZHB4Mk5adm8zT3BveWZkZk9jSExlTkxpTFFBNEhXb3NGQ0ZaMll6SEh5aGVFSzczSG1tVTZ4WjIyaXdTNC96Nm5xcE83Q1JrOUVZQjBFdWdGYjlqaGZ2TUEyNzNtdTdVT3IzMVdZVEM4MUZqMHFiT3hpVFltZUFQcWNKS1pVbTAvLzVkLytRK3VrazJkaUxmMW83MW8vcjlPdDJzQ0w5eTdlNTdsVjZPTFNJeS9Db0dsNGhiTzR6bkQ0RE5yNU1EQy9GRUZtNmNGS1RhNXVPdS9hTkJpSE9JM05MRnYvRnpoMmVsN29RRWwrbS9oYnY5ZjFmS0pldDlXMWYxMU96d2RzenFqbnBUZmFSSGh6eFU5c3JOWllNY0hWRXFiQ3NEeUtXeTBRamZ4Z1gyYldWaCtTU2Y1aFVkWnpaUmJ6clBybDlhVnAzSEN4SXdwWDFUSnNzL3QyTThjNXgvUjVnb0Zia0V4aFBacEdlZEdxSVVkUTZaaVQ3YXZ4dDJDeFJPa24wRzNCclpaeUcwNWtVYmc4cnQ3bk9WYng0cjkyUGc3YzFTbitmTkhWT09CK0p5SWthODY2NnhLdkQ4K1lOSWpMZUd1U0NaZFJaR2hvUWgyY2Qwb2dOWXNjNDd5TG16S2hicWxubDBJWEZhZFppQTYyei9FWXlkT0p2N2Eyd0cwdjc4TjExOXNZY0JtWlJNUnRmaVhjcHdraGZxNWFwUmhEWVBoQXdsaGdpOGVQYitoaVRBRW5ycTZnUEV5TG1TdGR6M25VdXBwbVdYYWM2Zkw0L2J0OGNYQndWb01uVlp1RlBzZU9hQlRpOHUwa1NkREQ1SDYxVTh4eGd1d1ZURUZxTUdCclRJWDhnbXUwRU16NDRySVYzWUpYazROVmYwY0FVUmQzOEJqNVlQNEE3UnNQQ0FRbWFZV2hZWUJJc0IzQ0N1V1FObVcwVk9JTVIzOURPS0tvQVY0VFR3ME9wWWlEcEZRcEFLMXhEOXJxR2s4eEltVjYxSVZ4MUtuSU1RS2NvMVNZdlNZdFhNUjZLZmxmL3EzY1kzeU1WeHpDUVZZS2tvOWtkMUU4UGhDajhqNmlRNXBRQU9rek5KNWYxODRqTDFtNnZDK1NMQVdReGV2Zzd6VXhJaDZKay9lckppRmdJTmVvUXdvY2VPSnZwVGpDNXl3M2l3WFJkT2xLRUMzWGMyQTYxd3NRVGswWFo1TnNPanFaelY2OSt2ZnExYXVpdzlkSHV2NS9DMUczcXJiZG9vcldpbG5JblpIU0FDMnExS3FGVFMyMDRTcmJkbUxkazZLMU50eExXWkNHZm1MNldjQjBqWks2MWc2VFd5Q0JNRUFzRnA0cDRFc1NJQ2t4TXF6bVBLa2xYdURQak5MTVMxd29hSzBxaHhYbExGZVF5UU9JZkVHdUVnS2xKQVBKaHZ6NGh6ZHhaVjBLZ1VoNklSTEtyR0pjOHNSbmlCcjNxUzVpYVlrdjRaaDRpWjhQNHBsU05tbFNXWllsS2hzMUVqbDRWdHlDUWhRdlZaWm5FZ1ZyaFM0RTQyM0pnS0FhNXk3MTk1azJCOGhkWTl0Z2RTQkgwV1VWU2lVOTlsQzJpeGZ0SGVZSmVqQms2bEpkSlJXS05KVjBmWTV3QXdId1Roc2E0MG1ORGJCck5USUwxR0FMTjdVTFk5STUydXBsOWZ1a2ZISTRzVVdoRkgraGpoRFNTUWFxaWg4V2czKy8xdm1zZ2dsTHNlQVJ4cUNxVVhucUdjd0hEVzhDSTJkU2FpSE9RS0NTRTFaTFRRMUZWc2cxamJFUUJrTkxRQXFWbW10WW5ocFZJUklsWVZDNG1TOWM2SXNuMGVrTXNqVUlvM0xJSW41WXJRcm51T055WFRsSThEcWVmUnd4NzU4SUFSQ0crVURGamhUa3A4dkt3ZjY3TVg1NFBKRXU4c0w3T05jbHc4MVI4Q1J0Z3ZzV2wxT1hJeHhRbGdhZTFuTTVLalZSS3AvaURvODQwTFZIZUtVSmtjM2dHZU1NUjNIMHd5RnYvSkR1bUI0OFc4d0h0Qks4NVg1anVTUU9taHFLQ1dIQTJ2bGN1U3pyd2hJQWtXbitjaGlEQmZTaExFSlRRWWd5UEZpZjU4ck5sK0dUZEJrUHR1K1hlRktZRVl4bHVkSW9td0g2T3FzcWU2Wkt0MnZLTXJYVlFiVmJwK2xybE5oamtLeGdDc0FzekpGb21sUTlmdkZDcThNOVZmMkthaG9tNHRTT01WQ0wvVGFJUHdvR2lKZDF6VGtvam0wZ1NKTmVTektHZ2ZGRnViUGdVTkFRYU9RWUhCYWs4dlB4a0VZL3c1RmFETXRvdklVaFdmRlJGcElNMWtJamRkcHl4a0Y1bW4zVTZmQ1BYQVp3VUc4akhUUWhFUjVyTVJGK0FSSW15REdJaGZNNUN5Q3ZWQTRWOE56S05iUTdKTDJabmprMTNuWHFiSUZIaGdXRmN0bkZ2Vk5rQmc5RzNoa01FS3R6cS83dVl1TWhXM1lhLzQ1c3dkcVZ5UU5lUnFWMjBoUXV6aVI2QkxmQXVCR0MzK29kZFlhTFBoNGhRd3I2SUc5Q1FnbUlCbFZERXA3V296RmFFZDZWM2ZVcHdvLzBHQlhKREtWTGtqUEVDQVhXV2p5Smo4eWNvNG9DWnB6RVJxMVMyelA4N2FoeUZ3c1F5OW5NNXZ2N3hNczlmdnhZam93bjFKRm9xc0R2Qlg3OHNOaHI5RGdObUNEbUhKblJlUEVKZlJBTGk0NVpLTlNETmtWKy9aTWlSR0w3UUFnRFFzQ0xtaDhta1BCb0VJVzNTQWdTeWhPRzV4a3NsQWFaYUlncUZENHRIRW1nTVpxQ2ZpNEloYjFrS0Vlcmg2T0I5U0dSOEcveGpDdVRjajBKem1Cd0RNSWladFRrdVpyaG1wbk44SVNpSnQ3RnZlbkVKYm0zcU1hY3VXT2taMDRUbHo0YUl6OHdIM2pxelltL244elIyUkEwRUVpOVYyaXJJb3hTNy9CN2hCOVhzL0Q4STY3emZOVzE5NVI2S0plWDcvRy9WL1hacnNoeC9mdXFzMmMxTHRHRXdlM1RicU5GVk5QcVNGMHFsL25IbmRCNTNNT1ArU2ZSOXRRdUx5bjBFZVVlL1NRY1Y5dEFLYVVlNEZrRnNWc1NVcWJjV1JLNEkzUUc4d1VUbXFRTDdFV1dXWDJnNjkzRm9zYUFmYlcvdjE5Ly9QaXhKc21lUFh2bWpvNk9tRXl3RTJqYkh1ZHFMSHgrcHd2alJxcmlQa0tzT29Gbmd2b2VyVFhoRnNrRGhWQjFRVHY0UVJDUVFralhXS1VjNXlTUzd6Y1lNQmprRUd2Vmtva0VTcjFGV3FCNWdKblVCYytURWtSNkFDSmhJUnlKaEhyYW1MRWprVklRQ2IwVW5HTkNMT1BUMkJBSUJFaFBFUzZkQ0VHRU9PYTkrb0J3Sm1XUEZjMWlITjBKRlBzSWU5bzRuYndWdjRXWlFRK3J1ZDRXa1NjWmc0SjRJbkdSWkt2M1BCVWtHUDcrRVY5c2ZndElQallYL29UamIrMU5ITC9wU0tLYUlBNjdBcWkvcndUNUF4N1BMRk1Qc2RMNVRYT1p1Nk1iV2o0NFk1aWJkM2dJOWlRdUEzM3BTTzd6eEFZQlo1N1VCcVJlRWpwVEtWNDNNaWNqWUg2Q3NoclpzbnhvOS9mblFyTHhlQ3pXckNnazJzLzY2NTdoTmhZV2h2N2czR3d5UXpjQUNhTlkwMHJqNVU0b2hnRTFGRWo3Yk1JQzBTcVJhR3dma1hqd3d3d0xtVER5NW9rSDg3ZUF4WnFBSENWSUMrSk0wQ2Fid3h3bElBL0poUGw2aTdoQkpMU0RaeUFmdzA0dGlEUjJweUFTTjJFQWZDcUJOVEptaFBBbk9IOElvSS9kQnlFUlVuNVBpNVNocGlBcDNzcVJ4R0ZSNUNBbzlmc1Y1NGQvVnVybFM5Q3VJYVJDb1kxR0k5eC9pZ0w3aWNFNlI2Qzdrd3VlNWdWcnVjcHdxK2MrS0J0YmJRUGphU1A5UDJoMnpVR0s3LzA1RDMvRHJ6bXQvbFBwdzBQa0Q1ZGFkMGdQeVBaWTVPQ0hGVjY2VXd4SG9RbWIwTmJSK1lmQjJvOUxFaXNTM0g4d1RvS0ExQTR2SFlrZlJGYnZnUmtPV3YvUkhWUnYzSnZIcU5sZmY3U3daUHk1STFnemRWUmNpWVBFczhZZkU5VDRncDM1K2VlZnpadTl2ZVRCYTRWYXFRS2w1aU8wTFRQK1NvUEpBWG10Yy9sQldGL05zWW9yYVYzUUlXUmJDZVNDK2VNNUc5UnNUQnRZUlZhTGl3VDlQMXhqbThnWVdLVXBqNGs3UzZiK0dzamtpWVNqRUVtc2lCQXBBWWxTa0lqNkpBazdDTCtKOWNseit0SCtBRkZlNHBoT1lNMVljUGdiamY0VjkzNVNxMlRaMjl1VDhBelJ1cWI5MFo3ZXlaR3JtSmt1aitza3lKZUZyZ3ZubDk2ZmYwZ1kzbi9EcTVGc3lFeDhPTTNZeGZleWZlaUkyY2dSTCtJa0pEczZJbDR0WnUyeEUrM2pFYUpCUVAvd3d3OEdUM3E2di8rV3J6cGxKeHBHRzUxTE0xUDRLazltTXJ6WHlSNE5GMEdTVkJobndRWUpKTmlTVEFuSVJDSkpXNmtoVTVheGFYMmlNUEtITmg0c0U1NG9xZmFTRklRNkJvRlM5d2IxUXZJUElCT2VMbG9qS2tCcjFCTHBWMXFjbCtjQllaaXJTSFNSUEd4ak1EeGQwM3Z5SjBzUTIvT3ZjVndXK2llcEY5MlZ0dnJpc2ZWZjF1VHBCRlk4NnhLNnhZMTROVGgxdUNHNlZmOUs3T3Q1enhFTkdUSm9CQ1p2MzVvVU0xSHBORDFOeDJWdXlteUJSWS9MSGhMYmJ3dE9nTEs5Qkd2VldhWlQrQjhtTHB2NmZoc3RFOG5GNnUyOFZYcUxYcnUzVUNTVFdLU1hJTkpmSjI3MEMzcURzRVIwTFpFdVdxSVdFSVlSVU9paEsrVHZKa0J1dXM5STdwTzdob2k5c2lueGtFQUZ4ZVNQbmxWWDhPUWlQaGZQVndYVzlqZEVLMUI5L3FoWmZYNzQ4RWR6Y1BCL3ljbkpPSmxNVHRIUDNOWGxCT3ZTbXQ0UFkyYWJpUVJpaiswaW1YaWYxUnd0VTB1bTMwR212N1RWMnl2ZldCK05maEV6emZDWEVhbnQ0eFRMcDR0QjZhNVMvS3JyWGlyK1g0Y0FlWENyK0RWRVl4NVd5ZmJCd0dxWTA5TlR2TlA1alpZOTBuNnY1SWxnRmNlZTBVVXkwVEpKRlllWTBodkl0R3FScExGWlNQcjhvN3RLNGF1dWU2bjRmNjhSU0p1Q3hhQXRxaUVsYlJrTHk2WXdodUxtMzMxbitaMkIrUnlEZm85OVo3UHR1YjJTaG5mYll4TWQzYmZvQW9sMWVqSlZKTk1SZW5KY3Ric2tFOE1WNXdtekhKODVmMTJpakgvYmdvQllLU2l6UEJZRlhoMzRVUlpCWHRYYldhM3FWcTJUYjBRU21vSi9GNG5EYzZaejhUckRScmZsQ1B3L0J4MlV1R09aZ2VZQUFBQUFTVVZPUks1Q1lJST0iIGlkPSJiUiIgaGVpZ2h0PSIxMCIgd2lkdGg9IjEwIi8+PGltYWdlIHByZXNlcnZlQXNwZWN0UmF0aW89Im5vbmUiIHhsaW5rOmhyZWY9ImRhdGE6aW1hZ2UvcG5nO2Jhc2U2NCxpVkJPUncwS0dnb0FBQUFOU1VoRVVnQUFBSm9BQUFDT0NBWUFBQURKdUJHYUFBQUFBWE5TUjBJQXJzNGM2UUFBQUVSbFdFbG1UVTBBS2dBQUFBZ0FBWWRwQUFRQUFBQUJBQUFBR2dBQUFBQUFBNkFCQUFNQUFBQUJBQUVBQUtBQ0FBUUFBQUFCQUFBQW1xQURBQVFBQUFBQkFBQUFqZ0FBQUFEU3cvd3lBQUFSOWtsRVFWUjRBZTFkVzNMY09KWUYrTWlIWExMYzlxaTZhc2Jkb2VpWWlva294M3hNcjZBM29hL1pUTzVIbTZnZHpKZnJweVljaXVtcTdvbHgyMlhaa3ZMQkIvb2NrR0JTYVdVbWlMWTBtY21Ma0JJZ0hoY1hCNGNYSUFtQ1NvVTVIVlpNU2gwQUFsRklHNElLdlRvL1QwTXFrekw3ajhDclYrZEpTQ3VDaVBiNzYydXhhQ0ZvSDBDWitUeXM3NE9JOXRNQkFDWk5lRndFZ29qMnVDcEtiWWVBZ0JEdEVIcHhEOW9nUk51RFRqb0VGWVZvaDlDTGU5QUdJZG9lZE5JaHFDaEVPNFJlM0lNMkJCSHR1ejFvbUtqNFFBZ0VkbjRRMGVRKzJnTjE0ajZJRGV6OElLTHRBeDZpNDI0aElFVGJyZjQ0V0cyRWFBZmJ0YnZWc0NDaUJjNEhkNnZsb3MyakloQkV0TUQ1NEtNMlRDcmJMUVNDaUNZV2JiYzZjUiswQ1NLYVdMUjk2TnJkMGpHSWFMdlZCTkZtSHhBUW91MURMeDJBamtLMEErakVmV2lDRUcwZmVtbVhkQXk4RWd3aVdtQmR1d1NYNkJLS1FPQ1ZZQkRSQXVzS2JacVVPd0FFZ29nbUZ1MEFlajYwQ1lHZEgwUzBVQjJsM0FFZ0VEaWNCUkV0c0s0RFFGbWFvQjdUb2dYV0piM1VZd1NDTEZxUDhaS21CeUlnUkFzRXJyZkZBdWROUXJUZU11WnhHeDVFdEVCU1AyN0xwTGFkUWlDSWFEdlZBbEhtY1JFSXZCSU1JbHBnWFk4TGlOVDJNQWdFRG1kQlJBdXM2MkVhTGxMM0FvRWdvdTFGeTBUSmgwRWdjRGdMSVpwc0svb3dYWGpRVXJzU3paSXNuMDZGYkFkTml3Mk5DNXczZFNXYTFlRGIrVnlJdHFFdkpPbHpCTG9RelpKck1wbm94V0loUlBzY3kzN0VQTTRjYmFKZnYzNnRaOGZIWFFqYWp3N29TeXNEaDg1T0h5YzRQMyt0Mzd4NUU4MlRSSWpXRjJKOW9YYjZFb1pEcFg3NzlxMmV6V2I2cS9uWXQ5d1hVbFBFN0FvQytjdXdDOEhPaExrNVBZMnk4Ynh6dVYwQlN2VDRCeEc0REN2dlRaano4M1A5NmRNbm5lT0tzeWdLdVJnSXczdi9TNTJGTmFIVEhJM0Q1bTh4aEY2VlI5NEVEVk5MU3Uwc0FwZGhtZ1VSeG9oRkMwTzd4NlU2RVcwKy83M09za3cvNlRGZzB2UXdCTHlKeGl0T1ZsRVV6M1ZaeWh3dERPNytsdkltV244aGtwWi9DUVI4aVZaZFpkYVBIOHg0TEZlZFh3TDlIc253SmRvS0pEY3J4M0xZRndTU1pHeEMydHFOYVBZNTExdWxia09xa2pKOVJzQ1BhSk5KQzZOVHBZNWFoeElVQkR3UUNDQWFwSXBGODRCV3NyUVI2RVMwUEovcVBNKzBXTFEyaFAwS1AreERkVGQwbnZVTFZHbnRQUWhjM2hQbkVlVm4wVHdFU1paK0lQQ1FWNTI0WnpaWm92aFBTcFhsU082akxSR1JrQWNDUGhiTnlNanBnYVJrMllpQUQ5RzBJeG9sRlhrdTFtd2pwSko0SHdJK1JHdktYVjY2b056ZmNFaUk3NGVBRDlIc0l3ZXVydjMyMitwOVRwbWorWUVydVpZSStCQ3R5ZjFuaHQ0MWh4TG9JUUs4bHhyU2JCK2lOWE8wMzZHR0Z5OUNxcEV5aDRMQVE5N2V1SU5Sam9zQlU1WkJyTDRqU0E3MkVvR0h0R2lLYjZmdkpTcWk5TTRnNEROMDdveXlvc2orSXRDSmFOemM1VmUwZFdSazZOemZMdjhITlQ4TEsrOU5OTDdUeVNxZXlxdDJZVWdmU3FuTHNJWjRFNjBTLzgvV2s5dTFZV0QzdVZSSG92M0ZZaVZYblQybXpGbFkyenNTalpVOEM2dEpTaDBHQXBkaHplaEVOTDZsWGhTNUhvZlZKYVVPQVlHenNFWjBJcHFyd3BpaDNGZHpZUFROdnd4cnNEZlJ1TzlHVThXb0NVbEFFUEJDd0p0b2xDYjdibmhoS3BudVFjQ0xhRzZERjFlK2xHZWREb3IrK1dlMnljdlJ6Uk1CRDZKTk9ndjFyRnV5N1NFQytYK0hmV1BDZzJoMzBTaWV5SlpWZHhIcDJSSFhpZ1U0YjZMWmw0ZWY0ZVZoT0NQUE9nT2c3bmNSRDZKTkxFSm5aL0QrWm9QeUl3aDBSbUFiMFdEQkpsYm9KWC94VHFjNFFTQUVnVzFFVSs1VnV6Tkk1NnQySlZadkRPU3FNd1RyZ3lnVE9FVlRpVS9yK1FiVVlEQm9yajduUG9Va2p5RFFRbUNyUld2bGxhQWdvT3liY0FFNGRDSWFYNERpemRxQk1ZMTFDNmhUaXZRUWdhMUVjM00wWXNNM29JN1ZWMHFHemg0eXBXNXk2Qnh0SzlINDZVVFc0VDRHeSs5QURlUStXbStaNW5qUUZZQ3RSS05BOTc3QVV2aHdHWlNRSU9DQmdCZlJuSnlpT0xiV3pjZ2N6VUVpdmljQ25ZaEdtZmJ6UEdMUVBPR1ZiQTRCYjZKbDJZdnFTaE5mSEpObFFnNCs4WDBSOENUYTk1RDN2MWo0aUgwM3J1WGxZVjl3RHpoZjU5dGJYa1Niei8rckZueGxzWk01MmdGVGFHdlQrRzd2Wkd1dTFReGJpT1lXUFg1bmwzRXJkYUxLa1ZpMFZSRDdkUHhYOVpmbStYZVhkbThqbW1vdjQ2NiswM21rQmlidGJEcTdLQ1Y1ZHhlQmI2SGFwSDBYMzFQVkxVUnJTOEhIeHA2Mmp5VXNDUGdqNEVVMGZwWWx6NS9oNWVGQ2o4cHJQWk1uQS80SUgxak81dTVEeDNaNUVjM0tiQlk5eXFmdE9tSjhlTm1yb2JQVDlHa2owZHhZZkVhb3VJejdvMUkzc25xRGFQVFhmWU9tZitrNW1pUGFKV1FYejdDNjlzbVIzWGREYm0vMGwyZTRuUnJrdGxvMCszMkJlZlV1MzdINlZMMEJOUWlxU3dvZENBTE9BSFZwemlhaU5kdStPNEZYZkZjQVd3bkovbWdPa1I3NkdEcS9OTkdBWXJVV2pjdDN5M3JSWTNrak93bjFrRjdMSnR1aGM3STg5Z3h0c21qcS9MeVM4bHRza3Z3YkJIbDdnekV5UjZ0dzZldHZ3TFdBMmtnMEFybTY2TkVNK1FoS0ptbDlKWm5pVldlQVMzekxPR3RXbGpmYW1LalRQUlRmT2lUZjdpTlEvTExROVFkTzdNZm9mRFhlYXRHVStsNXhTMUh1WFZzOTYvUVZMZmtFZ1NVQ0hrU3JNbk10bXNLaVIyNHJha3dpRm0ySm9ZUThFTmhLdFBuOHVpR1ZXL1NZeURzREh0QktsallDbTRqV0VJeGJpcnBDY2cvTklTRitGd1EyRUczeTJWcTBjalNxQ1NkdnFuY0JXZktxVGJjM0poVSszOVV3MmJWb3QxajBhREJIRTZMMWxUeDVYbTNHMkxYOUd5eGFKZXJsbEd2UitDR0xRcnUzbjB3aUZ3TmRnVDZVL0VueW9kTnREZGZ1clVTekdldTFhQ004NnpRREx1UE9YSG54ZTRZQUY4Q0dOSGtkMFNCc3NwUlhieWs2VlVmSzRIT0tjbnRqQ1kyRS9CQllSelJySHJsRWFJNGxRbll0R3BkeGN3azMzbEtYT1pvZnVKSnJpY0E2b3EwMWoyV1o2c1FzMXFZdlJVdm9VQkZvdnhubjI4WjFSTHN6Y3A1Z2lkQ1Q4cWk1R01oVTZpdGY4aDB1QXAyTXpWcWluYit1MXFLdDRzUmhNNVdyemxWWTVIZ0xBbXVKeG5KY0l1UTJYdVB0aldxSmtNelJ0bUI2ME1uMm1UZGIySEZSMmthaU9jVGN2bWc4NWxkVGpKSWJ0ZzZiM3ZuY3lKanV5eExOTFJHcTlrVXJ5NkhkS0ZrZXFsZFl5NjgvQWxzczJvK1E5STNkcnFwYUlnUnJoamxhSm8rZy9CRStzSnh4a2dROUdkaTR3cGIzMEk2TytEYkNVMldYQ0tVeHdnT1ZxRUw5MjcvLzhUK2pVcDhvcmRKSWF4RFc2QUtwV21sRDlwYjRkMjZWemUwMG0wZXJ6NVczd3N5ZGVGem0xTWVmU2JUeFRpNVR0ZGFHSXFoeDQwcVVieWxYVWtzbkN2bHRQaGI2ZjNZdEZSOUFFeWNkdmk0L3d4Y3dsS1dKQ29OdjVLQmJaMFd1cnVLay9CVzN0VzZqWkQ2TlBuejRxem85N2F6WE9xTFZsNjdjcm1xcW95aFhlQ2lnekJ3V0xXVVBRb2xTWFJsb0dodmM2NEJHQ0pOdElGcGhsV2U0NldqWGlYV2N4blZGb3lsSnRqeHFvaUVJZnhCcnBTQzZSVWF0S29Dc2ZLaFVNTFBOVWttaU9PaGpKNUtPZkpTalhWMTE2MGhHVzNBTHVmUktoK1J4ckpMQ0ZhcXBUTTlGV2FIMVR3eFZiRHgrNmp6MkVETHVuQVN0NHVqaCt4QnBwUEpreHZlU21tT0ZVeCtiODFmSHliTHNIWnlSaWxlTFRHSWgwc2pOS2lBSnNxd2VVSXIxQXRzU1MvV0xNdEs1THN3c2lzM0hxTkJYbzhGZ0NoNHNycTZ2czlQVDA0MzZWWXJjL1YxSHRIcUpFRjdpZE80V2FxVVJ4azFvR0VNNXl6NlRsWVdDQllOYXlFY0FZNmhPaGVNYVYzVDBIYVZzSDlkQUlveTBxcFQxWFh6dGc3TklKMldaV2dGSVlBeEJSUjdLUXVYV2dsb1MyWnpNRFBLQmZ1eEtrb2xka0tnRU1hd0xyaXJiNktYUk9UblNFblk5MExVZFYvZWJ4bkVlUjdZckhRSHNDVlhHVmxwU3k3ZXRyRlN0Q0YzVlZGVUh2S3AyUUdoc2ExSHNSU2F5bW9ZUTdBMmVoRWlwc0dHT3lsRVBGNmF2SWRNOWNVN3RpVkRqaEUwNVhUNmo4enBNVzVCYm5IZ0NNcDNrcWs0MGwwV2JKTTlNb1NPMExDc2luZVJsRW1WSllhWjVvVzl2Yjh2RjgrZUQvT1RreEoyN1RUMnV2azMrV3FMWlFsd2k5RC9MNGpSY0N6MDNneWd1QzFKTWxVV0VUakFtdHZ5eFRVV2oyWWdDWnpKOU8zNnhZd2syejhKV0o1TWNPWWdFSmRCQWpQMUlUOUFSdUpWQ0EybGdJbTFqQ0FnREJEc21pV2pwcW9nNjNuYU5ZZWZaVGlPV09qYWx5ZzNMeHZqUDhJOUkyeGljcTVobE1tMUFLWEFZTHppTVdtTERSa05jMVFsTVF5dGdOWE1zSktqSXpKdlZHYzU3NkljZ0hzcWhBOUhsR1E1UytwVEp2SlhzREdHV29NdWhRd3A2MHNjcHEwcGtqd2ZRaTBEUlVjT0VWcnh5T3FQT2RBdWJ0dEJETTBUWWZsQ2tUcUdlams0MmF6VzIyRlNyZy92NnlCRHRReGdDckc4ZkpTSVlaWFY5ZGdQc3lDVFFMQitVUlZwRVJaYmx4YUpRV1ZrbTJjbkpySGo3OXV2eTVjdXB1WGoxeXFpTEMxdWQ3ODlhb3RFOHZ2M3hSeFBIc1ltaTUrZ1VRSnRscFdWQkhPVVlUMmN3c21RQWU4TFd4MGJqaklEQnFRaFZvZ04xaEg5MGhvVURUTXhoQVRVc002MEdZQVFKS2xKUndrREZaYzU1bEs0c0VYSlh4QUUrcVNVR3BJQjhWaDdxVXV3SXZQbW5zeHdrNDl3UWRZSFEwQTJXVjVzNU9uV0V1QVhqVllaeUk5c0JFYnQ1V0pyRm9yUzRVL2tDeEV4aHNXMUQ2cDg1MnpJREdTQlBqVUNYMlZUTm9DL2FySS9RTG12U2JGNmtrY041cW1iV2VyVmZSMHpaWU1PeGdYeWEydnlLTC95cmFCU1pXM1dMV2NrUmZ1OXhqcUZrSUp5R01xQWMvUFU3T2tVejZOcE9ic0xReVlXZEQxa3dYMHMzdkZYUkRGZ1g0M0tXenN1aEdSZlowNnc0bWs2TGQrK2VseTllL0Y5NWV2cUhPeGd0QzI4T3JTTWFoZG5UUDAxVDg2djZaSklZYkFMVlFad2NGbWVXd3BMRlJUUXpOR24yREFid09MV2dOem8wUWNmamdBVERaRUR6ck0xZ3NVZ0tUUEEwT3BXbktJbXBveFNreUhoZ2NIS2hMT0wwQXVsREVNZ2dMcklzMWhyNUlzWlRNK1JaZ0N3a0FxeENCQmxRRE9rem14NlJHRGhEWVhtTm1VWW1CYkRSZEdCdWtJcjNhOVR0WUdxT3k2L1VZaENEakorc3lPZ21OclA2aEhFYkRzWjRzN0FhdVdHOFFUaWVDcGFxV0FScXNMT1NkVndRMmdvUFhiaE9kaDZIU0RySEhYdjh0RlRKeHhISUE3OUtYdk03V29tdlR1eVZ5T3FRY0ZsZDcwM2RFamtBbGpRczE2Wk1obVU1UzhxVGZGcSsrMGlTZlNxT2o0L05LMWl6aThtazZvY3QwdHJKRzlzM0dvME1QcDlvMHZkUm1TU3dhTHJNSTF4aXptRnhWSVl2UThWUlBFQjNHMTRoZ0JVTFdoTWNzZ0pPb0dtV09meHhPRnZVazJJZHB5RFZISTFCMnB4RENCZ1hwV29Nb2pCdVJwTEFWTUJld28reG9wZnhzYldzSk45TmRJdjRZNHkxOE5ISnRMaWNlYVhvNENoNll1dU80MnY0enloR3hjTlBka3FYakJXc0IwajJEajh2QnVvMmdUbitHenNNbllqMWR2RU1lbG1IblMxdkdIQlhWamkycm5YOGtXSEd3N2ZFY21HWHR5cXhsTUhqT2svakk2b2haYnVjcThmSmFKZGRqZU94MDZVZFhwWFJydHZsbysvcVhlYlgrajJ3VGcyZWI2dmpVMVgrL1BQWGhwYU1KT01vMTlwM284YUxjcmE3YXRMeWVUNTlmbjRldlhuekpycTYram82T3ZvbHVSMlA0K0YxaExsdkNTT1h4Rm0yaVBsSXlxMjZyWWhEa3JERFFSZ1E1MGxESEpyazJnTFpkRWNjOUtrbERzcUFNQ1NOQTUva29xdzRUaERQZXplLzhsQmQxZmR4NGcvTCt6bEpVcEVranQvWGpmOUdwZW03T2d3N2hKUEZGcTUvaHNOaGMzeFp4eVhqY1JYM1V6dG5IOE0vS1ljUERZMGoyTVVGNW1WcVFrQWNkczczQW1tdFJhT0poSVFTWkZQdmpwOFhUOSsvVjdmenNScVBVek5ORjlGWWpUQmJ4SFVZN25Td0ptdDFVcExqR3VTQkZRSnBwakFwTVlZa0RqbVZWYXJJRWNld01yWDdEWWp6QWFTeEVaOFJoa1NyU09USXduUFBBbEZmRVAvODg5Z1VmMENrSmNpL0lPMHJLNm9vZm5GVjBHL3E0d0dlM3lvQ3lQQVpmK2ltOWV6cFpYWFkxOS9UMC8rNGc5V1NZQmZ0K0hiWUM2cTFGcTBxUGRGLyt0TVBFZFlmUlRDYkVSWkNSdGZYbzVnTElibDBxUDBNMUpHbnNUaTBQRmladTJwdE9PZWpiRWVjUHlQOHI3QXdsL0FUa0FaZTR5clM4T25FOTJvMGVuTW56UkdseVl6QXV2czdQR240R2ordmxpYklSL1B2L3R2bHQ0UmQvY1NNWWVlem1BdTNmY2JmNTF4Wmo3UUo4a3lRZndLNURLOXpFeVR3ZjUyYklJSC9qZHVrQXpNeGZkWGRGN2VhWisweGdiblAxZkVUREtHdk5SZTZjYlV0aDlIWjZZZm9keWpoVm5Wd3U0UlY4ampUZTRsOFMvTFFKUE5zSVhFd000Slp0Z0g4ZENITnhRWFByRWxkMVBuMnNKRlhKMjd5bU5lUllsTStTZnRDQ0t3akdzVTNaSnRNbFByaGh4L3NiVElTYnJuRDBQZklWaEdIQmJxU2g1YUdsZ1htcGZxM0JFTDQvak9LOGF1dUM3bFd5OHJ4SXlLd2lXaFVvNTJ1c1dHYVB0K2czQVhUT0xjRGNVZ2cvdGZPaHhBK2Vadzg4ZmNNZ1RhUk5xbnVtMjlWaHBCbkZSRTVGZ1FFQVVGQUVOaHpCUDRPRTZGaVNCT3h4Z01BQUFBQVNVVk9SSzVDWUlJPSIgaWQ9ImJJIiBoZWlnaHQ9IjEwIiB3aWR0aD0iMTAiLz48cGF0dGVybiBoZWlnaHQ9IjgxLjYyIiB3aWR0aD0iMTczLjgzIiB5PSI2NjguMDMiIHg9IjIyMCIgcGF0dGVyblVuaXRzPSJ1c2VyU3BhY2VPblVzZSIgaWQ9ImIiPjx1c2UgdHJhbnNmb3JtPSJ0cmFuc2xhdGUoMjUuNjk2Njk4NjQ4MDc0Njg3LCAyNS42OTY2OTg2NDgwNzQ2Mykgc2NhbGUoMy4wMjMxNDEwMTc0MjA1NTA2LDMuMDIzMTQxMDE3NDIwNTUwNikiIHhsaW5rOmhyZWY9IiNhQyIvPjwvcGF0dGVybj48cGF0aCBpZD0iYUQiIGQ9Ik02Ny0xMjVjMCA1MyAyMSA4NyA3MyA4OCAzNyAxIDU0LTIyIDY1LTQ3bDQ1IDE3QzIzMy0yNSAxOTkgNCAxNDAgNCA1OCA0IDIwLTQyIDE1LTEyNSA4LTIzNSAxMjQtMjgxIDIxMS0yMzJjMTggMTAgMjkgMjkgMzYgNTBsLTQ2IDEyYy04LTI1LTMwLTQxLTYyLTQxLTUyIDAtNzEgMzQtNzIgODYiIGZpbGw9IiMyODJjMzMiLz48cGF0aCBpZD0iYUUiIGQ9Ik0xMTAtMTk0YzY0IDAgOTYgMzYgOTYgOTkgMCA2NC0zNSA5OS05NyA5OS02MSAwLTk1LTM2LTk1LTk5IDAtNjIgMzQtOTkgOTYtOTl6bS0xIDE2NGMzNSAwIDQ1LTI4IDQ1LTY1IDAtNDAtMTAtNjUtNDMtNjUtMzQgMC00NSAyNi00NSA2NSAwIDM2IDEwIDY1IDQzIDY1IiBmaWxsPSIjMjgyYzMzIi8+PHBhdGggaWQ9ImFGIiBkPSJNMjIwLTE1N2MtNTMgOS0yOCAxMDAtMzQgMTU3aC00OXYtMTA3YzEtMjctNS00OS0yOS01MEM1NS0xNDcgODEtNTcgNzUgMEgyNWwtMS0xOTBoNDdjMiAxMi0xIDI4IDMgMzggMTAtNTMgMTAxLTU2IDEwOCAwIDEzLTIyIDI0LTQzIDU5LTQyIDgyIDEgNTEgMTE2IDU3IDE5NGgtNDl2LTEwN2MtMS0yNS01LTQ4LTI5LTUwIiBmaWxsPSIjMjgyYzMzIi8+PHBhdGggaWQ9ImFHIiBkPSJNMTg1LTQ4Yy0xMyAzMC0zNyA1My04MiA1MkM0MyAyIDE0LTMzIDE0LTk2czMwLTk4IDkwLTk4YzYyIDAgODMgNDUgODQgMTA4SDY2YzAgMzEgOCA1NSAzOSA1NiAxOCAwIDMwLTcgMzQtMjJ6bS00NS02OWM1LTQ2LTU3LTYzLTcwLTIxLTIgNi00IDEzLTQgMjFoNzQiIGZpbGw9IiMyODJjMzMiLz48cGF0aCBpZD0iYUgiIGQ9Ik0xMzUtMTk0Yzg3LTEgNTggMTEzIDYzIDE5NGgtNTBjLTctNTcgMjMtMTU3LTM0LTE1Ny01OSAwLTM0IDk3LTM5IDE1N0gyNWwtMS0xOTBoNDdjMiAxMi0xIDI4IDMgMzggMTItMjYgMjgtNDEgNjEtNDIiIGZpbGw9IiMyODJjMzMiLz48cGF0aCBpZD0iYUkiIGQ9Ik0xMTUtM0M3OSAxMSAyOCA0IDI4LTQ1di0xMTJINHYtMzNoMjdsMTUtNDVoMzF2NDVoMzZ2MzNINzd2OTljLTEgMjMgMTYgMzEgMzggMjV2MzAiIGZpbGw9IiMyODJjMzMiLz48ZyBpZD0iYyI+PHVzZSB4bGluazpocmVmPSIjYUQiIHRyYW5zZm9ybT0ibWF0cml4KDAuMDQxOTg4MDY5Njg2Mzk2NTQsMCwwLDAuMDQxOTg4MDY5Njg2Mzk2NTQsMCwwKSIvPjx1c2UgeGxpbms6aHJlZj0iI2FFIiB0cmFuc2Zvcm09Im1hdHJpeCgwLjA0MTk4ODA2OTY4NjM5NjU0LDAsMCwwLjA0MTk4ODA2OTY4NjM5NjU0LDEwLjg3NDkxMDA0ODc3NjcwMywwKSIvPjx1c2UgeGxpbms6aHJlZj0iI2FGIiB0cmFuc2Zvcm09Im1hdHJpeCgwLjA0MTk4ODA2OTY4NjM5NjU0LDAsMCwwLjA0MTk4ODA2OTY4NjM5NjU0LDIwLjA3MDI5NzMxMDA5NzU0NCwwKSIvPjx1c2UgeGxpbms6aHJlZj0iI2FGIiB0cmFuc2Zvcm09Im1hdHJpeCgwLjA0MTk4ODA2OTY4NjM5NjU0LDAsMCwwLjA0MTk4ODA2OTY4NjM5NjU0LDMzLjUwNjQ3OTYwOTc0NDQ0LDApIi8+PHVzZSB4bGluazpocmVmPSIjYUciIHRyYW5zZm9ybT0ibWF0cml4KDAuMDQxOTg4MDY5Njg2Mzk2NTQsMCwwLDAuMDQxOTg4MDY5Njg2Mzk2NTQsNDYuOTQyNjYxOTA5MzkxMzMsMCkiLz48dXNlIHhsaW5rOmhyZWY9IiNhSCIgdHJhbnNmb3JtPSJtYXRyaXgoMC4wNDE5ODgwNjk2ODYzOTY1NCwwLDAsMC4wNDE5ODgwNjk2ODYzOTY1NCw1NS4zNDAyNzU4NDY2NzA2MzYsMCkiLz48dXNlIHhsaW5rOmhyZWY9IiNhSSIgdHJhbnNmb3JtPSJtYXRyaXgoMC4wNDE5ODgwNjk2ODYzOTY1NCwwLDAsMC4wNDE5ODgwNjk2ODYzOTY1NCw2NC41MzU2NjMxMDc5OTE0OCwwKSIvPjwvZz48ZmlsdGVyIGhlaWdodD0iMS4yIiB3aWR0aD0iMS4wOSIgeT0iLS4wNCIgeD0iLS4wNSIgZmlsdGVyVW5pdHM9Im9iamVjdEJvdW5kaW5nQm94IiBpZD0iYSI+PGZlT2Zmc2V0IGR5PSI1IiBpbj0iU291cmNlQWxwaGEiIHJlc3VsdD0ib2ZmT3V0Ii8+PGZlR2F1c3NpYW5CbHVyIHN0ZERldmlhdGlvbj0iNCIgaW49Im9mZk91dCIgcmVzdWx0PSJibHVyT3V0Ii8+PGZlQ29sb3JNYXRyaXggdmFsdWVzPSIwIDAgMCAwIDAgMCAwIDAgMCAwIDAgMCAwIDAgMCAwIDAgMCAwLjE0OTAxOTYwNzg0MzEzNzI1IDAiIGluPSJibHVyT3V0IiByZXN1bHQ9ImNvbG9yT3V0Ii8+PGZlQmxlbmQgaW4yPSJjb2xvck91dCIgaW49IlNvdXJjZUdyYXBoaWMiLz48L2ZpbHRlcj48cGF0dGVybiBoZWlnaHQ9IjgxLjYyIiB3aWR0aD0iMTQ2LjI0IiB5PSI3MzQuMTgiIHg9IjIyMCIgcGF0dGVyblVuaXRzPSJ1c2VyU3BhY2VPblVzZSIgaWQ9ImUiPjx1c2UgdHJhbnNmb3JtPSJ0cmFuc2xhdGUoMjUuNjk2Njk4NjQ4MDc0Njg3LCAyNS42OTY2OTg2NDgwNzQ2Mykgc2NhbGUoMy4wMjMxNDEwMTc0MjA1NTA2LDMuMDIzMTQxMDE3NDIwNTUwNikiIHhsaW5rOmhyZWY9IiNhSiIvPjwvcGF0dGVybj48cGF0aCBpZD0iYUsiIGQ9Ik0xNjktMTgyYy0xLTQzLTk0LTQ2LTk3LTMgMTggNjYgMTUxIDEwIDE1NCAxMTQgMyA5NS0xNjUgOTMtMjA0IDM2LTYtOC0xMC0xOS0xMi0zMGw1MC04YzMgNDYgMTEyIDU2IDExNiA1LTE3LTY5LTE1MC0xMC0xNTQtMTE0LTQtODcgMTUzLTg4IDE4OC0zNSA1IDggOCAxOCAxMCAyOCIgZmlsbD0iIzI4MmMzMyIvPjxwYXRoIGlkPSJhTCIgZD0iTTExNC0xNTdDNTUtMTU3IDgwLTYwIDc1IDBIMjV2LTI2MWg1MGwtMSAxMDljMTItMjYgMjgtNDEgNjEtNDIgODYtMSA1OCAxMTMgNjMgMTk0aC01MGMtNy01NyAyMy0xNTctMzQtMTU3IiBmaWxsPSIjMjgyYzMzIi8+PHBhdGggaWQ9ImFNIiBkPSJNMTMzLTM0QzExNy0xNSAxMDMgNSA2OSA0IDMyIDMgMTEtMTYgMTEtNTRjLTEtNjAgNTUtNjMgMTE2LTYxIDEtMjYtMy00Ny0yOC00Ny0xOCAxLTI2IDktMjggMjdsLTUyLTJjNy0zOCAzNi01OCA4Mi01N3M3NCAyMiA3NSA2OGwxIDgyYy0xIDE0IDEyIDE4IDI1IDE1djI3Yy0zMCA4LTcxIDUtNjktMzJ6bS00OCAzYzI5IDAgNDMtMjQgNDItNTctMzIgMC02Ni0zLTY1IDMwIDAgMTcgOCAyNyAyMyAyNyIgZmlsbD0iIzI4MmMzMyIvPjxwYXRoIGlkPSJhTiIgZD0iTTEzNS0xNTBjLTM5LTEyLTYwIDEzLTYwIDU3VjBIMjVsLTEtMTkwaDQ3YzIgMTMtMSAyOSAzIDQwIDYtMjggMjctNTMgNjEtNDF2NDEiIGZpbGw9IiMyODJjMzMiLz48ZyBpZD0iZiI+PHVzZSB4bGluazpocmVmPSIjYUsiIHRyYW5zZm9ybT0ibWF0cml4KDAuMDQxOTg4MDY5Njg2Mzk2NTQsMCwwLDAuMDQxOTg4MDY5Njg2Mzk2NTQsMCwwKSIvPjx1c2UgeGxpbms6aHJlZj0iI2FMIiB0cmFuc2Zvcm09Im1hdHJpeCgwLjA0MTk4ODA2OTY4NjM5NjU0LDAsMCwwLjA0MTk4ODA2OTY4NjM5NjU0LDEwLjA3NzEzNjcyNDczNTE2OSwwKSIvPjx1c2UgeGxpbms6aHJlZj0iI2FNIiB0cmFuc2Zvcm09Im1hdHJpeCgwLjA0MTk4ODA2OTY4NjM5NjU0LDAsMCwwLjA0MTk4ODA2OTY4NjM5NjU0LDE5LjI3MjUyMzk4NjA1NjAxLDApIi8+PHVzZSB4bGluazpocmVmPSIjYU4iIHRyYW5zZm9ybT0ibWF0cml4KDAuMDQxOTg4MDY5Njg2Mzk2NTQsMCwwLDAuMDQxOTg4MDY5Njg2Mzk2NTQsMjcuNjcwMTM3OTIzMzM1MzE4LDApIi8+PHVzZSB4bGluazpocmVmPSIjYUciIHRyYW5zZm9ybT0ibWF0cml4KDAuMDQxOTg4MDY5Njg2Mzk2NTQsMCwwLDAuMDQxOTg4MDY5Njg2Mzk2NTQsMzMuNTQ4NDY3Njc5NDMwODM2LDApIi8+PC9nPjxmaWx0ZXIgaGVpZ2h0PSIxLjIiIHdpZHRoPSIxLjExIiB5PSItLjA0IiB4PSItLjA1IiBmaWx0ZXJVbml0cz0ib2JqZWN0Qm91bmRpbmdCb3giIGlkPSJkIj48ZmVPZmZzZXQgZHk9IjUiIGluPSJTb3VyY2VBbHBoYSIgcmVzdWx0PSJvZmZPdXQiLz48ZmVHYXVzc2lhbkJsdXIgc3RkRGV2aWF0aW9uPSI0IiBpbj0ib2ZmT3V0IiByZXN1bHQ9ImJsdXJPdXQiLz48ZmVDb2xvck1hdHJpeCB2YWx1ZXM9IjAgMCAwIDAgMCAwIDAgMCAwIDAgMCAwIDAgMCAwIDAgMCAwIDAuMTQ5MDE5NjA3ODQzMTM3MjUgMCIgaW49ImJsdXJPdXQiIHJlc3VsdD0iY29sb3JPdXQiLz48ZmVCbGVuZCBpbjI9ImNvbG9yT3V0IiBpbj0iU291cmNlR3JhcGhpYyIvPjwvZmlsdGVyPjxwYXRoIGlkPSJhTyIgZD0iTTIwNSAwbC0yOC03Mkg2NEwzNiAwSDFsMTAxLTI0OGgzOEwyMzkgMGgtMzR6bS0zOC05OWwtNDctMTIzYy0xMiA0NS0zMSA4Mi00NiAxMjNoOTMiIGZpbGw9IiMzYTQxNGEiLz48cGF0aCBpZD0iYVAiIGQ9Ik0xMTUtMTk0YzU1IDEgNzAgNDEgNzAgOThTMTY5IDIgMTE1IDRDODQgNCA2Ni05IDU1LTMwbDEgMTA1SDI0bC0xLTI2NWgzMWwyIDMwYzEwLTIxIDI4LTM0IDU5LTM0em0tOCAxNzRjNDAgMCA0NS0zNCA0NS03NXMtNi03My00NS03NGMtNDIgMC01MSAzMi01MSA3NiAwIDQzIDEwIDczIDUxIDczIiBmaWxsPSIjM2E0MTRhIi8+PHBhdGggaWQ9ImFRIiBkPSJNMTQxLTM2QzEyNi0xNSAxMTAgNSA3MyA0IDM3IDMgMTUtMTcgMTUtNTNjLTEtNjQgNjMtNjMgMTI1LTYzIDMtMzUtOS01NC00MS01NC0yNCAxLTQxIDctNDIgMzFsLTMzLTNjNS0zNyAzMy01MiA3Ni01MiA0NSAwIDcyIDIwIDcyIDY0djgyYy0xIDIwIDcgMzIgMjggMjd2MjBjLTMxIDktNjEtMi01OS0zNXpNNDgtNTNjMCAyMCAxMiAzMyAzMiAzMyA0MS0zIDYzLTI5IDYwLTc0LTQzIDItOTItNS05MiA0MSIgZmlsbD0iIzNhNDE0YSIvPjxwYXRoIGlkPSJhUiIgZD0iTTk2LTE2OWMtNDAgMC00OCAzMy00OCA3M3M5IDc1IDQ4IDc1YzI0IDAgNDEtMTQgNDMtMzhsMzIgMmMtNiAzNy0zMSA2MS03NCA2MS01OSAwLTc2LTQxLTgyLTk5LTEwLTkzIDEwMS0xMzEgMTQ3LTY0IDQgNyA1IDE0IDcgMjJsLTMyIDNjLTQtMjEtMTYtMzUtNDEtMzUiIGZpbGw9IiMzYTQxNGEiLz48cGF0aCBpZD0iYVMiIGQ9Ik0xMDYtMTY5QzM0LTE2OSA2Mi02NyA1NyAwSDI1di0yNjFoMzJsLTEgMTAzYzEyLTIxIDI4LTM2IDYxLTM2IDg5IDAgNTMgMTE2IDYwIDE5NGgtMzJ2LTEyMWMyLTMyLTgtNDktMzktNDgiIGZpbGw9IiMzYTQxNGEiLz48cGF0aCBpZD0iYVQiIGQ9Ik0xMDAtMTk0YzYzIDAgODYgNDIgODQgMTA2SDQ5YzAgNDAgMTQgNjcgNTMgNjggMjYgMSA0My0xMiA0OS0yOWwyOCA4Yy0xMSAyOC0zNyA0NS03NyA0NUM0NCA0IDE0LTMzIDE1LTk2YzEtNjEgMjYtOTggODUtOTh6bTUyIDgxYzYtNjAtNzYtNzctOTctMjgtMyA3LTYgMTctNiAyOGgxMDMiIGZpbGw9IiMzYTQxNGEiLz48cGF0aCBpZD0iYVUiIGQ9Ik0xMDEtMjUxYzgyLTcgOTMgODcgNDMgMTMyTDgyLTY0QzcxLTUzIDU5LTQyIDUzLTI3aDEyOVYwSDE4YzItOTkgMTI4LTk0IDEyOC0xODIgMC0yOC0xNi00My00NS00M3MtNDYgMTUtNDkgNDFsLTMyLTNjNi00MSAzNC02MCA4MS02NCIgZmlsbD0iIzNhNDE0YSIvPjxnIGlkPSJnIj48dXNlIHhsaW5rOmhyZWY9IiNhTyIgdHJhbnNmb3JtPSJtYXRyaXgoMC4wNjIzNDU2NzkwMTIzNDU2NywwLDAsMC4wNjIzNDU2NzkwMTIzNDU2NywwLDApIi8+PHVzZSB4bGluazpocmVmPSIjYVAiIHRyYW5zZm9ybT0ibWF0cml4KDAuMDYyMzQ1Njc5MDEyMzQ1NjcsMCwwLDAuMDYyMzQ1Njc5MDEyMzQ1NjcsMTQuOTYyOTYyOTYyOTYyOTYsMCkiLz48dXNlIHhsaW5rOmhyZWY9IiNhUSIgdHJhbnNmb3JtPSJtYXRyaXgoMC4wNjIzNDU2NzkwMTIzNDU2NywwLDAsMC4wNjIzNDU2NzkwMTIzNDU2NywyNy40MzIwOTg3NjU0MzIwOTQsMCkiLz48dXNlIHhsaW5rOmhyZWY9IiNhUiIgdHJhbnNmb3JtPSJtYXRyaXgoMC4wNjIzNDU2NzkwMTIzNDU2NywwLDAsMC4wNjIzNDU2NzkwMTIzNDU2NywzOS45MDEyMzQ1Njc5MDEyMywwKSIvPjx1c2UgeGxpbms6aHJlZj0iI2FTIiB0cmFuc2Zvcm09Im1hdHJpeCgwLjA2MjM0NTY3OTAxMjM0NTY3LDAsMCwwLjA2MjM0NTY3OTAxMjM0NTY3LDUxLjEyMzQ1Njc5MDEyMzQ1LDApIi8+PHVzZSB4bGluazpocmVmPSIjYVQiIHRyYW5zZm9ybT0ibWF0cml4KDAuMDYyMzQ1Njc5MDEyMzQ1NjcsMCwwLDAuMDYyMzQ1Njc5MDEyMzQ1NjcsNjMuNTkyNTkyNTkyNTkyNTgsMCkiLz48dXNlIHhsaW5rOmhyZWY9IiNhVSIgdHJhbnNmb3JtPSJtYXRyaXgoMC4wNjIzNDU2NzkwMTIzNDU2NywwLDAsMC4wNjIzNDU2NzkwMTIzNDU2Nyw3Ni4wNjE3MjgzOTUwNjE3MiwwKSIvPjwvZz48cGF0aCBpZD0iYVYiIGQ9Ik0zMy0xNTR2LTM2aDM0djM2SDMzek0zMyAwdi0zNmgzNFYwSDMzIiBmaWxsPSIjM2E0MTRhIi8+PHBhdGggaWQ9ImFXIiBkPSJNMTM0LTEzMWMyOCA5IDUyIDI0IDUxIDYyLTEgNTAtMzQgNzMtODUgNzNTMTctMTkgMTYtNjljMC0zNiAyMS01NCA0OS02MS03NS0yNS00NS0xMjYgMzQtMTIxIDQ2IDMgNzggMTggNzkgNjMgMCAzMy0xNyA1MS00NCA1N3ptLTM0LTExYzMxIDEgNDYtMTUgNDYtNDQgMC0yOC0xNy00My00Ny00Mi0yOSAwLTQ2IDEzLTQ1IDQyIDEgMjggMTYgNDQgNDYgNDR6bTEgMTIyYzM1IDAgNTEtMTggNTEtNTIgMC0zMC0xOC00Ni01My00Ni0zMyAwLTUxIDE3LTUxIDQ3IDAgMzQgMTkgNTEgNTMgNTEiIGZpbGw9IiMzYTQxNGEiLz48cGF0aCBpZD0iYVgiIGQ9Ik0xMDEtMjUxYzY4IDAgODUgNTUgODUgMTI3UzE2NiA0IDEwMCA0QzMzIDQgMTQtNTIgMTQtMTI0YzAtNzMgMTctMTI3IDg3LTEyN3ptLTEgMjI5YzQ3IDAgNTQtNDkgNTQtMTAycy00LTEwMi01My0xMDJjLTUxIDAtNTUgNDgtNTUgMTAyIDAgNTMgNSAxMDIgNTQgMTAyIiBmaWxsPSIjM2E0MTRhIi8+PHBhdGggaWQ9ImFZIiBkPSJNMCA0bDcyLTI2NWgyOEwyOCA0SDAiIGZpbGw9IiMzYTQxNGEiLz48cGF0aCBpZD0iYVoiIGQ9Ik0xNTUtNTZWMGgtMzB2LTU2SDh2LTI1bDExNC0xNjdoMzN2MTY3aDM1djI1aC0zNXptLTMwLTE1NmMtMjcgNDYtNTggOTAtODggMTMxaDg4di0xMzEiIGZpbGw9IiMzYTQxNGEiLz48cGF0aCBpZD0iYmEiIGQ9Ik0xMjYtMTI3YzMzIDYgNTggMjAgNTggNTkgMCA4OC0xMzkgOTItMTY0IDI5LTMtOC01LTE2LTYtMjVsMzItM2M2IDI3IDIxIDQ0IDU0IDQ0IDMyIDAgNTItMTUgNTItNDYgMC0zOC0zNi00Ni03OS00M3YtMjhjMzkgMSA3Mi00IDcyLTQyIDAtMjctMTctNDMtNDYtNDMtMjggMC00NyAxNS00OSA0MWwtMzItM2M2LTQyIDM1LTYzIDgxLTY0IDQ4LTEgNzkgMjEgNzkgNjUgMCAzNi0yMSA1Mi01MiA1OSIgZmlsbD0iIzNhNDE0YSIvPjxnIGlkPSJpIj48dXNlIHhsaW5rOmhyZWY9IiNhViIgdHJhbnNmb3JtPSJtYXRyaXgoMC4wNjIzNDU2NzkwMTIzNDU2NywwLDAsMC4wNjIzNDU2NzkwMTIzNDU2NywwLDApIi8+PHVzZSB4bGluazpocmVmPSIjYVciIHRyYW5zZm9ybT0ibWF0cml4KDAuMDYyMzQ1Njc5MDEyMzQ1NjcsMCwwLDAuMDYyMzQ1Njc5MDEyMzQ1NjcsNi4yMzQ1Njc5MDEyMzQ1NjYsMCkiLz48dXNlIHhsaW5rOmhyZWY9IiNhWCIgdHJhbnNmb3JtPSJtYXRyaXgoMC4wNjIzNDU2NzkwMTIzNDU2NywwLDAsMC4wNjIzNDU2NzkwMTIzNDU2NywxOC43MDM3MDM3MDM3MDM3LDApIi8+PHVzZSB4bGluazpocmVmPSIjYVkiIHRyYW5zZm9ybT0ibWF0cml4KDAuMDYyMzQ1Njc5MDEyMzQ1NjcsMCwwLDAuMDYyMzQ1Njc5MDEyMzQ1NjcsMzEuMTcyODM5NTA2MTcyODMsMCkiLz48dXNlIHhsaW5rOmhyZWY9IiNhWiIgdHJhbnNmb3JtPSJtYXRyaXgoMC4wNjIzNDU2NzkwMTIzNDU2NywwLDAsMC4wNjIzNDU2NzkwMTIzNDU2NywzNy40MDc0MDc0MDc0MDc0LDApIi8+PHVzZSB4bGluazpocmVmPSIjYVoiIHRyYW5zZm9ybT0ibWF0cml4KDAuMDYyMzQ1Njc5MDEyMzQ1NjcsMCwwLDAuMDYyMzQ1Njc5MDEyMzQ1NjcsNDkuODc2NTQzMjA5ODc2NTMsMCkiLz48dXNlIHhsaW5rOmhyZWY9IiNiYSIgdHJhbnNmb3JtPSJtYXRyaXgoMC4wNjIzNDU2NzkwMTIzNDU2NywwLDAsMC4wNjIzNDU2NzkwMTIzNDU2Nyw2Mi4zNDU2NzkwMTIzNDU2NiwwKSIvPjwvZz48cGF0aCBpZD0iYmIiIGQ9Ik0yMzMtMTc3Yy0xIDQxLTIzIDY0LTYwIDcwTDI0MyAwaC0zOGwtNjUtMTAzSDYzVjBIMzB2LTI0OGM4OCAzIDIwNS0yMSAyMDMgNzF6TTYzLTEyOWM2MC0yIDEzNyAxMyAxMzctNDcgMC02MS04MC00Mi0xMzctNDV2OTIiIGZpbGw9IiMzYTQxNGEiLz48cGF0aCBpZD0iYmMiIGQ9Ik0xMDggMEg3MEwxLTE5MGgzNEw4OS0yNWw1Ni0xNjVoMzQiIGZpbGw9IiMzYTQxNGEiLz48cGF0aCBpZD0iYmQiIGQ9Ik0xMTQtMTYzQzM2LTE3OSA2MS03MiA1NyAwSDI1bC0xLTE5MGgzMGMxIDEyLTEgMjkgMiAzOSA2LTI3IDIzLTQ5IDU4LTQxdjI5IiBmaWxsPSIjM2E0MTRhIi8+PHBhdGggaWQ9ImJlIiBkPSJNMTM1LTE0M2MtMy0zNC04Ni0zOC04NyAwIDE1IDUzIDExNSAxMiAxMTkgOTBTMTcgMjEgMTAtNDVsMjgtNWM0IDM2IDk3IDQ1IDk4IDAtMTAtNTYtMTEzLTE1LTExOC05MC00LTU3IDgyLTYzIDEyMi00MiAxMiA3IDIxIDE5IDI0IDM1IiBmaWxsPSIjM2E0MTRhIi8+PGcgaWQ9ImoiPjx1c2UgeGxpbms6aHJlZj0iI2JiIiB0cmFuc2Zvcm09Im1hdHJpeCgwLjA2MjM0NTY3OTAxMjM0NTY3LDAsMCwwLjA2MjM0NTY3OTAxMjM0NTY3LDAsMCkiLz48dXNlIHhsaW5rOmhyZWY9IiNhVCIgdHJhbnNmb3JtPSJtYXRyaXgoMC4wNjIzNDU2NzkwMTIzNDU2NywwLDAsMC4wNjIzNDU2NzkwMTIzNDU2NywxNi4xNDc1MzA4NjQxOTc1MjcsMCkiLz48dXNlIHhsaW5rOmhyZWY9IiNiYyIgdHJhbnNmb3JtPSJtYXRyaXgoMC4wNjIzNDU2NzkwMTIzNDU2NywwLDAsMC4wNjIzNDU2NzkwMTIzNDU2NywyOC42MTY2NjY2NjY2NjY2NiwwKSIvPjx1c2UgeGxpbms6aHJlZj0iI2FUIiB0cmFuc2Zvcm09Im1hdHJpeCgwLjA2MjM0NTY3OTAxMjM0NTY3LDAsMCwwLjA2MjM0NTY3OTAxMjM0NTY3LDM5LjgzODg4ODg4ODg4ODg4LDApIi8+PHVzZSB4bGluazpocmVmPSIjYmQiIHRyYW5zZm9ybT0ibWF0cml4KDAuMDYyMzQ1Njc5MDEyMzQ1NjcsMCwwLDAuMDYyMzQ1Njc5MDEyMzQ1NjcsNTIuMzA4MDI0NjkxMzU4MDE0LDApIi8+PHVzZSB4bGluazpocmVmPSIjYmUiIHRyYW5zZm9ybT0ibWF0cml4KDAuMDYyMzQ1Njc5MDEyMzQ1NjcsMCwwLDAuMDYyMzQ1Njc5MDEyMzQ1NjcsNTkuNzI3MTYwNDkzODI3MTUsMCkiLz48dXNlIHhsaW5rOmhyZWY9IiNhVCIgdHJhbnNmb3JtPSJtYXRyaXgoMC4wNjIzNDU2NzkwMTIzNDU2NywwLDAsMC4wNjIzNDU2NzkwMTIzNDU2Nyw3MC45NDkzODI3MTYwNDkzNywwKSIvPjwvZz48cGF0aCBpZD0iYmYiIGQ9Ik0zMC0yNDhjODcgMSAxOTEtMTUgMTkxIDc1IDAgNzgtNzcgODAtMTU4IDc2VjBIMzB2LTI0OHptMzMgMTI1YzU3IDAgMTI0IDExIDEyNC01MCAwLTU5LTY4LTQ3LTEyNC00OHY5OCIgZmlsbD0iIzNhNDE0YSIvPjxwYXRoIGlkPSJiZyIgZD0iTTEwMC0xOTRjNjItMSA4NSAzNyA4NSA5OSAxIDYzLTI3IDk5LTg2IDk5UzE2LTM1IDE1LTk1YzAtNjYgMjgtOTkgODUtOTl6TTk5LTIwYzQ0IDEgNTMtMzEgNTMtNzUgMC00My04LTc1LTUxLTc1cy01MyAzMi01MyA3NSAxMCA3NCA1MSA3NSIgZmlsbD0iIzNhNDE0YSIvPjxwYXRoIGlkPSJiaCIgZD0iTTE0MSAwTDkwLTc4IDM4IDBINGw2OC05OC02NS05MmgzNWw0OCA3NCA0Ny03NGgzNWwtNjQgOTIgNjggOThoLTM1IiBmaWxsPSIjM2E0MTRhIi8+PHBhdGggaWQ9ImJpIiBkPSJNMTc5LTE5MEw5MyAzMUM3OSA1OSA1NiA4MiAxMiA3M1Y0OWMzOSA2IDUzLTIwIDY0LTUwTDEtMTkwaDM0TDkyLTM0bDU0LTE1NmgzMyIgZmlsbD0iIzNhNDE0YSIvPjxnIGlkPSJrIj48dXNlIHhsaW5rOmhyZWY9IiNiZiIgdHJhbnNmb3JtPSJtYXRyaXgoMC4wNjIzNDU2NzkwMTIzNDU2NywwLDAsMC4wNjIzNDU2NzkwMTIzNDU2NywwLDApIi8+PHVzZSB4bGluazpocmVmPSIjYmQiIHRyYW5zZm9ybT0ibWF0cml4KDAuMDYyMzQ1Njc5MDEyMzQ1NjcsMCwwLDAuMDYyMzQ1Njc5MDEyMzQ1NjcsMTQuOTYyOTYyOTYyOTYyOTYsMCkiLz48dXNlIHhsaW5rOmhyZWY9IiNiZyIgdHJhbnNmb3JtPSJtYXRyaXgoMC4wNjIzNDU2NzkwMTIzNDU2NywwLDAsMC4wNjIzNDU2NzkwMTIzNDU2NywyMi4zODIwOTg3NjU0MzIwOTQsMCkiLz48dXNlIHhsaW5rOmhyZWY9IiNiaCIgdHJhbnNmb3JtPSJtYXRyaXgoMC4wNjIzNDU2NzkwMTIzNDU2NywwLDAsMC4wNjIzNDU2NzkwMTIzNDU2NywzNC44NTEyMzQ1Njc5MDEyMywwKSIvPjx1c2UgeGxpbms6aHJlZj0iI2JpIiB0cmFuc2Zvcm09Im1hdHJpeCgwLjA2MjM0NTY3OTAxMjM0NTY3LDAsMCwwLjA2MjM0NTY3OTAxMjM0NTY3LDQ2LjA3MzQ1Njc5MDEyMzQ1LDApIi8+PC9nPjxwYXRoIGlkPSJiaiIgZD0iTTI2NiAwaC00MGwtNTYtMjEwTDExNSAwSDc1TDItMjQ4aDM1TDk2LTMwbDE1LTY0IDQzLTE1NGgzMmw1OSAyMTggNTktMjE4aDM1IiBmaWxsPSIjM2E0MTRhIi8+PHBhdGggaWQ9ImJrIiBkPSJNMTE1LTE5NGM1MyAwIDY5IDM5IDcwIDk4IDAgNjYtMjMgMTAwLTcwIDEwMEM4NCAzIDY2LTcgNTYtMzBMNTQgMEgyM2wxLTI2MWgzMnYxMDFjMTAtMjMgMjgtMzQgNTktMzR6bS04IDE3NGM0MCAwIDQ1LTM0IDQ1LTc1IDAtNDAtNS03NS00NS03NC00MiAwLTUxIDMyLTUxIDc2IDAgNDMgMTAgNzMgNTEgNzMiIGZpbGw9IiMzYTQxNGEiLz48ZyBpZD0ibCI+PHVzZSB4bGluazpocmVmPSIjYmoiIHRyYW5zZm9ybT0ibWF0cml4KDAuMDYyMzQ1Njc5MDEyMzQ1NjcsMCwwLDAuMDYyMzQ1Njc5MDEyMzQ1NjcsMCwwKSIvPjx1c2UgeGxpbms6aHJlZj0iI2FUIiB0cmFuc2Zvcm09Im1hdHJpeCgwLjA2MjM0NTY3OTAxMjM0NTY3LDAsMCwwLjA2MjM0NTY3OTAxMjM0NTY3LDIwLjY5ODc2NTQzMjA5ODc2NCwwKSIvPjx1c2UgeGxpbms6aHJlZj0iI2JrIiB0cmFuc2Zvcm09Im1hdHJpeCgwLjA2MjM0NTY3OTAxMjM0NTY3LDAsMCwwLjA2MjM0NTY3OTAxMjM0NTY3LDMzLjE2NzkwMTIzNDU2Nzg5LDApIi8+PC9nPjxwYXRoIGlkPSJibCIgZD0iTTE4NS0xODljLTUtNDgtMTIzLTU0LTEyNCAyIDE0IDc1IDE1OCAxNCAxNjMgMTE5IDMgNzgtMTIxIDg3LTE3NSA1NS0xNy0xMC0yOC0yNi0zMy00NmwzMy03YzUgNTYgMTQxIDYzIDE0MS0xIDAtNzgtMTU1LTE0LTE2Mi0xMTgtNS04MiAxNDUtODQgMTc5LTM0IDUgNyA4IDE2IDExIDI1IiBmaWxsPSIjM2E0MTRhIi8+PGcgaWQ9Im0iPjx1c2UgeGxpbms6aHJlZj0iI2JsIiB0cmFuc2Zvcm09Im1hdHJpeCgwLjA2MjM0NTY3OTAxMjM0NTY3LDAsMCwwLjA2MjM0NTY3OTAxMjM0NTY3LDAsMCkiLz48dXNlIHhsaW5rOmhyZWY9IiNhVCIgdHJhbnNmb3JtPSJtYXRyaXgoMC4wNjIzNDU2NzkwMTIzNDU2NywwLDAsMC4wNjIzNDU2NzkwMTIzNDU2NywxNC45NjI5NjI5NjI5NjI5NiwwKSIvPjx1c2UgeGxpbms6aHJlZj0iI2JkIiB0cmFuc2Zvcm09Im1hdHJpeCgwLjA2MjM0NTY3OTAxMjM0NTY3LDAsMCwwLjA2MjM0NTY3OTAxMjM0NTY3LDI3LjQzMjA5ODc2NTQzMjA5NCwwKSIvPjx1c2UgeGxpbms6aHJlZj0iI2JjIiB0cmFuc2Zvcm09Im1hdHJpeCgwLjA2MjM0NTY3OTAxMjM0NTY3LDAsMCwwLjA2MjM0NTY3OTAxMjM0NTY3LDM0Ljg1MTIzNDU2NzkwMTIzLDApIi8+PHVzZSB4bGluazpocmVmPSIjYVQiIHRyYW5zZm9ybT0ibWF0cml4KDAuMDYyMzQ1Njc5MDEyMzQ1NjcsMCwwLDAuMDYyMzQ1Njc5MDEyMzQ1NjcsNDYuMDczNDU2NzkwMTIzNDUsMCkiLz48dXNlIHhsaW5rOmhyZWY9IiNiZCIgdHJhbnNmb3JtPSJtYXRyaXgoMC4wNjIzNDU2NzkwMTIzNDU2NywwLDAsMC4wNjIzNDU2NzkwMTIzNDU2Nyw1OC41NDI1OTI1OTI1OTI1ODQsMCkiLz48L2c+PHBhdGggaWQ9ImJtIiBkPSJNMTAxLTIzNGMtMzEtOS00MiAxMC0zOCA0NGgzOHYyM0g2M1YwSDMydi0xNjdINXYtMjNoMjdjLTctNTIgMTctODIgNjktNjh2MjQiIGZpbGw9IiMzYTQxNGEiLz48cGF0aCBpZD0iYm4iIGQ9Ik0yNC0yMzF2LTMwaDMydjMwSDI0ek0yNCAwdi0xOTBoMzJWMEgyNCIgZmlsbD0iIzNhNDE0YSIvPjxwYXRoIGlkPSJibyIgZD0iTTI0IDB2LTI2MWgzMlYwSDI0IiBmaWxsPSIjM2E0MTRhIi8+PHBhdGggaWQ9ImJwIiBkPSJNMTE3LTE5NGM4OS00IDUzIDExNiA2MCAxOTRoLTMydi0xMjFjMC0zMS04LTQ5LTM5LTQ4QzM0LTE2NyA2Mi02NyA1NyAwSDI1bC0xLTE5MGgzMGMxIDEwLTEgMjQgMiAzMiAxMS0yMiAyOS0zNSA2MS0zNiIgZmlsbD0iIzNhNDE0YSIvPjxnIGlkPSJuIj48dXNlIHhsaW5rOmhyZWY9IiNibSIgdHJhbnNmb3JtPSJtYXRyaXgoMC4wNjIzNDU2NzkwMTIzNDU2NywwLDAsMC4wNjIzNDU2NzkwMTIzNDU2NywwLDApIi8+PHVzZSB4bGluazpocmVmPSIjYVEiIHRyYW5zZm9ybT0ibWF0cml4KDAuMDYyMzQ1Njc5MDEyMzQ1NjcsMCwwLDAuMDYyMzQ1Njc5MDEyMzQ1NjcsNi4yMzQ1Njc5MDEyMzQ1NjYsMCkiLz48dXNlIHhsaW5rOmhyZWY9IiNibiIgdHJhbnNmb3JtPSJtYXRyaXgoMC4wNjIzNDU2NzkwMTIzNDU2NywwLDAsMC4wNjIzNDU2NzkwMTIzNDU2NywxOC43MDM3MDM3MDM3MDM3LDApIi8+PHVzZSB4bGluazpocmVmPSIjYm8iIHRyYW5zZm9ybT0ibWF0cml4KDAuMDYyMzQ1Njc5MDEyMzQ1NjcsMCwwLDAuMDYyMzQ1Njc5MDEyMzQ1NjcsMjMuNjI5MDEyMzQ1Njc5MDEsMCkiLz48dXNlIHhsaW5rOmhyZWY9IiNhVSIgdHJhbnNmb3JtPSJtYXRyaXgoMC4wNjIzNDU2NzkwMTIzNDU2NywwLDAsMC4wNjIzNDU2NzkwMTIzNDU2NywyOC41NTQzMjA5ODc2NTQzMTQsMCkiLz48dXNlIHhsaW5rOmhyZWY9IiNiayIgdHJhbnNmb3JtPSJtYXRyaXgoMC4wNjIzNDU2NzkwMTIzNDU2NywwLDAsMC4wNjIzNDU2NzkwMTIzNDU2Nyw0MS4wMjM0NTY3OTAxMjM0NSwwKSIvPjx1c2UgeGxpbms6aHJlZj0iI2FRIiB0cmFuc2Zvcm09Im1hdHJpeCgwLjA2MjM0NTY3OTAxMjM0NTY3LDAsMCwwLjA2MjM0NTY3OTAxMjM0NTY3LDUzLjQ5MjU5MjU5MjU5MjU4LDApIi8+PHVzZSB4bGluazpocmVmPSIjYnAiIHRyYW5zZm9ybT0ibWF0cml4KDAuMDYyMzQ1Njc5MDEyMzQ1NjcsMCwwLDAuMDYyMzQ1Njc5MDEyMzQ1NjcsNjUuOTYxNzI4Mzk1MDYxNzEsMCkiLz48L2c+PHBhdGggaWQ9ImJxIiBkPSJNNTktNDdjLTIgMjQgMTggMjkgMzggMjJ2MjRDNjQgOSAyNyA0IDI3LTQwdi0xMjdINXYtMjNoMjRsOS00M2gyMXY0M2gzNXYyM0g1OXYxMjAiIGZpbGw9IiMzYTQxNGEiLz48ZyBpZD0ibyI+PHVzZSB4bGluazpocmVmPSIjYmYiIHRyYW5zZm9ybT0ibWF0cml4KDAuMDYyMzQ1Njc5MDEyMzQ1NjcsMCwwLDAuMDYyMzQ1Njc5MDEyMzQ1NjcsMCwwKSIvPjx1c2UgeGxpbms6aHJlZj0iI2JnIiB0cmFuc2Zvcm09Im1hdHJpeCgwLjA2MjM0NTY3OTAxMjM0NTY3LDAsMCwwLjA2MjM0NTY3OTAxMjM0NTY3LDE0Ljk2Mjk2Mjk2Mjk2Mjk2LDApIi8+PHVzZSB4bGluazpocmVmPSIjYmUiIHRyYW5zZm9ybT0ibWF0cml4KDAuMDYyMzQ1Njc5MDEyMzQ1NjcsMCwwLDAuMDYyMzQ1Njc5MDEyMzQ1NjcsMjcuNDMyMDk4NzY1NDMyMDk0LDApIi8+PHVzZSB4bGluazpocmVmPSIjYnEiIHRyYW5zZm9ybT0ibWF0cml4KDAuMDYyMzQ1Njc5MDEyMzQ1NjcsMCwwLDAuMDYyMzQ1Njc5MDEyMzQ1NjcsMzguNjU0MzIwOTg3NjU0MzE2LDApIi8+PHVzZSB4bGluazpocmVmPSIjYm0iIHRyYW5zZm9ybT0ibWF0cml4KDAuMDYyMzQ1Njc5MDEyMzQ1NjcsMCwwLDAuMDYyMzQ1Njc5MDEyMzQ1NjcsNDQuODg4ODg4ODg4ODg4ODg2LDApIi8+PHVzZSB4bGluazpocmVmPSIjYm4iIHRyYW5zZm9ybT0ibWF0cml4KDAuMDYyMzQ1Njc5MDEyMzQ1NjcsMCwwLDAuMDYyMzQ1Njc5MDEyMzQ1NjcsNTEuMTIzNDU2NzkwMTIzNDU2LDApIi8+PHVzZSB4bGluazpocmVmPSIjYmgiIHRyYW5zZm9ybT0ibWF0cml4KDAuMDYyMzQ1Njc5MDEyMzQ1NjcsMCwwLDAuMDYyMzQ1Njc5MDEyMzQ1NjcsNTYuMDQ4NzY1NDMyMDk4NzYsMCkiLz48L2c+PHBhdGggaWQ9ImJyIiBkPSJNNTQtMTQyYzQ4LTM1IDEzNy04IDEzMSA2MUMxOTYgMTggMzEgMzMgMTQtNTVsMzItNGM3IDIzIDIyIDM3IDUyIDM3IDM1LTEgNTEtMjIgNTQtNTggNC01NS03My02NS05OS0zNEgyMmw4LTEzNGgxNDF2MjdINTkiIGZpbGw9IiMzYTQxNGEiLz48ZyBpZD0icCI+PHVzZSB4bGluazpocmVmPSIjYVYiIHRyYW5zZm9ybT0ibWF0cml4KDAuMDYyMzQ1Njc5MDEyMzQ1NjcsMCwwLDAuMDYyMzQ1Njc5MDEyMzQ1NjcsMCwwKSIvPjx1c2UgeGxpbms6aHJlZj0iI2FVIiB0cmFuc2Zvcm09Im1hdHJpeCgwLjA2MjM0NTY3OTAxMjM0NTY3LDAsMCwwLjA2MjM0NTY3OTAxMjM0NTY3LDYuMjM0NTY3OTAxMjM0NTY2LDApIi8+PHVzZSB4bGluazpocmVmPSIjYnIiIHRyYW5zZm9ybT0ibWF0cml4KDAuMDYyMzQ1Njc5MDEyMzQ1NjcsMCwwLDAuMDYyMzQ1Njc5MDEyMzQ1NjcsMTguNzAzNzAzNzAzNzAzNywwKSIvPjwvZz48cGF0aCBpZD0iYnMiIGQ9Ik04NCA0Qy01IDggMzAtMTEyIDIzLTE5MGgzMnYxMjBjMCAzMSA3IDUwIDM5IDQ5IDcyLTIgNDUtMTAxIDUwLTE2OWgzMWwxIDE5MGgtMzBjLTEtMTAgMS0yNS0yLTMzLTExIDIyLTI4IDM2LTYwIDM3IiBmaWxsPSIjM2E0MTRhIi8+PGcgaWQ9InEiPjx1c2UgeGxpbms6aHJlZj0iI2JsIiB0cmFuc2Zvcm09Im1hdHJpeCgwLjA2MjM0NTY3OTAxMjM0NTY3LDAsMCwwLjA2MjM0NTY3OTAxMjM0NTY3LDAsMCkiLz48dXNlIHhsaW5rOmhyZWY9IiNicyIgdHJhbnNmb3JtPSJtYXRyaXgoMC4wNjIzNDU2NzkwMTIzNDU2NywwLDAsMC4wNjIzNDU2NzkwMTIzNDU2NywxNC45NjI5NjI5NjI5NjI5NiwwKSIvPjx1c2UgeGxpbms6aHJlZj0iI2JkIiB0cmFuc2Zvcm09Im1hdHJpeCgwLjA2MjM0NTY3OTAxMjM0NTY3LDAsMCwwLjA2MjM0NTY3OTAxMjM0NTY3LDI3LjQzMjA5ODc2NTQzMjA5NCwwKSIvPjx1c2UgeGxpbms6aHJlZj0iI2JuIiB0cmFuc2Zvcm09Im1hdHJpeCgwLjA2MjM0NTY3OTAxMjM0NTY3LDAsMCwwLjA2MjM0NTY3OTAxMjM0NTY3LDM0Ljg1MTIzNDU2NzkwMTIzLDApIi8+PHVzZSB4bGluazpocmVmPSIjYVIiIHRyYW5zZm9ybT0ibWF0cml4KDAuMDYyMzQ1Njc5MDEyMzQ1NjcsMCwwLDAuMDYyMzQ1Njc5MDEyMzQ1NjcsMzkuNzc2NTQzMjA5ODc2NTM2LDApIi8+PHVzZSB4bGluazpocmVmPSIjYVEiIHRyYW5zZm9ybT0ibWF0cml4KDAuMDYyMzQ1Njc5MDEyMzQ1NjcsMCwwLDAuMDYyMzQ1Njc5MDEyMzQ1NjcsNTAuOTk4NzY1NDMyMDk4NzYsMCkiLz48dXNlIHhsaW5rOmhyZWY9IiNicSIgdHJhbnNmb3JtPSJtYXRyaXgoMC4wNjIzNDU2NzkwMTIzNDU2NywwLDAsMC4wNjIzNDU2NzkwMTIzNDU2Nyw2My40Njc5MDEyMzQ1Njc4OSwwKSIvPjx1c2UgeGxpbms6aHJlZj0iI2FRIiB0cmFuc2Zvcm09Im1hdHJpeCgwLjA2MjM0NTY3OTAxMjM0NTY3LDAsMCwwLjA2MjM0NTY3OTAxMjM0NTY3LDY5LjcwMjQ2OTEzNTgwMjQ2LDApIi8+PC9nPjxwYXRoIGlkPSJidCIgZD0iTTYzLTIyMHY5MmgxMzh2MjhINjNWMEgzMHYtMjQ4aDE3NXYyOEg2MyIgZmlsbD0iIzNhNDE0YSIvPjxwYXRoIGlkPSJidSIgZD0iTTIwNiAwaC0zNmwtNDAtMTY0TDg5IDBINTNMLTEtMTkwaDMyTDcwLTI2bDQzLTE2NGgzNGw0MSAxNjQgNDItMTY0aDMxIiBmaWxsPSIjM2E0MTRhIi8+PHBhdGggaWQ9ImJ2IiBkPSJNODUtMTk0YzMxIDAgNDggMTMgNjAgMzNsLTEtMTAwaDMybDEgMjYxaC0zMGMtMi0xMCAwLTIzLTMtMzFDMTM0LTggMTE2IDQgODUgNCAzMiA0IDE2LTM1IDE1LTk0YzAtNjYgMjMtMTAwIDcwLTEwMHptOSAyNGMtNDAgMC00NiAzNC00NiA3NSAwIDQwIDYgNzQgNDUgNzQgNDIgMCA1MS0zMiA1MS03NiAwLTQyLTktNzQtNTAtNzMiIGZpbGw9IiMzYTQxNGEiLz48ZyBpZD0iciI+PHVzZSB4bGluazpocmVmPSIjYnQiIHRyYW5zZm9ybT0ibWF0cml4KDAuMDYyMzQ1Njc5MDEyMzQ1NjcsMCwwLDAuMDYyMzQ1Njc5MDEyMzQ1NjcsMCwwKSIvPjx1c2UgeGxpbms6aHJlZj0iI2JnIiB0cmFuc2Zvcm09Im1hdHJpeCgwLjA2MjM0NTY3OTAxMjM0NTY3LDAsMCwwLjA2MjM0NTY3OTAxMjM0NTY3LDEzLjY1MzcwMzcwMzcwMzcwMiwwKSIvPjx1c2UgeGxpbms6aHJlZj0iI2JkIiB0cmFuc2Zvcm09Im1hdHJpeCgwLjA2MjM0NTY3OTAxMjM0NTY3LDAsMCwwLjA2MjM0NTY3OTAxMjM0NTY3LDI2LjEyMjgzOTUwNjE3MjgzNCwwKSIvPjx1c2UgeGxpbms6aHJlZj0iI2J1IiB0cmFuc2Zvcm09Im1hdHJpeCgwLjA2MjM0NTY3OTAxMjM0NTY3LDAsMCwwLjA2MjM0NTY3OTAxMjM0NTY3LDMzLjU0MTk3NTMwODY0MTk2NiwwKSIvPjx1c2UgeGxpbms6aHJlZj0iI2FRIiB0cmFuc2Zvcm09Im1hdHJpeCgwLjA2MjM0NTY3OTAxMjM0NTY3LDAsMCwwLjA2MjM0NTY3OTAxMjM0NTY3LDQ5LjY4OTUwNjE3MjgzOTQ5NCwwKSIvPjx1c2UgeGxpbms6aHJlZj0iI2JkIiB0cmFuc2Zvcm09Im1hdHJpeCgwLjA2MjM0NTY3OTAxMjM0NTY3LDAsMCwwLjA2MjM0NTY3OTAxMjM0NTY3LDYyLjE1ODY0MTk3NTMwODYyNiwwKSIvPjx1c2UgeGxpbms6aHJlZj0iI2J2IiB0cmFuc2Zvcm09Im1hdHJpeCgwLjA2MjM0NTY3OTAxMjM0NTY3LDAsMCwwLjA2MjM0NTY3OTAxMjM0NTY3LDY5LjU3Nzc3Nzc3Nzc3Nzc1LDApIi8+PC9nPjxnIGlkPSJzIj48dXNlIHhsaW5rOmhyZWY9IiNiZiIgdHJhbnNmb3JtPSJtYXRyaXgoMC4wNjIzNDU2NzkwMTIzNDU2NywwLDAsMC4wNjIzNDU2NzkwMTIzNDU2NywwLDApIi8+PHVzZSB4bGluazpocmVmPSIjYmQiIHRyYW5zZm9ybT0ibWF0cml4KDAuMDYyMzQ1Njc5MDEyMzQ1NjcsMCwwLDAuMDYyMzQ1Njc5MDEyMzQ1NjcsMTQuOTYyOTYyOTYyOTYyOTYsMCkiLz48dXNlIHhsaW5rOmhyZWY9IiNiZyIgdHJhbnNmb3JtPSJtYXRyaXgoMC4wNjIzNDU2NzkwMTIzNDU2NywwLDAsMC4wNjIzNDU2NzkwMTIzNDU2NywyMi4zODIwOTg3NjU0MzIwOTQsMCkiLz48dXNlIHhsaW5rOmhyZWY9IiNiaCIgdHJhbnNmb3JtPSJtYXRyaXgoMC4wNjIzNDU2NzkwMTIzNDU2NywwLDAsMC4wNjIzNDU2NzkwMTIzNDU2NywzNC44NTEyMzQ1Njc5MDEyMywwKSIvPjx1c2UgeGxpbms6aHJlZj0iI2JpIiB0cmFuc2Zvcm09Im1hdHJpeCgwLjA2MjM0NTY3OTAxMjM0NTY3LDAsMCwwLjA2MjM0NTY3OTAxMjM0NTY3LDQ2LjA3MzQ1Njc5MDEyMzQ1LDApIi8+PC9nPjxwYXRoIGlkPSJidyIgZD0iTTk5LTI1MWM2NCAwIDg0IDUwIDg0IDEyMkMxODMtMzcgMTMwIDMzIDQ3LThjLTE0LTctMjAtMjMtMjUtNDBsMzAtNWM2IDM5IDY5IDM5IDg0IDcgOS0xOSAxNi00NCAxNi03NC0xMCAyMi0zMSAzNS02MiAzNS00OSAwLTczLTMzLTczLTgzIDAtNTQgMjgtODMgODItODN6bS0xIDE0MWMzMS0xIDUxLTE4IDUxLTQ5IDAtMzYtMTQtNjctNTEtNjctMzQgMC00OSAyMy00OSA1OCAwIDM0IDE1IDU4IDQ5IDU4IiBmaWxsPSIjM2E0MTRhIi8+PGcgaWQ9InQiPjx1c2UgeGxpbms6aHJlZj0iI2FWIiB0cmFuc2Zvcm09Im1hdHJpeCgwLjA2MjM0NTY3OTAxMjM0NTY3LDAsMCwwLjA2MjM0NTY3OTAxMjM0NTY3LDAsMCkiLz48dXNlIHhsaW5rOmhyZWY9IiNhVyIgdHJhbnNmb3JtPSJtYXRyaXgoMC4wNjIzNDU2NzkwMTIzNDU2NywwLDAsMC4wNjIzNDU2NzkwMTIzNDU2Nyw2LjIzNDU2NzkwMTIzNDU2NiwwKSIvPjx1c2UgeGxpbms6aHJlZj0iI2J3IiB0cmFuc2Zvcm09Im1hdHJpeCgwLjA2MjM0NTY3OTAxMjM0NTY3LDAsMCwwLjA2MjM0NTY3OTAxMjM0NTY3LDE4LjcwMzcwMzcwMzcwMzcsMCkiLz48dXNlIHhsaW5rOmhyZWY9IiNidyIgdHJhbnNmb3JtPSJtYXRyaXgoMC4wNjIzNDU2NzkwMTIzNDU2NywwLDAsMC4wNjIzNDU2NzkwMTIzNDU2NywzMS4xNzI4Mzk1MDYxNzI4MywwKSIvPjx1c2UgeGxpbms6aHJlZj0iI2J3IiB0cmFuc2Zvcm09Im1hdHJpeCgwLjA2MjM0NTY3OTAxMjM0NTY3LDAsMCwwLjA2MjM0NTY3OTAxMjM0NTY3LDQzLjY0MTk3NTMwODY0MTk2LDApIi8+PC9nPjxwYXRoIGlkPSJieCIgZD0iTTI0MCAwbDItMjE4Yy0yMyA3Ni01NCAxNDUtODAgMjE4aC0yM0w1OC0yMTggNTkgMEgzMHYtMjQ4aDQ0bDc3IDIxMWMyMS03NSA1MS0xNDAgNzYtMjExaDQzVjBoLTMwIiBmaWxsPSIjM2E0MTRhIi8+PGcgaWQ9InUiPjx1c2UgeGxpbms6aHJlZj0iI2JsIiB0cmFuc2Zvcm09Im1hdHJpeCgwLjA2MjM0NTY3OTAxMjM0NTY3LDAsMCwwLjA2MjM0NTY3OTAxMjM0NTY3LDAsMCkiLz48dXNlIHhsaW5rOmhyZWY9IiNieCIgdHJhbnNmb3JtPSJtYXRyaXgoMC4wNjIzNDU2NzkwMTIzNDU2NywwLDAsMC4wNjIzNDU2NzkwMTIzNDU2NywxNC45NjI5NjI5NjI5NjI5NiwwKSIvPjx1c2UgeGxpbms6aHJlZj0iI2JsIiB0cmFuc2Zvcm09Im1hdHJpeCgwLjA2MjM0NTY3OTAxMjM0NTY3LDAsMCwwLjA2MjM0NTY3OTAxMjM0NTY3LDMzLjYwNDMyMDk4NzY1NDMxLDApIi8+PC9nPjxnIGlkPSJ2Ij48dXNlIHhsaW5rOmhyZWY9IiNiYiIgdHJhbnNmb3JtPSJtYXRyaXgoMC4wNjIzNDU2NzkwMTIzNDU2NywwLDAsMC4wNjIzNDU2NzkwMTIzNDU2NywwLDApIi8+PHVzZSB4bGluazpocmVmPSIjYVQiIHRyYW5zZm9ybT0ibWF0cml4KDAuMDYyMzQ1Njc5MDEyMzQ1NjcsMCwwLDAuMDYyMzQ1Njc5MDEyMzQ1NjcsMTYuMTQ3NTMwODY0MTk3NTI3LDApIi8+PHVzZSB4bGluazpocmVmPSIjYm8iIHRyYW5zZm9ybT0ibWF0cml4KDAuMDYyMzQ1Njc5MDEyMzQ1NjcsMCwwLDAuMDYyMzQ1Njc5MDEyMzQ1NjcsMjguNjE2NjY2NjY2NjY2NjYsMCkiLz48dXNlIHhsaW5rOmhyZWY9IiNhUSIgdHJhbnNmb3JtPSJtYXRyaXgoMC4wNjIzNDU2NzkwMTIzNDU2NywwLDAsMC4wNjIzNDU2NzkwMTIzNDU2NywzMy41NDE5NzUzMDg2NDE5NjYsMCkiLz48dXNlIHhsaW5rOmhyZWY9IiNiaSIgdHJhbnNmb3JtPSJtYXRyaXgoMC4wNjIzNDU2NzkwMTIzNDU2NywwLDAsMC4wNjIzNDU2NzkwMTIzNDU2Nyw0Ni4wMTExMTExMTExMTExLDApIi8+PC9nPjxnIGlkPSJ3Ij48dXNlIHhsaW5rOmhyZWY9IiNidCIgdHJhbnNmb3JtPSJtYXRyaXgoMC4wNjIzNDU2NzkwMTIzNDU2NywwLDAsMC4wNjIzNDU2NzkwMTIzNDU2NywwLDApIi8+PHVzZSB4bGluazpocmVmPSIjYmQiIHRyYW5zZm9ybT0ibWF0cml4KDAuMDYyMzQ1Njc5MDEyMzQ1NjcsMCwwLDAuMDYyMzQ1Njc5MDEyMzQ1NjcsMTMuNjUzNzAzNzAzNzAzNzAyLDApIi8+PHVzZSB4bGluazpocmVmPSIjYmciIHRyYW5zZm9ybT0ibWF0cml4KDAuMDYyMzQ1Njc5MDEyMzQ1NjcsMCwwLDAuMDYyMzQ1Njc5MDEyMzQ1NjcsMjEuMDcyODM5NTA2MTcyODM3LDApIi8+PHVzZSB4bGluazpocmVmPSIjYnAiIHRyYW5zZm9ybT0ibWF0cml4KDAuMDYyMzQ1Njc5MDEyMzQ1NjcsMCwwLDAuMDYyMzQ1Njc5MDEyMzQ1NjcsMzMuNTQxOTc1MzA4NjQxOTY2LDApIi8+PHVzZSB4bGluazpocmVmPSIjYnEiIHRyYW5zZm9ybT0ibWF0cml4KDAuMDYyMzQ1Njc5MDEyMzQ1NjcsMCwwLDAuMDYyMzQ1Njc5MDEyMzQ1NjcsNDYuMDExMTExMTExMTExMSwwKSIvPjx1c2UgeGxpbms6aHJlZj0iI2FUIiB0cmFuc2Zvcm09Im1hdHJpeCgwLjA2MjM0NTY3OTAxMjM0NTY3LDAsMCwwLjA2MjM0NTY3OTAxMjM0NTY3LDUyLjI0NTY3OTAxMjM0NTY2LDApIi8+PHVzZSB4bGluazpocmVmPSIjYnAiIHRyYW5zZm9ybT0ibWF0cml4KDAuMDYyMzQ1Njc5MDEyMzQ1NjcsMCwwLDAuMDYyMzQ1Njc5MDEyMzQ1NjcsNjQuNzE0ODE0ODE0ODE0NzksMCkiLz48dXNlIHhsaW5rOmhyZWY9IiNidiIgdHJhbnNmb3JtPSJtYXRyaXgoMC4wNjIzNDU2NzkwMTIzNDU2NywwLDAsMC4wNjIzNDU2NzkwMTIzNDU2Nyw3Ny4xODM5NTA2MTcyODM5MywwKSIvPjx1c2UgeGxpbms6aHJlZj0iI2JlIiB0cmFuc2Zvcm09Im1hdHJpeCgwLjA2MjM0NTY3OTAxMjM0NTY3LDAsMCwwLjA2MjM0NTY3OTAxMjM0NTY3LDg5LjY1MzA4NjQxOTc1MzA3LDApIi8+PC9nPjxnIGlkPSJ4Ij48dXNlIHhsaW5rOmhyZWY9IiNieCIgdHJhbnNmb3JtPSJtYXRyaXgoMC4wNjIzNDU2NzkwMTIzNDU2NywwLDAsMC4wNjIzNDU2NzkwMTIzNDU2NywwLDApIi8+PHVzZSB4bGluazpocmVmPSIjYmciIHRyYW5zZm9ybT0ibWF0cml4KDAuMDYyMzQ1Njc5MDEyMzQ1NjcsMCwwLDAuMDYyMzQ1Njc5MDEyMzQ1NjcsMTguNjQxMzU4MDI0NjkxMzUzLDApIi8+PHVzZSB4bGluazpocmVmPSIjYVIiIHRyYW5zZm9ybT0ibWF0cml4KDAuMDYyMzQ1Njc5MDEyMzQ1NjcsMCwwLDAuMDYyMzQ1Njc5MDEyMzQ1NjcsMzEuMTEwNDkzODI3MTYwNDg2LDApIi8+PHVzZSB4bGluazpocmVmPSIjYmciIHRyYW5zZm9ybT0ibWF0cml4KDAuMDYyMzQ1Njc5MDEyMzQ1NjcsMCwwLDAuMDYyMzQ1Njc5MDEyMzQ1NjcsNDIuMzMyNzE2MDQ5MzgyNzA0LDApIi8+PC9nPjxnIGlkPSJ5Ij48dXNlIHhsaW5rOmhyZWY9IiNibCIgdHJhbnNmb3JtPSJtYXRyaXgoMC4wNjIzNDU2NzkwMTIzNDU2NywwLDAsMC4wNjIzNDU2NzkwMTIzNDU2NywwLDApIi8+PHVzZSB4bGluazpocmVmPSIjYnMiIHRyYW5zZm9ybT0ibWF0cml4KDAuMDYyMzQ1Njc5MDEyMzQ1NjcsMCwwLDAuMDYyMzQ1Njc5MDEyMzQ1NjcsMTQuOTYyOTYyOTYyOTYyOTYsMCkiLz48dXNlIHhsaW5rOmhyZWY9IiNhUCIgdHJhbnNmb3JtPSJtYXRyaXgoMC4wNjIzNDU2NzkwMTIzNDU2NywwLDAsMC4wNjIzNDU2NzkwMTIzNDU2NywyNy40MzIwOTg3NjU0MzIwOTQsMCkiLz48dXNlIHhsaW5rOmhyZWY9IiNhUCIgdHJhbnNmb3JtPSJtYXRyaXgoMC4wNjIzNDU2NzkwMTIzNDU2NywwLDAsMC4wNjIzNDU2NzkwMTIzNDU2NywzOS45MDEyMzQ1Njc5MDEyMywwKSIvPjx1c2UgeGxpbms6aHJlZj0iI2JnIiB0cmFuc2Zvcm09Im1hdHJpeCgwLjA2MjM0NTY3OTAxMjM0NTY3LDAsMCwwLjA2MjM0NTY3OTAxMjM0NTY3LDUyLjM3MDM3MDM3MDM3MDM2LDApIi8+PHVzZSB4bGluazpocmVmPSIjYmQiIHRyYW5zZm9ybT0ibWF0cml4KDAuMDYyMzQ1Njc5MDEyMzQ1NjcsMCwwLDAuMDYyMzQ1Njc5MDEyMzQ1NjcsNjQuODM5NTA2MTcyODM5NDksMCkiLz48dXNlIHhsaW5rOmhyZWY9IiNicSIgdHJhbnNmb3JtPSJtYXRyaXgoMC4wNjIzNDU2NzkwMTIzNDU2NywwLDAsMC4wNjIzNDU2NzkwMTIzNDU2Nyw3Mi4yNTg2NDE5NzUzMDg2MiwwKSIvPjwvZz48cGF0dGVybiBoZWlnaHQ9IjE3OS4wNSIgd2lkdGg9IjE5My4wMiIgeT0iLTI2MCIgeD0iMzQ5Ljc0IiBwYXR0ZXJuVW5pdHM9InVzZXJTcGFjZU9uVXNlIiBpZD0ieiI+PHVzZSB0cmFuc2Zvcm09InRyYW5zbGF0ZSgwLCAwKSBzY2FsZSgxOS4zMDE1ODczMDE1ODczLDE3LjkwNDc2MTkwNDc2MTkwNSkiIHhsaW5rOmhyZWY9IiNieSIvPjwvcGF0dGVybj48bGluZWFyR3JhZGllbnQgeTI9Ii0xMDAiIHgyPSIzNjYuMjQiIHkxPSItMjYwIiB4MT0iMzY2LjI0IiBpZD0iQSIgZ3JhZGllbnRVbml0cz0idXNlclNwYWNlT25Vc2UiPjxzdG9wIHN0b3AtY29sb3I9IiM4ZjhkZjkiIG9mZnNldD0iMCUiLz48c3RvcCBzdG9wLWNvbG9yPSIjOTM5MWZmIiBvZmZzZXQ9IjMwJSIvPjxzdG9wIHN0b3AtY29sb3I9IiM5MzkxZmYiIG9mZnNldD0iMTAwJSIvPjwvbGluZWFyR3JhZGllbnQ+PHBhdGggaWQ9ImJ6IiBkPSJNMTQzIDBMNzktODcgNTYtNjhWMEgyNHYtMjYxaDMydjE2M2w4My05MmgzN2wtNzcgODJMMTgxIDBoLTM4IiBmaWxsPSIjM2E0MTRhIi8+PHBhdGggaWQ9ImJBIiBkPSJNMjEwLTE2OWMtNjcgMy0zOCAxMDUtNDQgMTY5aC0zMXYtMTIxYzAtMjktNS01MC0zNS00OEMzNC0xNjUgNjItNjUgNTYgMEgyNWwtMS0xOTBoMzBjMSAxMC0xIDI0IDIgMzIgMTAtNDQgOTktNTAgMTA3IDAgMTEtMjEgMjctMzUgNTgtMzYgODUtMiA0NyAxMTkgNTUgMTk0aC0zMXYtMTIxYzAtMjktNS00OS0zNS00OCIgZmlsbD0iIzNhNDE0YSIvPjxnIGlkPSJCIj48dXNlIHhsaW5rOmhyZWY9IiNibCIgdHJhbnNmb3JtPSJtYXRyaXgoMC4wODA4MDgwODA4MDgwODA4MSwwLDAsMC4wODA4MDgwODA4MDgwODA4MSwwLDApIi8+PHVzZSB4bGluazpocmVmPSIjYm4iIHRyYW5zZm9ybT0ibWF0cml4KDAuMDgwODA4MDgwODA4MDgwODEsMCwwLDAuMDgwODA4MDgwODA4MDgwODEsMTkuMzkzOTM5MzkzOTM5Mzk0LDApIi8+PHVzZSB4bGluazpocmVmPSIjYnAiIHRyYW5zZm9ybT0ibWF0cml4KDAuMDgwODA4MDgwODA4MDgwODEsMCwwLDAuMDgwODA4MDgwODA4MDgwODEsMjUuNzc3Nzc3Nzc3Nzc3NzgsMCkiLz48dXNlIHhsaW5rOmhyZWY9IiNieiIgdHJhbnNmb3JtPSJtYXRyaXgoMC4wODA4MDgwODA4MDgwODA4MSwwLDAsMC4wODA4MDgwODA4MDgwODA4MSw0MS45MzkzOTM5MzkzOTM5NDUsMCkiLz48dXNlIHhsaW5rOmhyZWY9IiNhUSIgdHJhbnNmb3JtPSJtYXRyaXgoMC4wODA4MDgwODA4MDgwODA4MSwwLDAsMC4wODA4MDgwODA4MDgwODA4MSw1Ni40ODQ4NDg0ODQ4NDg0OSwwKSIvPjx1c2UgeGxpbms6aHJlZj0iI2JBIiB0cmFuc2Zvcm09Im1hdHJpeCgwLjA4MDgwODA4MDgwODA4MDgxLDAsMCwwLjA4MDgwODA4MDgwODA4MDgxLDcyLjY0NjQ2NDY0NjQ2NDY1LDApIi8+PHVzZSB4bGluazpocmVmPSIjYVEiIHRyYW5zZm9ybT0ibWF0cml4KDAuMDgwODA4MDgwODA4MDgwODEsMCwwLDAuMDgwODA4MDgwODA4MDgwODEsOTYuODA4MDgwODA4MDgwOCwwKSIvPjx1c2UgeGxpbms6aHJlZj0iI2JkIiB0cmFuc2Zvcm09Im1hdHJpeCgwLjA4MDgwODA4MDgwODA4MDgxLDAsMCwwLjA4MDgwODA4MDgwODA4MDgxLDExMi45Njk2OTY5Njk2OTY5OCwwKSIvPjx1c2UgeGxpbms6aHJlZj0iI2JuIiB0cmFuc2Zvcm09Im1hdHJpeCgwLjA4MDgwODA4MDgwODA4MDgxLDAsMCwwLjA4MDgwODA4MDgwODA4MDgxLDEyMi41ODU4NTg1ODU4NTg2LDApIi8+PC9nPjxnIGlkPSJDIj48dXNlIHhsaW5rOmhyZWY9IiNibCIgdHJhbnNmb3JtPSJtYXRyaXgoMC4wODA4MDgwODA4MDgwODA4MSwwLDAsMC4wODA4MDgwODA4MDgwODA4MSwwLDApIi8+PHVzZSB4bGluazpocmVmPSIjYVQiIHRyYW5zZm9ybT0ibWF0cml4KDAuMDgwODA4MDgwODA4MDgwODEsMCwwLDAuMDgwODA4MDgwODA4MDgwODEsMTkuMzkzOTM5MzkzOTM5Mzk0LDApIi8+PHVzZSB4bGluazpocmVmPSIjYmQiIHRyYW5zZm9ybT0ibWF0cml4KDAuMDgwODA4MDgwODA4MDgwODEsMCwwLDAuMDgwODA4MDgwODA4MDgwODEsMzUuNTU1NTU1NTU1NTU1NTYsMCkiLz48dXNlIHhsaW5rOmhyZWY9IiNiYyIgdHJhbnNmb3JtPSJtYXRyaXgoMC4wODA4MDgwODA4MDgwODA4MSwwLDAsMC4wODA4MDgwODA4MDgwODA4MSw0NS4xNzE3MTcxNzE3MTcxOCwwKSIvPjx1c2UgeGxpbms6aHJlZj0iI2JuIiB0cmFuc2Zvcm09Im1hdHJpeCgwLjA4MDgwODA4MDgwODA4MDgxLDAsMCwwLjA4MDgwODA4MDgwODA4MDgxLDU5LjcxNzE3MTcxNzE3MTcyLDApIi8+PHVzZSB4bGluazpocmVmPSIjYVIiIHRyYW5zZm9ybT0ibWF0cml4KDAuMDgwODA4MDgwODA4MDgwODEsMCwwLDAuMDgwODA4MDgwODA4MDgwODEsNjYuMTAxMDEwMTAxMDEwMSwwKSIvPjx1c2UgeGxpbms6aHJlZj0iI2FUIiB0cmFuc2Zvcm09Im1hdHJpeCgwLjA4MDgwODA4MDgwODA4MDgxLDAsMCwwLjA4MDgwODA4MDgwODA4MDgxLDgwLjY0NjQ2NDY0NjQ2NDY1LDApIi8+PHVzZSB4bGluazpocmVmPSIjYmUiIHRyYW5zZm9ybT0ibWF0cml4KDAuMDgwODA4MDgwODA4MDgwODEsMCwwLDAuMDgwODA4MDgwODA4MDgwODEsOTYuODA4MDgwODA4MDgwOCwwKSIvPjwvZz48cGF0dGVybiBoZWlnaHQ9IjE3OS4wNSIgd2lkdGg9IjE5My4wMiIgeT0iNjU1LjgxIiB4PSIxNjAyLjM3IiBwYXR0ZXJuVW5pdHM9InVzZXJTcGFjZU9uVXNlIiBpZD0iRCI+PHVzZSB0cmFuc2Zvcm09InRyYW5zbGF0ZSgwLCAwKSBzY2FsZSgxOS4zMDE1ODczMDE1ODczLDE3LjkwNDc2MTkwNDc2MTkwNSkiIHhsaW5rOmhyZWY9IiNiQiIvPjwvcGF0dGVybj48bGluZWFyR3JhZGllbnQgeTI9IjgxNS44MSIgeDI9IjE2MTguODgiIHkxPSI2NTUuODEiIHgxPSIxNjE4Ljg4IiBpZD0iRSIgZ3JhZGllbnRVbml0cz0idXNlclNwYWNlT25Vc2UiPjxzdG9wIHN0b3AtY29sb3I9IiNmOWU2YTUiIG9mZnNldD0iMCUiLz48c3RvcCBzdG9wLWNvbG9yPSIjZmZlY2E5IiBvZmZzZXQ9IjMwJSIvPjxzdG9wIHN0b3AtY29sb3I9IiNmZmVjYTkiIG9mZnNldD0iMTAwJSIvPjwvbGluZWFyR3JhZGllbnQ+PHBhdGggaWQ9ImJDIiBkPSJNMTUzLTI0OEMxNDUtMTQ4IDE4OCA0IDgwIDQgMzYgMyAxMy0yMSA2LTYybDMyLTVjNCAyNSAxNiA0MiA0MyA0MyAyNyAwIDM5LTIwIDM5LTQ5di0xNDdINzJ2LTI4aDgxIiBmaWxsPSIjM2E0MTRhIi8+PGcgaWQ9IkYiPjx1c2UgeGxpbms6aHJlZj0iI2JDIiB0cmFuc2Zvcm09Im1hdHJpeCgwLjA2Nzc5NjYxMDE2OTQ5MTUxLDAsMCwwLjA2Nzc5NjYxMDE2OTQ5MTUxLDAsMCkiLz48dXNlIHhsaW5rOmhyZWY9IiNicyIgdHJhbnNmb3JtPSJtYXRyaXgoMC4wNjc3OTY2MTAxNjk0OTE1MSwwLDAsMC4wNjc3OTY2MTAxNjk0OTE1MSwxMi4yMDMzODk4MzA1MDg0NzIsMCkiLz48dXNlIHhsaW5rOmhyZWY9IiNiZSIgdHJhbnNmb3JtPSJtYXRyaXgoMC4wNjc3OTY2MTAxNjk0OTE1MSwwLDAsMC4wNjc3OTY2MTAxNjk0OTE1MSwyNS43NjI3MTE4NjQ0MDY3OCwwKSIvPjx1c2UgeGxpbms6aHJlZj0iI2JxIiB0cmFuc2Zvcm09Im1hdHJpeCgwLjA2Nzc5NjYxMDE2OTQ5MTUxLDAsMCwwLjA2Nzc5NjYxMDE2OTQ5MTUxLDM3Ljk2NjEwMTY5NDkxNTI1LDApIi8+PC9nPjxwYXRoIGlkPSJiRCIgZD0iTTMzIDB2LTI0OGgzNFYwSDMzIiBmaWxsPSIjM2E0MTRhIi8+PGcgaWQ9IkciPjx1c2UgeGxpbms6aHJlZj0iI2JEIiB0cmFuc2Zvcm09Im1hdHJpeCgwLjA2Nzc5NjYxMDE2OTQ5MTUxLDAsMCwwLjA2Nzc5NjYxMDE2OTQ5MTUxLDAsMCkiLz48dXNlIHhsaW5rOmhyZWY9IiNicCIgdHJhbnNmb3JtPSJtYXRyaXgoMC4wNjc3OTY2MTAxNjk0OTE1MSwwLDAsMC4wNjc3OTY2MTAxNjk0OTE1MSw2Ljc3OTY2MTAxNjk0OTE1MSwwKSIvPjx1c2UgeGxpbms6aHJlZj0iI2JlIiB0cmFuc2Zvcm09Im1hdHJpeCgwLjA2Nzc5NjYxMDE2OTQ5MTUxLDAsMCwwLjA2Nzc5NjYxMDE2OTQ5MTUxLDIwLjMzODk4MzA1MDg0NzQ1MywwKSIvPjx1c2UgeGxpbms6aHJlZj0iI2JxIiB0cmFuc2Zvcm09Im1hdHJpeCgwLjA2Nzc5NjYxMDE2OTQ5MTUxLDAsMCwwLjA2Nzc5NjYxMDE2OTQ5MTUxLDMyLjU0MjM3Mjg4MTM1NTkyNCwwKSIvPjx1c2UgeGxpbms6aHJlZj0iI2FRIiB0cmFuc2Zvcm09Im1hdHJpeCgwLjA2Nzc5NjYxMDE2OTQ5MTUxLDAsMCwwLjA2Nzc5NjYxMDE2OTQ5MTUxLDM5LjMyMjAzMzg5ODMwNTA3LDApIi8+PHVzZSB4bGluazpocmVmPSIjYm8iIHRyYW5zZm9ybT0ibWF0cml4KDAuMDY3Nzk2NjEwMTY5NDkxNTEsMCwwLDAuMDY3Nzk2NjEwMTY5NDkxNTEsNTIuODgxMzU1OTMyMjAzMzgsMCkiLz48dXNlIHhsaW5rOmhyZWY9IiNibyIgdHJhbnNmb3JtPSJtYXRyaXgoMC4wNjc3OTY2MTAxNjk0OTE1MSwwLDAsMC4wNjc3OTY2MTAxNjk0OTE1MSw1OC4yMzcyODgxMzU1OTMyMDQsMCkiLz48dXNlIHhsaW5rOmhyZWY9IiNhVCIgdHJhbnNmb3JtPSJtYXRyaXgoMC4wNjc3OTY2MTAxNjk0OTE1MSwwLDAsMC4wNjc3OTY2MTAxNjk0OTE1MSw2My41OTMyMjAzMzg5ODMwMywwKSIvPjx1c2UgeGxpbms6aHJlZj0iI2J2IiB0cmFuc2Zvcm09Im1hdHJpeCgwLjA2Nzc5NjYxMDE2OTQ5MTUxLDAsMCwwLjA2Nzc5NjYxMDE2OTQ5MTUxLDc3LjE1MjU0MjM3Mjg4MTMzLDApIi8+PC9nPjxnIGlkPSJIIj48dXNlIHhsaW5rOmhyZWY9IiNidCIgdHJhbnNmb3JtPSJtYXRyaXgoMC4wNjc3OTY2MTAxNjk0OTE1MSwwLDAsMC4wNjc3OTY2MTAxNjk0OTE1MSwwLDApIi8+PHVzZSB4bGluazpocmVmPSIjYmciIHRyYW5zZm9ybT0ibWF0cml4KDAuMDY3Nzk2NjEwMTY5NDkxNTEsMCwwLDAuMDY3Nzk2NjEwMTY5NDkxNTEsMTQuODQ3NDU3NjI3MTE4NjQ0LDApIi8+PHVzZSB4bGluazpocmVmPSIjYmQiIHRyYW5zZm9ybT0ibWF0cml4KDAuMDY3Nzk2NjEwMTY5NDkxNTEsMCwwLDAuMDY3Nzk2NjEwMTY5NDkxNTEsMjguNDA2Nzc5NjYxMDE2OTQ1LDApIi8+PC9nPjxwYXRoIGlkPSJiRSIgZD0iTTMwLTI0OGMxMTgtNyAyMTYgOCAyMTMgMTIyQzI0MC00OCAyMDAgMCAxMjIgMEgzMHYtMjQ4ek02My0yN2M4OSA4IDE0Ni0xNiAxNDYtOTlzLTYwLTEwMS0xNDYtOTV2MTk0IiBmaWxsPSIjM2E0MTRhIi8+PGcgaWQ9IkkiPjx1c2UgeGxpbms6aHJlZj0iI2JEIiB0cmFuc2Zvcm09Im1hdHJpeCgwLjA2Nzc5NjYxMDE2OTQ5MTUxLDAsMCwwLjA2Nzc5NjYxMDE2OTQ5MTUxLDAsMCkiLz48dXNlIHhsaW5rOmhyZWY9IiNiRSIgdHJhbnNmb3JtPSJtYXRyaXgoMC4wNjc3OTY2MTAxNjk0OTE1MSwwLDAsMC4wNjc3OTY2MTAxNjk0OTE1MSw2Ljc3OTY2MTAxNjk0OTE1MSwwKSIvPjx1c2UgeGxpbms6aHJlZj0iI2JsIiB0cmFuc2Zvcm09Im1hdHJpeCgwLjA2Nzc5NjYxMDE2OTQ5MTUxLDAsMCwwLjA2Nzc5NjYxMDE2OTQ5MTUxLDI0LjMzODk4MzA1MDg0NzQ1MywwKSIvPjx1c2UgeGxpbms6aHJlZj0iI2FZIiB0cmFuc2Zvcm09Im1hdHJpeCgwLjA2Nzc5NjYxMDE2OTQ5MTUxLDAsMCwwLjA2Nzc5NjYxMDE2OTQ5MTUxLDQwLjYxMDE2OTQ5MTUyNTQyLDApIi8+PHVzZSB4bGluazpocmVmPSIjYkQiIHRyYW5zZm9ybT0ibWF0cml4KDAuMDY3Nzk2NjEwMTY5NDkxNTEsMCwwLDAuMDY3Nzk2NjEwMTY5NDkxNTEsNDcuMzg5ODMwNTA4NDc0NTc0LDApIi8+PHVzZSB4bGluazpocmVmPSIjYmYiIHRyYW5zZm9ybT0ibWF0cml4KDAuMDY3Nzk2NjEwMTY5NDkxNTEsMCwwLDAuMDY3Nzk2NjEwMTY5NDkxNTEsNTQuMTY5NDkxNTI1NDIzNzMsMCkiLz48dXNlIHhsaW5rOmhyZWY9IiNibCIgdHJhbnNmb3JtPSJtYXRyaXgoMC4wNjc3OTY2MTAxNjk0OTE1MSwwLDAsMC4wNjc3OTY2MTAxNjk0OTE1MSw3MC40NDA2Nzc5NjYxMDE3LDApIi8+PC9nPjxwYXRoIGlkPSJiRiIgZD0iTTE0NS0zMUMxMzQtOSAxMTYgNCA4NSA0IDMyIDQgMTYtMzUgMTUtOTRjMC01OSAxNy05OSA3MC0xMDAgMzItMSA0OCAxNCA2MCAzMyAwLTExLTEtMjQgMi0zMmgzMGwtMSAyNjhoLTMyek05My0yMWM0MSAwIDUxLTMzIDUxLTc2cy04LTczLTUwLTczYy00MCAwLTQ2IDM1LTQ2IDc1czUgNzQgNDUgNzQiIGZpbGw9IiMzYTQxNGEiLz48ZyBpZD0iSiI+PHVzZSB4bGluazpocmVmPSIjYmQiIHRyYW5zZm9ybT0ibWF0cml4KDAuMDY3Nzk2NjEwMTY5NDkxNTEsMCwwLDAuMDY3Nzk2NjEwMTY5NDkxNTEsMCwwKSIvPjx1c2UgeGxpbms6aHJlZj0iI2FUIiB0cmFuc2Zvcm09Im1hdHJpeCgwLjA2Nzc5NjYxMDE2OTQ5MTUxLDAsMCwwLjA2Nzc5NjYxMDE2OTQ5MTUxLDguMDY3Nzk2NjEwMTY5NDkxLDApIi8+PHVzZSB4bGluazpocmVmPSIjYkYiIHRyYW5zZm9ybT0ibWF0cml4KDAuMDY3Nzk2NjEwMTY5NDkxNTEsMCwwLDAuMDY3Nzk2NjEwMTY5NDkxNTEsMjEuNjI3MTE4NjQ0MDY3Nzk2LDApIi8+PHVzZSB4bGluazpocmVmPSIjYnMiIHRyYW5zZm9ybT0ibWF0cml4KDAuMDY3Nzk2NjEwMTY5NDkxNTEsMCwwLDAuMDY3Nzk2NjEwMTY5NDkxNTEsMzUuMTg2NDQwNjc3OTY2MSwwKSIvPjx1c2UgeGxpbms6aHJlZj0iI2JuIiB0cmFuc2Zvcm09Im1hdHJpeCgwLjA2Nzc5NjYxMDE2OTQ5MTUxLDAsMCwwLjA2Nzc5NjYxMDE2OTQ5MTUxLDQ4Ljc0NTc2MjcxMTg2NDQsMCkiLz48dXNlIHhsaW5rOmhyZWY9IiNiZCIgdHJhbnNmb3JtPSJtYXRyaXgoMC4wNjc3OTY2MTAxNjk0OTE1MSwwLDAsMC4wNjc3OTY2MTAxNjk0OTE1MSw1NC4xMDE2OTQ5MTUyNTQyMywwKSIvPjx1c2UgeGxpbms6aHJlZj0iI2FUIiB0cmFuc2Zvcm09Im1hdHJpeCgwLjA2Nzc5NjYxMDE2OTQ5MTUxLDAsMCwwLjA2Nzc5NjYxMDE2OTQ5MTUxLDYyLjE2OTQ5MTUyNTQyMzcxNiwwKSIvPjx1c2UgeGxpbms6aHJlZj0iI2JBIiB0cmFuc2Zvcm09Im1hdHJpeCgwLjA2Nzc5NjYxMDE2OTQ5MTUxLDAsMCwwLjA2Nzc5NjYxMDE2OTQ5MTUxLDc1LjcyODgxMzU1OTMyMjAyLDApIi8+PHVzZSB4bGluazpocmVmPSIjYVQiIHRyYW5zZm9ybT0ibWF0cml4KDAuMDY3Nzk2NjEwMTY5NDkxNTEsMCwwLDAuMDY3Nzk2NjEwMTY5NDkxNTEsOTUuOTk5OTk5OTk5OTk5OTksMCkiLz48dXNlIHhsaW5rOmhyZWY9IiNicCIgdHJhbnNmb3JtPSJtYXRyaXgoMC4wNjc3OTY2MTAxNjk0OTE1MSwwLDAsMC4wNjc3OTY2MTAxNjk0OTE1MSwxMDkuNTU5MzIyMDMzODk4MjgsMCkiLz48dXNlIHhsaW5rOmhyZWY9IiNicSIgdHJhbnNmb3JtPSJtYXRyaXgoMC4wNjc3OTY2MTAxNjk0OTE1MSwwLDAsMC4wNjc3OTY2MTAxNjk0OTE1MSwxMjMuMTE4NjQ0MDY3Nzk2NiwwKSIvPjwvZz48ZyBpZD0iSyI+PHVzZSB4bGluazpocmVmPSIjYmciIHRyYW5zZm9ybT0ibWF0cml4KDAuMDY3Nzk2NjEwMTY5NDkxNTEsMCwwLDAuMDY3Nzk2NjEwMTY5NDkxNTEsMCwwKSIvPjx1c2UgeGxpbms6aHJlZj0iI2JtIiB0cmFuc2Zvcm09Im1hdHJpeCgwLjA2Nzc5NjYxMDE2OTQ5MTUxLDAsMCwwLjA2Nzc5NjYxMDE2OTQ5MTUxLDEzLjU1OTMyMjAzMzg5ODMwMywwKSIvPjwvZz48cGF0aCBpZD0iYkciIGQ9Ik0yMTItMTc5Yy0xMC0yOC0zNS00NS03My00NS01OSAwLTg3IDQwLTg3IDk5IDAgNjAgMjkgMTAxIDg5IDEwMSA0MyAwIDYyLTI0IDc4LTUybDI3IDE0QzIyOC0yNCAxOTUgNCAxMzkgNCA1OSA0IDIyLTQ2IDE4LTEyNWMtNi0xMDQgOTktMTUzIDE4Ny0xMTEgMTkgOSAzMSAyNiAzOSA0NiIgZmlsbD0iIzNhNDE0YSIvPjxwYXRoIGlkPSJiSCIgZD0iTTYzLTcwSDM3bC00LTE3OGgzNHpNMzMgMHYtMzVoMzRWMEgzMyIgZmlsbD0iIzNhNDE0YSIvPjxnIGlkPSJMIj48dXNlIHhsaW5rOmhyZWY9IiNiZiIgdHJhbnNmb3JtPSJtYXRyaXgoMC4wNjc3OTY2MTAxNjk0OTE1MSwwLDAsMC4wNjc3OTY2MTAxNjk0OTE1MSwwLDApIi8+PHVzZSB4bGluazpocmVmPSIjYkciIHRyYW5zZm9ybT0ibWF0cml4KDAuMDY3Nzk2NjEwMTY5NDkxNTEsMCwwLDAuMDY3Nzk2NjEwMTY5NDkxNTEsMTYuMjcxMTg2NDQwNjc3OTY1LDApIi8+PHVzZSB4bGluazpocmVmPSIjYkQiIHRyYW5zZm9ybT0ibWF0cml4KDAuMDY3Nzk2NjEwMTY5NDkxNTEsMCwwLDAuMDY3Nzk2NjEwMTY5NDkxNTEsMzMuODMwNTA4NDc0NTc2MjcsMCkiLz48dXNlIHhsaW5rOmhyZWY9IiNiRSIgdHJhbnNmb3JtPSJtYXRyaXgoMC4wNjc3OTY2MTAxNjk0OTE1MSwwLDAsMC4wNjc3OTY2MTAxNjk0OTE1MSw0MC42MTAxNjk0OTE1MjU0MiwwKSIvPjx1c2UgeGxpbms6aHJlZj0iI2JsIiB0cmFuc2Zvcm09Im1hdHJpeCgwLjA2Nzc5NjYxMDE2OTQ5MTUxLDAsMCwwLjA2Nzc5NjYxMDE2OTQ5MTUxLDU4LjE2OTQ5MTUyNTQyMzcxNiwwKSIvPjx1c2UgeGxpbms6aHJlZj0iI2JsIiB0cmFuc2Zvcm09Im1hdHJpeCgwLjA2Nzc5NjYxMDE2OTQ5MTUxLDAsMCwwLjA2Nzc5NjYxMDE2OTQ5MTUxLDc0LjQ0MDY3Nzk2NjEwMTY3LDApIi8+PHVzZSB4bGluazpocmVmPSIjYkgiIHRyYW5zZm9ybT0ibWF0cml4KDAuMDY3Nzk2NjEwMTY5NDkxNTEsMCwwLDAuMDY3Nzk2NjEwMTY5NDkxNTEsOTAuNzExODY0NDA2Nzc5NjQsMCkiLz48dXNlIHhsaW5rOmhyZWY9IiNiSCIgdHJhbnNmb3JtPSJtYXRyaXgoMC4wNjc3OTY2MTAxNjk0OTE1MSwwLDAsMC4wNjc3OTY2MTAxNjk0OTE1MSw5Ny40OTE1MjU0MjM3Mjg4LDApIi8+PC9nPjxwYXR0ZXJuIGhlaWdodD0iMTc5LjA1IiB3aWR0aD0iMTkzLjAyIiB5PSI2NjguMDMiIHg9IjEyNDIuMzciIHBhdHRlcm5Vbml0cz0idXNlclNwYWNlT25Vc2UiIGlkPSJNIj48dXNlIHRyYW5zZm9ybT0idHJhbnNsYXRlKDAsIDApIHNjYWxlKDE5LjMwMTU4NzMwMTU4NzMsMTcuOTA0NzYxOTA0NzYxOTA1KSIgeGxpbms6aHJlZj0iI2JJIi8+PC9wYXR0ZXJuPjxsaW5lYXJHcmFkaWVudCB5Mj0iODI4LjAzIiB4Mj0iMTI1OC44OCIgeTE9IjY2OC4wMyIgeDE9IjEyNTguODgiIGlkPSJOIiBncmFkaWVudFVuaXRzPSJ1c2VyU3BhY2VPblVzZSI+PHN0b3Agc3RvcC1jb2xvcj0iI2Y5ZTZhNSIgb2Zmc2V0PSIwJSIvPjxzdG9wIHN0b3AtY29sb3I9IiNmZmVjYTkiIG9mZnNldD0iMzAlIi8+PHN0b3Agc3RvcC1jb2xvcj0iI2ZmZWNhOSIgb2Zmc2V0PSIxMDAlIi8+PC9saW5lYXJHcmFkaWVudD48cGF0aCBpZD0iYkoiIGQ9Ik0xOTgtMjYxYzg1IDAgMTM2IDQ1IDEzNiAxMjggMCA2MS0yMiAxMTEtNzggMTE1LTI5IDItMzktMTgtMzctNDQtMTIgMjMtMzIgNDQtNjYgNDQtNDEgMC01OC0yOC01OC02OCAwLTYwIDMwLTEwNSA4OC0xMDggMjktMSA0MyAxNSA1NCAzMmw3LTI4aDI4Yy05IDQ1LTIzIDg0LTI3IDEzNC0xIDExIDYgMTcgMTQgMTYgMzktNCA1MS00OCA1MS05MiAwLTY5LTQyLTEwNy0xMTItMTA3LTkzIDAtMTQ1IDU5LTE0NSAxNTNDNTMtMTUgOTQgMjYgMTY4IDI3YzQzIDAgNzgtMTMgMTA2LTI4bDkgMTljLTMwIDE4LTY3IDMyLTExNSAzMkM3OSA1MCAyOC0xIDI4LTg2YzAtMTA3IDYyLTE3NSAxNzAtMTc1ek0xNTgtNDFjNDYgMCA3MC00MyA3MC05MCAwLTI2LTE3LTQwLTQzLTQwLTQ0IDAtNTkgNDEtNjEgODUtMSAyNiA5IDQ1IDM0IDQ1IiBmaWxsPSIjM2E0MTRhIi8+PHBhdGggaWQ9ImJLIiBkPSJNMzMgMHYtMzhoMzRWMEgzMyIgZmlsbD0iIzNhNDE0YSIvPjxnIGlkPSJPIj48dXNlIHhsaW5rOmhyZWY9IiNicCIgdHJhbnNmb3JtPSJtYXRyaXgoMC4wMzc1NTg2ODU0NDYwMDkzOSwwLDAsMC4wMzc1NTg2ODU0NDYwMDkzOSwwLDApIi8+PHVzZSB4bGluazpocmVmPSIjYmciIHRyYW5zZm9ybT0ibWF0cml4KDAuMDM3NTU4Njg1NDQ2MDA5MzksMCwwLDAuMDM3NTU4Njg1NDQ2MDA5MzksNy41MTE3MzcwODkyMDE4NzgsMCkiLz48dXNlIHhsaW5rOmhyZWY9IiNiZCIgdHJhbnNmb3JtPSJtYXRyaXgoMC4wMzc1NTg2ODU0NDYwMDkzOSwwLDAsMC4wMzc1NTg2ODU0NDYwMDkzOSwxNS4wMjM0NzQxNzg0MDM3NTYsMCkiLz48dXNlIHhsaW5rOmhyZWY9IiNhVCIgdHJhbnNmb3JtPSJtYXRyaXgoMC4wMzc1NTg2ODU0NDYwMDkzOSwwLDAsMC4wMzc1NTg2ODU0NDYwMDkzOSwxOS40OTI5NTc3NDY0Nzg4NzIsMCkiLz48dXNlIHhsaW5rOmhyZWY9IiNhUCIgdHJhbnNmb3JtPSJtYXRyaXgoMC4wMzc1NTg2ODU0NDYwMDkzOSwwLDAsMC4wMzc1NTg2ODU0NDYwMDkzOSwyNy4wMDQ2OTQ4MzU2ODA3NTIsMCkiLz48dXNlIHhsaW5rOmhyZWY9IiNibyIgdHJhbnNmb3JtPSJtYXRyaXgoMC4wMzc1NTg2ODU0NDYwMDkzOSwwLDAsMC4wMzc1NTg2ODU0NDYwMDkzOSwzNC41MTY0MzE5MjQ4ODI2MywwKSIvPjx1c2UgeGxpbms6aHJlZj0iI2JpIiB0cmFuc2Zvcm09Im1hdHJpeCgwLjAzNzU1ODY4NTQ0NjAwOTM5LDAsMCwwLjAzNzU1ODY4NTQ0NjAwOTM5LDM3LjQ4MzU2ODA3NTExNzM3LDApIi8+PHVzZSB4bGluazpocmVmPSIjYkoiIHRyYW5zZm9ybT0ibWF0cml4KDAuMDM3NTU4Njg1NDQ2MDA5MzksMCwwLDAuMDM3NTU4Njg1NDQ2MDA5MzksNDQuMjQ0MTMxNDU1Mzk5MDY0LDApIi8+PHVzZSB4bGluazpocmVmPSIjYkEiIHRyYW5zZm9ybT0ibWF0cml4KDAuMDM3NTU4Njg1NDQ2MDA5MzksMCwwLDAuMDM3NTU4Njg1NDQ2MDA5MzksNTcuOTUzMDUxNjQzMTkyNDksMCkiLz48dXNlIHhsaW5rOmhyZWY9IiNiZyIgdHJhbnNmb3JtPSJtYXRyaXgoMC4wMzc1NTg2ODU0NDYwMDkzOSwwLDAsMC4wMzc1NTg2ODU0NDYwMDkzOSw2OS4xODMwOTg1OTE1NDkzLDApIi8+PHVzZSB4bGluazpocmVmPSIjYVIiIHRyYW5zZm9ybT0ibWF0cml4KDAuMDM3NTU4Njg1NDQ2MDA5MzksMCwwLDAuMDM3NTU4Njg1NDQ2MDA5MzksNzYuNjk0ODM1NjgwNzUxMTcsMCkiLz48dXNlIHhsaW5rOmhyZWY9IiNiZyIgdHJhbnNmb3JtPSJtYXRyaXgoMC4wMzc1NTg2ODU0NDYwMDkzOSwwLDAsMC4wMzc1NTg2ODU0NDYwMDkzOSw4My40NTUzOTkwNjEwMzI4NiwwKSIvPjx1c2UgeGxpbms6aHJlZj0iI2JLIiB0cmFuc2Zvcm09Im1hdHJpeCgwLjAzNzU1ODY4NTQ0NjAwOTM5LDAsMCwwLjAzNzU1ODY4NTQ0NjAwOTM5LDkwLjk2NzEzNjE1MDIzNDc1LDApIi8+PHVzZSB4bGluazpocmVmPSIjYVIiIHRyYW5zZm9ybT0ibWF0cml4KDAuMDM3NTU4Njg1NDQ2MDA5MzksMCwwLDAuMDM3NTU4Njg1NDQ2MDA5MzksOTQuNzIzMDA0Njk0ODM1NjgsMCkiLz48dXNlIHhsaW5rOmhyZWY9IiNiZyIgdHJhbnNmb3JtPSJtYXRyaXgoMC4wMzc1NTg2ODU0NDYwMDkzOSwwLDAsMC4wMzc1NTg2ODU0NDYwMDkzOSwxMDEuNDgzNTY4MDc1MTE3MzgsMCkiLz48dXNlIHhsaW5rOmhyZWY9IiNiQSIgdHJhbnNmb3JtPSJtYXRyaXgoMC4wMzc1NTg2ODU0NDYwMDkzOSwwLDAsMC4wMzc1NTg2ODU0NDYwMDkzOSwxMDguOTk1MzA1MTY0MzE5MjYsMCkiLz48dXNlIHhsaW5rOmhyZWY9IiNiSyIgdHJhbnNmb3JtPSJtYXRyaXgoMC4wMzc1NTg2ODU0NDYwMDkzOSwwLDAsMC4wMzc1NTg2ODU0NDYwMDkzOSwxMjAuMjI1MzUyMTEyNjc2MDYsMCkiLz48dXNlIHhsaW5rOmhyZWY9IiNicCIgdHJhbnNmb3JtPSJtYXRyaXgoMC4wMzc1NTg2ODU0NDYwMDkzOSwwLDAsMC4wMzc1NTg2ODU0NDYwMDkzOSwxMjMuOTgxMjIwNjU3Mjc2OTksMCkiLz48dXNlIHhsaW5rOmhyZWY9IiNhUCIgdHJhbnNmb3JtPSJtYXRyaXgoMC4wMzc1NTg2ODU0NDYwMDkzOSwwLDAsMC4wMzc1NTg2ODU0NDYwMDkzOSwxMzEuNDkyOTU3NzQ2NDc4ODgsMCkiLz48L2c+PHBhdGggaWQ9ImJMIiBkPSJNMTkwIDBMNTgtMjExIDU5IDBIMzB2LTI0OGgzOUwyMDItMzVsLTItMjEzaDMxVjBoLTQxIiBmaWxsPSIjM2E0MTRhIi8+PGcgaWQ9IlAiPjx1c2UgeGxpbms6aHJlZj0iI2JMIiB0cmFuc2Zvcm09Im1hdHJpeCgwLjAzNzU1ODY4NTQ0NjAwOTM5LDAsMCwwLjAzNzU1ODY4NTQ0NjAwOTM5LDAsMCkiLz48dXNlIHhsaW5rOmhyZWY9IiNiZyIgdHJhbnNmb3JtPSJtYXRyaXgoMC4wMzc1NTg2ODU0NDYwMDkzOSwwLDAsMC4wMzc1NTg2ODU0NDYwMDkzOSw5LjcyNzY5OTUzMDUxNjQzMiwwKSIvPjx1c2UgeGxpbms6aHJlZj0iI2JwIiB0cmFuc2Zvcm09Im1hdHJpeCgwLjAzNzU1ODY4NTQ0NjAwOTM5LDAsMCwwLjAzNzU1ODY4NTQ0NjAwOTM5LDE3LjIzOTQzNjYxOTcxODMwOCwwKSIvPjwvZz48ZyBpZD0iUSI+PHVzZSB4bGluazpocmVmPSIjYU8iIHRyYW5zZm9ybT0ibWF0cml4KDAuMDM3NTU4Njg1NDQ2MDA5MzksMCwwLDAuMDM3NTU4Njg1NDQ2MDA5MzksMCwwKSIvPjx1c2UgeGxpbms6aHJlZj0iI2JzIiB0cmFuc2Zvcm09Im1hdHJpeCgwLjAzNzU1ODY4NTQ0NjAwOTM5LDAsMCwwLjAzNzU1ODY4NTQ0NjAwOTM5LDkuMDE0MDg0NTA3MDQyMjU0LDApIi8+PHVzZSB4bGluazpocmVmPSIjYnEiIHRyYW5zZm9ybT0ibWF0cml4KDAuMDM3NTU4Njg1NDQ2MDA5MzksMCwwLDAuMDM3NTU4Njg1NDQ2MDA5MzksMTYuNTI1ODIxNTk2MjQ0MTMyLDApIi8+PHVzZSB4bGluazpocmVmPSIjYVMiIHRyYW5zZm9ybT0ibWF0cml4KDAuMDM3NTU4Njg1NDQ2MDA5MzksMCwwLDAuMDM3NTU4Njg1NDQ2MDA5MzksMjAuMjgxNjkwMTQwODQ1MDcsMCkiLz48dXNlIHhsaW5rOmhyZWY9IiNhVCIgdHJhbnNmb3JtPSJtYXRyaXgoMC4wMzc1NTg2ODU0NDYwMDkzOSwwLDAsMC4wMzc1NTg2ODU0NDYwMDkzOSwyNy43OTM0MjcyMzAwNDY5NDgsMCkiLz48dXNlIHhsaW5rOmhyZWY9IiNicCIgdHJhbnNmb3JtPSJtYXRyaXgoMC4wMzc1NTg2ODU0NDYwMDkzOSwwLDAsMC4wMzc1NTg2ODU0NDYwMDkzOSwzNS4zMDUxNjQzMTkyNDg4MjQsMCkiLz48dXNlIHhsaW5rOmhyZWY9IiNicSIgdHJhbnNmb3JtPSJtYXRyaXgoMC4wMzc1NTg2ODU0NDYwMDkzOSwwLDAsMC4wMzc1NTg2ODU0NDYwMDkzOSw0Mi44MTY5MDE0MDg0NTA3LDApIi8+PHVzZSB4bGluazpocmVmPSIjYm4iIHRyYW5zZm9ybT0ibWF0cml4KDAuMDM3NTU4Njg1NDQ2MDA5MzksMCwwLDAuMDM3NTU4Njg1NDQ2MDA5MzksNDYuNTcyNzY5OTUzMDUxNjUsMCkiLz48dXNlIHhsaW5rOmhyZWY9IiNhUiIgdHJhbnNmb3JtPSJtYXRyaXgoMC4wMzc1NTg2ODU0NDYwMDkzOSwwLDAsMC4wMzc1NTg2ODU0NDYwMDkzOSw0OS41Mzk5MDYxMDMyODYzOCwwKSIvPjx1c2UgeGxpbms6aHJlZj0iI2FRIiB0cmFuc2Zvcm09Im1hdHJpeCgwLjAzNzU1ODY4NTQ0NjAwOTM5LDAsMCwwLjAzNzU1ODY4NTQ0NjAwOTM5LDU2LjMwMDQ2OTQ4MzU2ODA2NSwwKSIvPjx1c2UgeGxpbms6aHJlZj0iI2JxIiB0cmFuc2Zvcm09Im1hdHJpeCgwLjAzNzU1ODY4NTQ0NjAwOTM5LDAsMCwwLjAzNzU1ODY4NTQ0NjAwOTM5LDYzLjgxMjIwNjU3Mjc2OTk1LDApIi8+PHVzZSB4bGluazpocmVmPSIjYVQiIHRyYW5zZm9ybT0ibWF0cml4KDAuMDM3NTU4Njg1NDQ2MDA5MzksMCwwLDAuMDM3NTU4Njg1NDQ2MDA5MzksNjcuNTY4MDc1MTE3MzcwOSwwKSIvPjx1c2UgeGxpbms6aHJlZj0iI2J2IiB0cmFuc2Zvcm09Im1hdHJpeCgwLjAzNzU1ODY4NTQ0NjAwOTM5LDAsMCwwLjAzNzU1ODY4NTQ0NjAwOTM5LDc1LjA3OTgxMjIwNjU3Mjc3LDApIi8+PC9nPjxnIGlkPSJSIj48dXNlIHhsaW5rOmhyZWY9IiNiRCIgdHJhbnNmb3JtPSJtYXRyaXgoMC4wMzc1NTg2ODU0NDYwMDkzOSwwLDAsMC4wMzc1NTg2ODU0NDYwMDkzOSwwLDApIi8+PHVzZSB4bGluazpocmVmPSIjYnAiIHRyYW5zZm9ybT0ibWF0cml4KDAuMDM3NTU4Njg1NDQ2MDA5MzksMCwwLDAuMDM3NTU4Njg1NDQ2MDA5MzksMy43NTU4Njg1NDQ2MDA5MzksMCkiLz48dXNlIHhsaW5rOmhyZWY9IiNicSIgdHJhbnNmb3JtPSJtYXRyaXgoMC4wMzc1NTg2ODU0NDYwMDkzOSwwLDAsMC4wMzc1NTg2ODU0NDYwMDkzOSwxMS4yNjc2MDU2MzM4MDI4MTgsMCkiLz48dXNlIHhsaW5rOmhyZWY9IiNhVCIgdHJhbnNmb3JtPSJtYXRyaXgoMC4wMzc1NTg2ODU0NDYwMDkzOSwwLDAsMC4wMzc1NTg2ODU0NDYwMDkzOSwxNS4wMjM0NzQxNzg0MDM3NTYsMCkiLz48dXNlIHhsaW5rOmhyZWY9IiNiZCIgdHJhbnNmb3JtPSJtYXRyaXgoMC4wMzc1NTg2ODU0NDYwMDkzOSwwLDAsMC4wMzc1NTg2ODU0NDYwMDkzOSwyMi41MzUyMTEyNjc2MDU2MzYsMCkiLz48dXNlIHhsaW5rOmhyZWY9IiNicCIgdHJhbnNmb3JtPSJtYXRyaXgoMC4wMzc1NTg2ODU0NDYwMDkzOSwwLDAsMC4wMzc1NTg2ODU0NDYwMDkzOSwyNy4wMDQ2OTQ4MzU2ODA3NTIsMCkiLz48dXNlIHhsaW5rOmhyZWY9IiNhUSIgdHJhbnNmb3JtPSJtYXRyaXgoMC4wMzc1NTg2ODU0NDYwMDkzOSwwLDAsMC4wMzc1NTg2ODU0NDYwMDkzOSwzNC41MTY0MzE5MjQ4ODI2MywwKSIvPjx1c2UgeGxpbms6aHJlZj0iI2JvIiB0cmFuc2Zvcm09Im1hdHJpeCgwLjAzNzU1ODY4NTQ0NjAwOTM5LDAsMCwwLjAzNzU1ODY4NTQ0NjAwOTM5LDQyLjAyODE2OTAxNDA4NDUxLDApIi8+PHVzZSB4bGluazpocmVmPSIjYm8iIHRyYW5zZm9ybT0ibWF0cml4KDAuMDM3NTU4Njg1NDQ2MDA5MzksMCwwLDAuMDM3NTU4Njg1NDQ2MDA5MzksNDQuOTk1MzA1MTY0MzE5MjUsMCkiLz48dXNlIHhsaW5rOmhyZWY9IiNiaSIgdHJhbnNmb3JtPSJtYXRyaXgoMC4wMzc1NTg2ODU0NDYwMDkzOSwwLDAsMC4wMzc1NTg2ODU0NDYwMDkzOSw0Ny45NjI0NDEzMTQ1NTM5OSwwKSIvPjwvZz48ZyBpZD0iUyI+PHVzZSB4bGluazpocmVmPSIjYmIiIHRyYW5zZm9ybT0ibWF0cml4KDAuMDM3NTU4Njg1NDQ2MDA5MzksMCwwLDAuMDM3NTU4Njg1NDQ2MDA5MzksMCwwKSIvPjx1c2UgeGxpbms6aHJlZj0iI2JnIiB0cmFuc2Zvcm09Im1hdHJpeCgwLjAzNzU1ODY4NTQ0NjAwOTM5LDAsMCwwLjAzNzU1ODY4NTQ0NjAwOTM5LDkuNzI3Njk5NTMwNTE2NDMyLDApIi8+PHVzZSB4bGluazpocmVmPSIjYnMiIHRyYW5zZm9ybT0ibWF0cml4KDAuMDM3NTU4Njg1NDQ2MDA5MzksMCwwLDAuMDM3NTU4Njg1NDQ2MDA5MzksMTcuMjM5NDM2NjE5NzE4MzA4LDApIi8+PHVzZSB4bGluazpocmVmPSIjYnEiIHRyYW5zZm9ybT0ibWF0cml4KDAuMDM3NTU4Njg1NDQ2MDA5MzksMCwwLDAuMDM3NTU4Njg1NDQ2MDA5MzksMjQuNzUxMTczNzA4OTIwMTg4LDApIi8+PHVzZSB4bGluazpocmVmPSIjYVQiIHRyYW5zZm9ybT0ibWF0cml4KDAuMDM3NTU4Njg1NDQ2MDA5MzksMCwwLDAuMDM3NTU4Njg1NDQ2MDA5MzksMjguNTA3MDQyMjUzNTIxMTI0LDApIi8+PHVzZSB4bGluazpocmVmPSIjYnYiIHRyYW5zZm9ybT0ibWF0cml4KDAuMDM3NTU4Njg1NDQ2MDA5MzksMCwwLDAuMDM3NTU4Njg1NDQ2MDA5MzksMzYuMDE4Nzc5MzQyNzIzLDApIi8+PC9nPjxwYXR0ZXJuIGhlaWdodD0iMTc5LjA1IiB3aWR0aD0iMTkzLjAyIiB5PSI2NTUuODEiIHg9Ijg4Mi4zNyIgcGF0dGVyblVuaXRzPSJ1c2VyU3BhY2VPblVzZSIgaWQ9IlQiPjx1c2UgdHJhbnNmb3JtPSJ0cmFuc2xhdGUoMCwgMCkgc2NhbGUoMTkuMzAxNTg3MzAxNTg3MywxNy45MDQ3NjE5MDQ3NjE5MDUpIiB4bGluazpocmVmPSIjYk0iLz48L3BhdHRlcm4+PGxpbmVhckdyYWRpZW50IHkyPSI4MTUuODEiIHgyPSI4OTguODgiIHkxPSI2NTUuODEiIHgxPSI4OTguODgiIGlkPSJVIiBncmFkaWVudFVuaXRzPSJ1c2VyU3BhY2VPblVzZSI+PHN0b3Agc3RvcC1jb2xvcj0iI2Y5ZTZhNSIgb2Zmc2V0PSIwJSIvPjxzdG9wIHN0b3AtY29sb3I9IiNmZmVjYTkiIG9mZnNldD0iMzAlIi8+PHN0b3Agc3RvcC1jb2xvcj0iI2ZmZWNhOSIgb2Zmc2V0PSIxMDAlIi8+PC9saW5lYXJHcmFkaWVudD48cGF0aCBpZD0iYk4iIGQ9Ik0yNyAwdi0yN2g2NHYtMTkwbC01NiAzOXYtMjlsNTgtNDFoMjl2MjIxaDYxVjBIMjciIGZpbGw9IiMzYTQxNGEiLz48ZyBpZD0iViI+PHVzZSB4bGluazpocmVmPSIjYk4iIHRyYW5zZm9ybT0ibWF0cml4KDAuMDY3Nzk2NjEwMTY5NDkxNTEsMCwwLDAuMDY3Nzk2NjEwMTY5NDkxNTEsMCwwKSIvPjx1c2UgeGxpbms6aHJlZj0iI2JLIiB0cmFuc2Zvcm09Im1hdHJpeCgwLjA2Nzc5NjYxMDE2OTQ5MTUxLDAsMCwwLjA2Nzc5NjYxMDE2OTQ5MTUxLDEzLjU1OTMyMjAzMzg5ODMwMywwKSIvPjwvZz48cGF0aCBpZD0iYk8iIGQ9Ik0xMjctMjIwVjBIOTN2LTIyMEg4di0yOGgyMDR2MjhoLTg1IiBmaWxsPSIjM2E0MTRhIi8+PGcgaWQ9IlciPjx1c2UgeGxpbms6aHJlZj0iI2JPIiB0cmFuc2Zvcm09Im1hdHJpeCgwLjA2Nzc5NjYxMDE2OTQ5MTUxLDAsMCwwLjA2Nzc5NjYxMDE2OTQ5MTUxLDAsMCkiLz48dXNlIHhsaW5rOmhyZWY9IiNiaCIgdHJhbnNmb3JtPSJtYXRyaXgoMC4wNjc3OTY2MTAxNjk0OTE1MSwwLDAsMC4wNjc3OTY2MTAxNjk0OTE1MSwxNC44NDc0NTc2MjcxMTg2NDQsMCkiLz48dXNlIHhsaW5rOmhyZWY9IiNicCIgdHJhbnNmb3JtPSJtYXRyaXgoMC4wNjc3OTY2MTAxNjk0OTE1MSwwLDAsMC4wNjc3OTY2MTAxNjk0OTE1MSwyNy4wNTA4NDc0NTc2MjcxMTQsMCkiLz48L2c+PGcgaWQ9IlgiPjx1c2UgeGxpbms6aHJlZj0iI2JiIiB0cmFuc2Zvcm09Im1hdHJpeCgwLjA2Nzc5NjYxMDE2OTQ5MTUxLDAsMCwwLjA2Nzc5NjYxMDE2OTQ5MTUxLDAsMCkiLz48dXNlIHhsaW5rOmhyZWY9IiNhUSIgdHJhbnNmb3JtPSJtYXRyaXgoMC4wNjc3OTY2MTAxNjk0OTE1MSwwLDAsMC4wNjc3OTY2MTAxNjk0OTE1MSwxNy41NTkzMjIwMzM4OTgzMDQsMCkiLz48dXNlIHhsaW5rOmhyZWY9IiNicSIgdHJhbnNmb3JtPSJtYXRyaXgoMC4wNjc3OTY2MTAxNjk0OTE1MSwwLDAsMC4wNjc3OTY2MTAxNjk0OTE1MSwzMS4xMTg2NDQwNjc3OTY2MDUsMCkiLz48dXNlIHhsaW5rOmhyZWY9IiNhVCIgdHJhbnNmb3JtPSJtYXRyaXgoMC4wNjc3OTY2MTAxNjk0OTE1MSwwLDAsMC4wNjc3OTY2MTAxNjk0OTE1MSwzNy44OTgzMDUwODQ3NDU3NiwwKSIvPjwvZz48cGF0aCBpZD0iYlAiIGQ9Ik0zMCAwdi0yNDhoMzN2MjIxaDEyNVYwSDMwIiBmaWxsPSIjM2E0MTRhIi8+PHBhdGggaWQ9ImJRIiBkPSJNMTc3LTE5MEMxNjctNjUgMjE4IDEwMyA2NyA3MWMtMjMtNi0zOC0yMC00NC00M2wzMi01YzE1IDQ3IDEwMCAzMiA4OS0yOHYtMzBDMTMzLTE0IDExNSAxIDgzIDEgMjkgMSAxNS00MCAxNS05NWMwLTU2IDE2LTk3IDcxLTk4IDI5LTEgNDggMTYgNTkgMzUgMS0xMCAwLTIzIDItMzJoMzB6TTk0LTIyYzM2IDAgNTAtMzIgNTAtNzMgMC00Mi0xNC03NS01MC03NS0zOSAwLTQ2IDM0LTQ2IDc1czYgNzMgNDYgNzMiIGZpbGw9IiMzYTQxNGEiLz48ZyBpZD0iWSI+PHVzZSB4bGluazpocmVmPSIjYlAiIHRyYW5zZm9ybT0ibWF0cml4KDAuMDY3Nzk2NjEwMTY5NDkxNTEsMCwwLDAuMDY3Nzk2NjEwMTY5NDkxNTEsMCwwKSIvPjx1c2UgeGxpbms6aHJlZj0iI2JuIiB0cmFuc2Zvcm09Im1hdHJpeCgwLjA2Nzc5NjYxMDE2OTQ5MTUxLDAsMCwwLjA2Nzc5NjYxMDE2OTQ5MTUxLDEzLjU1OTMyMjAzMzg5ODMwMywwKSIvPjx1c2UgeGxpbms6aHJlZj0iI2JBIiB0cmFuc2Zvcm09Im1hdHJpeCgwLjA2Nzc5NjYxMDE2OTQ5MTUxLDAsMCwwLjA2Nzc5NjYxMDE2OTQ5MTUxLDE4LjkxNTI1NDIzNzI4ODEzLDApIi8+PHVzZSB4bGluazpocmVmPSIjYm4iIHRyYW5zZm9ybT0ibWF0cml4KDAuMDY3Nzk2NjEwMTY5NDkxNTEsMCwwLDAuMDY3Nzk2NjEwMTY5NDkxNTEsMzkuMTg2NDQwNjc3OTY2MDgsMCkiLz48dXNlIHhsaW5rOmhyZWY9IiNicSIgdHJhbnNmb3JtPSJtYXRyaXgoMC4wNjc3OTY2MTAxNjk0OTE1MSwwLDAsMC4wNjc3OTY2MTAxNjk0OTE1MSw0NC41NDIzNzI4ODEzNTU5MiwwKSIvPjx1c2UgeGxpbms6aHJlZj0iI2JuIiB0cmFuc2Zvcm09Im1hdHJpeCgwLjA2Nzc5NjYxMDE2OTQ5MTUxLDAsMCwwLjA2Nzc5NjYxMDE2OTQ5MTUxLDUxLjMyMjAzMzg5ODMwNTA3LDApIi8+PHVzZSB4bGluazpocmVmPSIjYnAiIHRyYW5zZm9ybT0ibWF0cml4KDAuMDY3Nzk2NjEwMTY5NDkxNTEsMCwwLDAuMDY3Nzk2NjEwMTY5NDkxNTEsNTYuNjc3OTY2MTAxNjk0OSwwKSIvPjx1c2UgeGxpbms6aHJlZj0iI2JRIiB0cmFuc2Zvcm09Im1hdHJpeCgwLjA2Nzc5NjYxMDE2OTQ5MTUxLDAsMCwwLjA2Nzc5NjYxMDE2OTQ5MTUxLDcwLjIzNzI4ODEzNTU5MzIyLDApIi8+PC9nPjxnIGlkPSJaIj48dXNlIHhsaW5rOmhyZWY9IiNhVSIgdHJhbnNmb3JtPSJtYXRyaXgoMC4wNjc3OTY2MTAxNjk0OTE1MSwwLDAsMC4wNjc3OTY2MTAxNjk0OTE1MSwwLDApIi8+PHVzZSB4bGluazpocmVmPSIjYksiIHRyYW5zZm9ybT0ibWF0cml4KDAuMDY3Nzk2NjEwMTY5NDkxNTEsMCwwLDAuMDY3Nzk2NjEwMTY5NDkxNTEsMTMuNTU5MzIyMDMzODk4MzAzLDApIi8+PC9nPjxnIGlkPSJhYSI+PHVzZSB4bGluazpocmVmPSIjYkUiIHRyYW5zZm9ybT0ibWF0cml4KDAuMDY3Nzk2NjEwMTY5NDkxNTEsMCwwLDAuMDY3Nzk2NjEwMTY5NDkxNTEsMCwwKSIvPjx1c2UgeGxpbms6aHJlZj0iI2JFIiB0cmFuc2Zvcm09Im1hdHJpeCgwLjA2Nzc5NjYxMDE2OTQ5MTUxLDAsMCwwLjA2Nzc5NjYxMDE2OTQ5MTUxLDE3LjU1OTMyMjAzMzg5ODMwNCwwKSIvPjx1c2UgeGxpbms6aHJlZj0iI2JnIiB0cmFuc2Zvcm09Im1hdHJpeCgwLjA2Nzc5NjYxMDE2OTQ5MTUxLDAsMCwwLjA2Nzc5NjYxMDE2OTQ5MTUxLDM1LjExODY0NDA2Nzc5NjYxLDApIi8+PHVzZSB4bGluazpocmVmPSIjYmwiIHRyYW5zZm9ybT0ibWF0cml4KDAuMDY3Nzk2NjEwMTY5NDkxNTEsMCwwLDAuMDY3Nzk2NjEwMTY5NDkxNTEsNDguNjc3OTY2MTAxNjk0OTA2LDApIi8+PC9nPjxnIGlkPSJhYiI+PHVzZSB4bGluazpocmVmPSIjYmYiIHRyYW5zZm9ybT0ibWF0cml4KDAuMDY3Nzk2NjEwMTY5NDkxNTEsMCwwLDAuMDY3Nzk2NjEwMTY5NDkxNTEsMCwwKSIvPjx1c2UgeGxpbms6aHJlZj0iI2JkIiB0cmFuc2Zvcm09Im1hdHJpeCgwLjA2Nzc5NjYxMDE2OTQ5MTUxLDAsMCwwLjA2Nzc5NjYxMDE2OTQ5MTUxLDE2LjI3MTE4NjQ0MDY3Nzk2NSwwKSIvPjx1c2UgeGxpbms6aHJlZj0iI2FUIiB0cmFuc2Zvcm09Im1hdHJpeCgwLjA2Nzc5NjYxMDE2OTQ5MTUxLDAsMCwwLjA2Nzc5NjYxMDE2OTQ5MTUxLDI0LjMzODk4MzA1MDg0NzQ1MywwKSIvPjx1c2UgeGxpbms6aHJlZj0iI2JjIiB0cmFuc2Zvcm09Im1hdHJpeCgwLjA2Nzc5NjYxMDE2OTQ5MTUxLDAsMCwwLjA2Nzc5NjYxMDE2OTQ5MTUxLDM3Ljg5ODMwNTA4NDc0NTc2LDApIi8+PHVzZSB4bGluazpocmVmPSIjYVQiIHRyYW5zZm9ybT0ibWF0cml4KDAuMDY3Nzk2NjEwMTY5NDkxNTEsMCwwLDAuMDY3Nzk2NjEwMTY5NDkxNTEsNTAuMTAxNjk0OTE1MjU0MjM1LDApIi8+PHVzZSB4bGluazpocmVmPSIjYnAiIHRyYW5zZm9ybT0ibWF0cml4KDAuMDY3Nzk2NjEwMTY5NDkxNTEsMCwwLDAuMDY3Nzk2NjEwMTY5NDkxNTEsNjMuNjYxMDE2OTQ5MTUyNTQsMCkiLz48dXNlIHhsaW5rOmhyZWY9IiNicSIgdHJhbnNmb3JtPSJtYXRyaXgoMC4wNjc3OTY2MTAxNjk0OTE1MSwwLDAsMC4wNjc3OTY2MTAxNjk0OTE1MSw3Ny4yMjAzMzg5ODMwNTA4NCwwKSIvPjx1c2UgeGxpbms6aHJlZj0iI2JuIiB0cmFuc2Zvcm09Im1hdHJpeCgwLjA2Nzc5NjYxMDE2OTQ5MTUxLDAsMCwwLjA2Nzc5NjYxMDE2OTQ5MTUxLDgzLjk5OTk5OTk5OTk5OTk5LDApIi8+PHVzZSB4bGluazpocmVmPSIjYmciIHRyYW5zZm9ybT0ibWF0cml4KDAuMDY3Nzk2NjEwMTY5NDkxNTEsMCwwLDAuMDY3Nzk2NjEwMTY5NDkxNTEsODkuMzU1OTMyMjAzMzg5ODEsMCkiLz48dXNlIHhsaW5rOmhyZWY9IiNicCIgdHJhbnNmb3JtPSJtYXRyaXgoMC4wNjc3OTY2MTAxNjk0OTE1MSwwLDAsMC4wNjc3OTY2MTAxNjk0OTE1MSwxMDIuOTE1MjU0MjM3Mjg4MTEsMCkiLz48L2c+PGcgaWQ9ImFjIj48dXNlIHhsaW5rOmhyZWY9IiNidCIgdHJhbnNmb3JtPSJtYXRyaXgoMC4wNjIzNDU2NzkwMTIzNDU2NywwLDAsMC4wNjIzNDU2NzkwMTIzNDU2NywwLDApIi8+PHVzZSB4bGluazpocmVmPSIjYm4iIHRyYW5zZm9ybT0ibWF0cml4KDAuMDYyMzQ1Njc5MDEyMzQ1NjcsMCwwLDAuMDYyMzQ1Njc5MDEyMzQ1NjcsMTMuNjUzNzAzNzAzNzAzNzAyLDApIi8+PHVzZSB4bGluazpocmVmPSIjYmQiIHRyYW5zZm9ybT0ibWF0cml4KDAuMDYyMzQ1Njc5MDEyMzQ1NjcsMCwwLDAuMDYyMzQ1Njc5MDEyMzQ1NjcsMTguNTc5MDEyMzQ1Njc5MDEsMCkiLz48dXNlIHhsaW5rOmhyZWY9IiNhVCIgdHJhbnNmb3JtPSJtYXRyaXgoMC4wNjIzNDU2NzkwMTIzNDU2NywwLDAsMC4wNjIzNDU2NzkwMTIzNDU2NywyNS45OTgxNDgxNDgxNDgxNDcsMCkiLz48dXNlIHhsaW5rOmhyZWY9IiNidSIgdHJhbnNmb3JtPSJtYXRyaXgoMC4wNjIzNDU2NzkwMTIzNDU2NywwLDAsMC4wNjIzNDU2NzkwMTIzNDU2NywzOC40NjcyODM5NTA2MTcyOCwwKSIvPjx1c2UgeGxpbms6aHJlZj0iI2FRIiB0cmFuc2Zvcm09Im1hdHJpeCgwLjA2MjM0NTY3OTAxMjM0NTY3LDAsMCwwLjA2MjM0NTY3OTAxMjM0NTY3LDU0LjYxNDgxNDgxNDgxNDgxLDApIi8+PHVzZSB4bGluazpocmVmPSIjYm8iIHRyYW5zZm9ybT0ibWF0cml4KDAuMDYyMzQ1Njc5MDEyMzQ1NjcsMCwwLDAuMDYyMzQ1Njc5MDEyMzQ1NjcsNjcuMDgzOTUwNjE3MjgzOTMsMCkiLz48dXNlIHhsaW5rOmhyZWY9IiNibyIgdHJhbnNmb3JtPSJtYXRyaXgoMC4wNjIzNDU2NzkwMTIzNDU2NywwLDAsMC4wNjIzNDU2NzkwMTIzNDU2Nyw3Mi4wMDkyNTkyNTkyNTkyNCwwKSIvPjwvZz48cGF0dGVybiBoZWlnaHQ9IjE3OS4wNSIgd2lkdGg9IjE5My4wMiIgeT0iLTYwIiB4PSIxNzgzLjQ5IiBwYXR0ZXJuVW5pdHM9InVzZXJTcGFjZU9uVXNlIiBpZD0iYWQiPjx1c2UgdHJhbnNmb3JtPSJ0cmFuc2xhdGUoMCwgMCkgc2NhbGUoMTkuMzAxNTg3MzAxNTg3MywxNy45MDQ3NjE5MDQ3NjE5MDUpIiB4bGluazpocmVmPSIjYlIiLz48L3BhdHRlcm4+PGxpbmVhckdyYWRpZW50IHkyPSIxMDAiIHgyPSIxODAwIiB5MT0iLTYwIiB4MT0iMTgwMCIgaWQ9ImFlIiBncmFkaWVudFVuaXRzPSJ1c2VyU3BhY2VPblVzZSI+PHN0b3Agc3RvcC1jb2xvcj0iIzhmOGRmOSIgb2Zmc2V0PSIwJSIvPjxzdG9wIHN0b3AtY29sb3I9IiM5MzkxZmYiIG9mZnNldD0iMzAlIi8+PHN0b3Agc3RvcC1jb2xvcj0iIzkzOTFmZiIgb2Zmc2V0PSIxMDAlIi8+PC9saW5lYXJHcmFkaWVudD48cGF0aCBpZD0iYlMiIGQ9Ik0xNDAtMjUxYzgxIDAgMTIzIDQ2IDEyMyAxMjZDMjYzLTQ2IDIxOSA0IDE0MCA0IDU5IDQgMTctNDUgMTctMTI1czQyLTEyNiAxMjMtMTI2em0wIDIyN2M2MyAwIDg5LTQxIDg5LTEwMXMtMjktOTktODktOTljLTYxIDAtODkgMzktODkgOTlTNzktMjUgMTQwLTI0IiBmaWxsPSIjM2E0MTRhIi8+PGcgaWQ9ImFmIj48dXNlIHhsaW5rOmhyZWY9IiNiUyIgdHJhbnNmb3JtPSJtYXRyaXgoMC4wODA4MDgwODA4MDgwODA4MSwwLDAsMC4wODA4MDgwODA4MDgwODA4MSwwLDApIi8+PHVzZSB4bGluazpocmVmPSIjYnMiIHRyYW5zZm9ybT0ibWF0cml4KDAuMDgwODA4MDgwODA4MDgwODEsMCwwLDAuMDgwODA4MDgwODA4MDgwODEsMjIuNjI2MjYyNjI2MjYyNjMsMCkiLz48dXNlIHhsaW5rOmhyZWY9IiNicSIgdHJhbnNmb3JtPSJtYXRyaXgoMC4wODA4MDgwODA4MDgwODA4MSwwLDAsMC4wODA4MDgwODA4MDgwODA4MSwzOC43ODc4Nzg3ODc4Nzg3OSwwKSIvPjx1c2UgeGxpbms6aHJlZj0iI2JrIiB0cmFuc2Zvcm09Im1hdHJpeCgwLjA4MDgwODA4MDgwODA4MDgxLDAsMCwwLjA4MDgwODA4MDgwODA4MDgxLDQ2Ljg2ODY4Njg2ODY4Njg3LDApIi8+PHVzZSB4bGluazpocmVmPSIjYmciIHRyYW5zZm9ybT0ibWF0cml4KDAuMDgwODA4MDgwODA4MDgwODEsMCwwLDAuMDgwODA4MDgwODA4MDgwODEsNjMuMDMwMzAzMDMwMzAzMDQsMCkiLz48dXNlIHhsaW5rOmhyZWY9IiNicyIgdHJhbnNmb3JtPSJtYXRyaXgoMC4wODA4MDgwODA4MDgwODA4MSwwLDAsMC4wODA4MDgwODA4MDgwODA4MSw3OS4xOTE5MTkxOTE5MTkyLDApIi8+PHVzZSB4bGluazpocmVmPSIjYnAiIHRyYW5zZm9ybT0ibWF0cml4KDAuMDgwODA4MDgwODA4MDgwODEsMCwwLDAuMDgwODA4MDgwODA4MDgwODEsOTUuMzUzNTM1MzUzNTM1MzYsMCkiLz48dXNlIHhsaW5rOmhyZWY9IiNidiIgdHJhbnNmb3JtPSJtYXRyaXgoMC4wODA4MDgwODA4MDgwODA4MSwwLDAsMC4wODA4MDgwODA4MDgwODA4MSwxMTEuNTE1MTUxNTE1MTUxNTMsMCkiLz48L2c+PGcgaWQ9ImFnIj48dXNlIHhsaW5rOmhyZWY9IiNidCIgdHJhbnNmb3JtPSJtYXRyaXgoMC4wODA4MDgwODA4MDgwODA4MSwwLDAsMC4wODA4MDgwODA4MDgwODA4MSwwLDApIi8+PHVzZSB4bGluazpocmVmPSIjYmQiIHRyYW5zZm9ybT0ibWF0cml4KDAuMDgwODA4MDgwODA4MDgwODEsMCwwLDAuMDgwODA4MDgwODA4MDgwODEsMTcuNjk2OTY5Njk2OTY5NywwKSIvPjx1c2UgeGxpbms6aHJlZj0iI2JnIiB0cmFuc2Zvcm09Im1hdHJpeCgwLjA4MDgwODA4MDgwODA4MDgxLDAsMCwwLjA4MDgwODA4MDgwODA4MDgxLDI3LjMxMzEzMTMxMzEzMTMyLDApIi8+PHVzZSB4bGluazpocmVmPSIjYkEiIHRyYW5zZm9ybT0ibWF0cml4KDAuMDgwODA4MDgwODA4MDgwODEsMCwwLDAuMDgwODA4MDgwODA4MDgwODEsNDMuNDc0NzQ3NDc0NzQ3NDgsMCkiLz48L2c+PHBhdGggaWQ9ImJUIiBkPSJNODAtMTk2bDQ3LTE4IDcgMjMtNDkgMTMgMzIgNDQtMjAgMTMtMjctNDYtMjcgNDUtMjEtMTIgMzMtNDQtNDktMTMgOC0yMyA0NyAxOS0yLTUzaDIzIiBmaWxsPSIjM2E0MTRhIi8+PHVzZSBpZD0iYWgiIHhsaW5rOmhyZWY9IiNiVCIgdHJhbnNmb3JtPSJtYXRyaXgoMC4wODA4MDgwODA4MDgwODA4MSwwLDAsMC4wODA4MDgwODA4MDgwODA4MSwwLDApIi8+PGcgaWQ9ImFpIj48dXNlIHhsaW5rOmhyZWY9IiNiRCIgdHJhbnNmb3JtPSJtYXRyaXgoMC4wODA4MDgwODA4MDgwODA4MSwwLDAsMC4wODA4MDgwODA4MDgwODA4MSwwLDApIi8+PHVzZSB4bGluazpocmVmPSIjYnAiIHRyYW5zZm9ybT0ibWF0cml4KDAuMDgwODA4MDgwODA4MDgwODEsMCwwLDAuMDgwODA4MDgwODA4MDgwODEsOC4wODA4MDgwODA4MDgwODEsMCkiLz48dXNlIHhsaW5rOmhyZWY9IiNicSIgdHJhbnNmb3JtPSJtYXRyaXgoMC4wODA4MDgwODA4MDgwODA4MSwwLDAsMC4wODA4MDgwODA4MDgwODA4MSwyNC4yNDI0MjQyNDI0MjQyNDYsMCkiLz48dXNlIHhsaW5rOmhyZWY9IiNhVCIgdHJhbnNmb3JtPSJtYXRyaXgoMC4wODA4MDgwODA4MDgwODA4MSwwLDAsMC4wODA4MDgwODA4MDgwODA4MSwzMi4zMjMyMzIzMjMyMzIzMjUsMCkiLz48dXNlIHhsaW5rOmhyZWY9IiNiZCIgdHJhbnNmb3JtPSJtYXRyaXgoMC4wODA4MDgwODA4MDgwODA4MSwwLDAsMC4wODA4MDgwODA4MDgwODA4MSw0OC40ODQ4NDg0ODQ4NDg0OSwwKSIvPjx1c2UgeGxpbms6aHJlZj0iI2JwIiB0cmFuc2Zvcm09Im1hdHJpeCgwLjA4MDgwODA4MDgwODA4MDgxLDAsMCwwLjA4MDgwODA4MDgwODA4MDgxLDU4LjEwMTAxMDEwMTAxMDEwNCwwKSIvPjx1c2UgeGxpbms6aHJlZj0iI2FRIiB0cmFuc2Zvcm09Im1hdHJpeCgwLjA4MDgwODA4MDgwODA4MDgxLDAsMCwwLjA4MDgwODA4MDgwODA4MDgxLDc0LjI2MjYyNjI2MjYyNjI3LDApIi8+PHVzZSB4bGluazpocmVmPSIjYm8iIHRyYW5zZm9ybT0ibWF0cml4KDAuMDgwODA4MDgwODA4MDgwODEsMCwwLDAuMDgwODA4MDgwODA4MDgwODEsOTAuNDI0MjQyNDI0MjQyNDEsMCkiLz48L2c+PGcgaWQ9ImFqIj48dXNlIHhsaW5rOmhyZWY9IiNibCIgdHJhbnNmb3JtPSJtYXRyaXgoMC4wODA4MDgwODA4MDgwODA4MSwwLDAsMC4wODA4MDgwODA4MDgwODA4MSwwLDApIi8+PHVzZSB4bGluazpocmVmPSIjYVQiIHRyYW5zZm9ybT0ibWF0cml4KDAuMDgwODA4MDgwODA4MDgwODEsMCwwLDAuMDgwODA4MDgwODA4MDgwODEsMTkuMzkzOTM5MzkzOTM5Mzk0LDApIi8+PHVzZSB4bGluazpocmVmPSIjYmQiIHRyYW5zZm9ybT0ibWF0cml4KDAuMDgwODA4MDgwODA4MDgwODEsMCwwLDAuMDgwODA4MDgwODA4MDgwODEsMzUuNTU1NTU1NTU1NTU1NTYsMCkiLz48dXNlIHhsaW5rOmhyZWY9IiNiYyIgdHJhbnNmb3JtPSJtYXRyaXgoMC4wODA4MDgwODA4MDgwODA4MSwwLDAsMC4wODA4MDgwODA4MDgwODA4MSw0NS4xNzE3MTcxNzE3MTcxOCwwKSIvPjx1c2UgeGxpbms6aHJlZj0iI2FUIiB0cmFuc2Zvcm09Im1hdHJpeCgwLjA4MDgwODA4MDgwODA4MDgxLDAsMCwwLjA4MDgwODA4MDgwODA4MDgxLDU5LjcxNzE3MTcxNzE3MTcyLDApIi8+PHVzZSB4bGluazpocmVmPSIjYmQiIHRyYW5zZm9ybT0ibWF0cml4KDAuMDgwODA4MDgwODA4MDgwODEsMCwwLDAuMDgwODA4MDgwODA4MDgwODEsNzUuODc4Nzg3ODc4Nzg3ODksMCkiLz48dXNlIHhsaW5rOmhyZWY9IiNiZSIgdHJhbnNmb3JtPSJtYXRyaXgoMC4wODA4MDgwODA4MDgwODA4MSwwLDAsMC4wODA4MDgwODA4MDgwODA4MSw4NS40OTQ5NDk0OTQ5NDk1MSwwKSIvPjwvZz48ZyBpZD0iYWsiPjx1c2UgeGxpbms6aHJlZj0iI2JQIiB0cmFuc2Zvcm09Im1hdHJpeCgwLjE0ODE0ODE0ODE0ODE0ODE3LDAsMCwwLjE0ODE0ODE0ODE0ODE0ODE3LDAsMCkiLz48dXNlIHhsaW5rOmhyZWY9IiNhUSIgdHJhbnNmb3JtPSJtYXRyaXgoMC4xNDgxNDgxNDgxNDgxNDgxNywwLDAsMC4xNDgxNDgxNDgxNDgxNDgxNywyOS42Mjk2Mjk2Mjk2Mjk2MzMsMCkiLz48dXNlIHhsaW5rOmhyZWY9IiNieiIgdHJhbnNmb3JtPSJtYXRyaXgoMC4xNDgxNDgxNDgxNDgxNDgxNywwLDAsMC4xNDgxNDgxNDgxNDgxNDgxNyw1OS4yNTkyNTkyNTkyNTkyNywwKSIvPjx1c2UgeGxpbms6aHJlZj0iI2FTIiB0cmFuc2Zvcm09Im1hdHJpeCgwLjE0ODE0ODE0ODE0ODE0ODE3LDAsMCwwLjE0ODE0ODE0ODE0ODE0ODE3LDg1LjkyNTkyNTkyNTkyNTk0LDApIi8+PHVzZSB4bGluazpocmVmPSIjYVEiIHRyYW5zZm9ybT0ibWF0cml4KDAuMTQ4MTQ4MTQ4MTQ4MTQ4MTcsMCwwLDAuMTQ4MTQ4MTQ4MTQ4MTQ4MTcsMTE1LjU1NTU1NTU1NTU1NTU3LDApIi8+PHVzZSB4bGluazpocmVmPSIjYkEiIHRyYW5zZm9ybT0ibWF0cml4KDAuMTQ4MTQ4MTQ4MTQ4MTQ4MTcsMCwwLDAuMTQ4MTQ4MTQ4MTQ4MTQ4MTcsMTQ1LjE4NTE4NTE4NTE4NTIyLDApIi8+PHVzZSB4bGluazpocmVmPSIjYVEiIHRyYW5zZm9ybT0ibWF0cml4KDAuMTQ4MTQ4MTQ4MTQ4MTQ4MTcsMCwwLDAuMTQ4MTQ4MTQ4MTQ4MTQ4MTcsMTg5LjQ4MTQ4MTQ4MTQ4MTU1LDApIi8+PHVzZSB4bGluazpocmVmPSIjYmQiIHRyYW5zZm9ybT0ibWF0cml4KDAuMTQ4MTQ4MTQ4MTQ4MTQ4MTcsMCwwLDAuMTQ4MTQ4MTQ4MTQ4MTQ4MTcsMjE5LjExMTExMTExMTExMTE0LDApIi8+PHVzZSB4bGluazpocmVmPSIjYm4iIHRyYW5zZm9ybT0ibWF0cml4KDAuMTQ4MTQ4MTQ4MTQ4MTQ4MTcsMCwwLDAuMTQ4MTQ4MTQ4MTQ4MTQ4MTcsMjM2Ljc0MDc0MDc0MDc0MDc2LDApIi8+PC9nPjxnIGlkPSJhbCI+PHVzZSB4bGluazpocmVmPSIjYkciIHRyYW5zZm9ybT0ibWF0cml4KDAuMTQ4MTQ4MTQ4MTQ4MTQ4MTcsMCwwLDAuMTQ4MTQ4MTQ4MTQ4MTQ4MTcsMCwwKSIvPjx1c2UgeGxpbms6aHJlZj0iI2JnIiB0cmFuc2Zvcm09Im1hdHJpeCgwLjE0ODE0ODE0ODE0ODE0ODE3LDAsMCwwLjE0ODE0ODE0ODE0ODE0ODE3LDM4LjM3MDM3MDM3MDM3MDM3NCwwKSIvPjx1c2UgeGxpbms6aHJlZj0iI2JBIiB0cmFuc2Zvcm09Im1hdHJpeCgwLjE0ODE0ODE0ODE0ODE0ODE3LDAsMCwwLjE0ODE0ODE0ODE0ODE0ODE3LDY4LDApIi8+PHVzZSB4bGluazpocmVmPSIjYVAiIHRyYW5zZm9ybT0ibWF0cml4KDAuMTQ4MTQ4MTQ4MTQ4MTQ4MTcsMCwwLDAuMTQ4MTQ4MTQ4MTQ4MTQ4MTcsMTEyLjI5NjI5NjI5NjI5NjMsMCkiLz48dXNlIHhsaW5rOmhyZWY9IiNiZyIgdHJhbnNmb3JtPSJtYXRyaXgoMC4xNDgxNDgxNDgxNDgxNDgxNywwLDAsMC4xNDgxNDgxNDgxNDgxNDgxNywxNDEuOTI1OTI1OTI1OTI1OTIsMCkiLz48dXNlIHhsaW5rOmhyZWY9IiNicCIgdHJhbnNmb3JtPSJtYXRyaXgoMC4xNDgxNDgxNDgxNDgxNDgxNywwLDAsMC4xNDgxNDgxNDgxNDgxNDgxNywxNzEuNTU1NTU1NTU1NTU1NTQsMCkiLz48dXNlIHhsaW5rOmhyZWY9IiNhVCIgdHJhbnNmb3JtPSJtYXRyaXgoMC4xNDgxNDgxNDgxNDgxNDgxNywwLDAsMC4xNDgxNDgxNDgxNDgxNDgxNywyMDEuMTg1MTg1MTg1MTg1MiwwKSIvPjx1c2UgeGxpbms6aHJlZj0iI2JwIiB0cmFuc2Zvcm09Im1hdHJpeCgwLjE0ODE0ODE0ODE0ODE0ODE3LDAsMCwwLjE0ODE0ODE0ODE0ODE0ODE3LDIzMC44MTQ4MTQ4MTQ4MTQ3OCwwKSIvPjx1c2UgeGxpbms6aHJlZj0iI2JxIiB0cmFuc2Zvcm09Im1hdHJpeCgwLjE0ODE0ODE0ODE0ODE0ODE3LDAsMCwwLjE0ODE0ODE0ODE0ODE0ODE3LDI2MC40NDQ0NDQ0NDQ0NDQ0LDApIi8+PHVzZSB4bGluazpocmVmPSIjYmUiIHRyYW5zZm9ybT0ibWF0cml4KDAuMTQ4MTQ4MTQ4MTQ4MTQ4MTcsMCwwLDAuMTQ4MTQ4MTQ4MTQ4MTQ4MTcsMjc1LjI1OTI1OTI1OTI1OTI0LDApIi8+PC9nPjxnIGlkPSJhbSI+PHVzZSB4bGluazpocmVmPSIjYkQiIHRyYW5zZm9ybT0ibWF0cml4KDAuMTQ4MTQ4MTQ4MTQ4MTQ4MTcsMCwwLDAuMTQ4MTQ4MTQ4MTQ4MTQ4MTcsMCwwKSIvPjx1c2UgeGxpbms6aHJlZj0iI2JmIiB0cmFuc2Zvcm09Im1hdHJpeCgwLjE0ODE0ODE0ODE0ODE0ODE3LDAsMCwwLjE0ODE0ODE0ODE0ODE0ODE3LDE0LjgxNDgxNDgxNDgxNDgxNywwKSIvPjx1c2UgeGxpbms6aHJlZj0iI2FWIiB0cmFuc2Zvcm09Im1hdHJpeCgwLjE0ODE0ODE0ODE0ODE0ODE3LDAsMCwwLjE0ODE0ODE0ODE0ODE0ODE3LDUwLjM3MDM3MDM3MDM3MDM3NCwwKSIvPjwvZz48ZyBpZD0iYW4iPjx1c2UgeGxpbms6aHJlZj0iI2JOIiB0cmFuc2Zvcm09Im1hdHJpeCgwLjE0ODE0ODE0ODE0ODE0ODE3LDAsMCwwLjE0ODE0ODE0ODE0ODE0ODE3LDAsMCkiLz48dXNlIHhsaW5rOmhyZWY9IiNhWCIgdHJhbnNmb3JtPSJtYXRyaXgoMC4xNDgxNDgxNDgxNDgxNDgxNywwLDAsMC4xNDgxNDgxNDgxNDgxNDgxNywyOS42Mjk2Mjk2Mjk2Mjk2MzMsMCkiLz48dXNlIHhsaW5rOmhyZWY9IiNiSyIgdHJhbnNmb3JtPSJtYXRyaXgoMC4xNDgxNDgxNDgxNDgxNDgxNywwLDAsMC4xNDgxNDgxNDgxNDgxNDgxNyw1OS4yNTkyNTkyNTkyNTkyNywwKSIvPjx1c2UgeGxpbms6aHJlZj0iI2JOIiB0cmFuc2Zvcm09Im1hdHJpeCgwLjE0ODE0ODE0ODE0ODE0ODE3LDAsMCwwLjE0ODE0ODE0ODE0ODE0ODE3LDc0LjA3NDA3NDA3NDA3NDA4LDApIi8+PHVzZSB4bGluazpocmVmPSIjYVgiIHRyYW5zZm9ybT0ibWF0cml4KDAuMTQ4MTQ4MTQ4MTQ4MTQ4MTcsMCwwLDAuMTQ4MTQ4MTQ4MTQ4MTQ4MTcsMTAzLjcwMzcwMzcwMzcwMzcyLDApIi8+PHVzZSB4bGluazpocmVmPSIjYksiIHRyYW5zZm9ybT0ibWF0cml4KDAuMTQ4MTQ4MTQ4MTQ4MTQ4MTcsMCwwLDAuMTQ4MTQ4MTQ4MTQ4MTQ4MTcsMTMzLjMzMzMzMzMzMzMzMzM0LDApIi8+PHVzZSB4bGluazpocmVmPSIjYVciIHRyYW5zZm9ybT0ibWF0cml4KDAuMTQ4MTQ4MTQ4MTQ4MTQ4MTcsMCwwLDAuMTQ4MTQ4MTQ4MTQ4MTQ4MTcsMTQ4LjE0ODE0ODE0ODE0ODE1LDApIi8+PHVzZSB4bGluazpocmVmPSIjYVgiIHRyYW5zZm9ybT0ibWF0cml4KDAuMTQ4MTQ4MTQ4MTQ4MTQ4MTcsMCwwLDAuMTQ4MTQ4MTQ4MTQ4MTQ4MTcsMTc3Ljc3Nzc3Nzc3Nzc3Nzc3LDApIi8+PHVzZSB4bGluazpocmVmPSIjYksiIHRyYW5zZm9ybT0ibWF0cml4KDAuMTQ4MTQ4MTQ4MTQ4MTQ4MTcsMCwwLDAuMTQ4MTQ4MTQ4MTQ4MTQ4MTcsMjA3LjQwNzQwNzQwNzQwNzQsMCkiLz48dXNlIHhsaW5rOmhyZWY9IiNhWiIgdHJhbnNmb3JtPSJtYXRyaXgoMC4xNDgxNDgxNDgxNDgxNDgxNywwLDAsMC4xNDgxNDgxNDgxNDgxNDgxNywyMjIuMjIyMjIyMjIyMjIyMTcsMCkiLz48dXNlIHhsaW5rOmhyZWY9IiNiYSIgdHJhbnNmb3JtPSJtYXRyaXgoMC4xNDgxNDgxNDgxNDgxNDgxNywwLDAsMC4xNDgxNDgxNDgxNDgxNDgxNywyNTEuODUxODUxODUxODUxODUsMCkiLz48L2c+PHBhdHRlcm4gaGVpZ2h0PSI0Ny42NCIgd2lkdGg9IjUxLjM2IiB5PSItMTA4MS41NCIgeD0iNDEwLjU3IiBwYXR0ZXJuVW5pdHM9InVzZXJTcGFjZU9uVXNlIiBpZD0iYW8iPjx1c2UgdHJhbnNmb3JtPSJ0cmFuc2xhdGUoMCwgMCkgc2NhbGUoNS4xMzU3NDkzODU4NTA0NzksNC43NjQwODMzMTE4NzQ0NTgpIiB4bGluazpocmVmPSIjYlUiLz48L3BhdHRlcm4+PGxpbmVhckdyYWRpZW50IHkyPSItMTAzOC45NyIgeDI9IjQxNC45NiIgeTE9Ii0xMDgxLjU0IiB4MT0iNDE0Ljk2IiBpZD0iYXAiIGdyYWRpZW50VW5pdHM9InVzZXJTcGFjZU9uVXNlIj48c3RvcCBzdG9wLWNvbG9yPSIjOGY4ZGY5IiBvZmZzZXQ9IjAlIi8+PHN0b3Agc3RvcC1jb2xvcj0iIzkzOTFmZiIgb2Zmc2V0PSIzMCUiLz48c3RvcCBzdG9wLWNvbG9yPSIjOTM5MWZmIiBvZmZzZXQ9IjEwMCUiLz48L2xpbmVhckdyYWRpZW50PjxwYXR0ZXJuIGhlaWdodD0iNDcuNjQiIHdpZHRoPSI1MS4zNiIgeT0iLTEwMjAuNzkiIHg9IjQxMC41NyIgcGF0dGVyblVuaXRzPSJ1c2VyU3BhY2VPblVzZSIgaWQ9ImFxIj48dXNlIHRyYW5zZm9ybT0idHJhbnNsYXRlKDAsIDApIHNjYWxlKDUuMTM1NzQ5Mzg1ODUwNDc5LDQuNzY0MDgzMzExODc0NDU4KSIgeGxpbms6aHJlZj0iI2J5Ii8+PC9wYXR0ZXJuPjxsaW5lYXJHcmFkaWVudCB5Mj0iLTk3OC4yMiIgeDI9IjQxNC45NiIgeTE9Ii0xMDIwLjc5IiB4MT0iNDE0Ljk2IiBpZD0iYXIiIGdyYWRpZW50VW5pdHM9InVzZXJTcGFjZU9uVXNlIj48c3RvcCBzdG9wLWNvbG9yPSIjZjllNmE1IiBvZmZzZXQ9IjAlIi8+PHN0b3Agc3RvcC1jb2xvcj0iI2ZmZWNhOSIgb2Zmc2V0PSIzMCUiLz48c3RvcCBzdG9wLWNvbG9yPSIjZmZlY2E5IiBvZmZzZXQ9IjEwMCUiLz48L2xpbmVhckdyYWRpZW50PjxnIGlkPSJhcyI+PHVzZSB4bGluazpocmVmPSIjYmwiIHRyYW5zZm9ybT0ibWF0cml4KDAuMDYyMzQ1Njc5MDEyMzQ1NjcsMCwwLDAuMDYyMzQ1Njc5MDEyMzQ1NjcsMCwwKSIvPjx1c2UgeGxpbms6aHJlZj0iI2JuIiB0cmFuc2Zvcm09Im1hdHJpeCgwLjA2MjM0NTY3OTAxMjM0NTY3LDAsMCwwLjA2MjM0NTY3OTAxMjM0NTY3LDE0Ljk2Mjk2Mjk2Mjk2Mjk2LDApIi8+PHVzZSB4bGluazpocmVmPSIjYnAiIHRyYW5zZm9ybT0ibWF0cml4KDAuMDYyMzQ1Njc5MDEyMzQ1NjcsMCwwLDAuMDYyMzQ1Njc5MDEyMzQ1NjcsMTkuODg4MjcxNjA0OTM4MjY4LDApIi8+PHVzZSB4bGluazpocmVmPSIjYlEiIHRyYW5zZm9ybT0ibWF0cml4KDAuMDYyMzQ1Njc5MDEyMzQ1NjcsMCwwLDAuMDYyMzQ1Njc5MDEyMzQ1NjcsMzIuMzU3NDA3NDA3NDA3NCwwKSIvPjx1c2UgeGxpbms6aHJlZj0iI2JvIiB0cmFuc2Zvcm09Im1hdHJpeCgwLjA2MjM0NTY3OTAxMjM0NTY3LDAsMCwwLjA2MjM0NTY3OTAxMjM0NTY3LDQ0LjgyNjU0MzIwOTg3NjUzLDApIi8+PHVzZSB4bGluazpocmVmPSIjYVQiIHRyYW5zZm9ybT0ibWF0cml4KDAuMDYyMzQ1Njc5MDEyMzQ1NjcsMCwwLDAuMDYyMzQ1Njc5MDEyMzQ1NjcsNDkuNzUxODUxODUxODUxODQsMCkiLz48L2c+PGcgaWQ9ImF0Ij48dXNlIHhsaW5rOmhyZWY9IiNiRyIgdHJhbnNmb3JtPSJtYXRyaXgoMC4wNjIzNDU2NzkwMTIzNDU2NywwLDAsMC4wNjIzNDU2NzkwMTIzNDU2NywwLDApIi8+PHVzZSB4bGluazpocmVmPSIjYmciIHRyYW5zZm9ybT0ibWF0cml4KDAuMDYyMzQ1Njc5MDEyMzQ1NjcsMCwwLDAuMDYyMzQ1Njc5MDEyMzQ1NjcsMTYuMTQ3NTMwODY0MTk3NTI3LDApIi8+PHVzZSB4bGluazpocmVmPSIjYkEiIHRyYW5zZm9ybT0ibWF0cml4KDAuMDYyMzQ1Njc5MDEyMzQ1NjcsMCwwLDAuMDYyMzQ1Njc5MDEyMzQ1NjcsMjguNjE2NjY2NjY2NjY2NjYsMCkiLz48dXNlIHhsaW5rOmhyZWY9IiNhUCIgdHJhbnNmb3JtPSJtYXRyaXgoMC4wNjIzNDU2NzkwMTIzNDU2NywwLDAsMC4wNjIzNDU2NzkwMTIzNDU2Nyw0Ny4yNTgwMjQ2OTEzNTgwMiwwKSIvPjx1c2UgeGxpbms6aHJlZj0iI2JnIiB0cmFuc2Zvcm09Im1hdHJpeCgwLjA2MjM0NTY3OTAxMjM0NTY3LDAsMCwwLjA2MjM0NTY3OTAxMjM0NTY3LDU5LjcyNzE2MDQ5MzgyNzE1LDApIi8+PHVzZSB4bGluazpocmVmPSIjYnAiIHRyYW5zZm9ybT0ibWF0cml4KDAuMDYyMzQ1Njc5MDEyMzQ1NjcsMCwwLDAuMDYyMzQ1Njc5MDEyMzQ1NjcsNzIuMTk2Mjk2Mjk2Mjk2MjgsMCkiLz48dXNlIHhsaW5rOmhyZWY9IiNhVCIgdHJhbnNmb3JtPSJtYXRyaXgoMC4wNjIzNDU2NzkwMTIzNDU2NywwLDAsMC4wNjIzNDU2NzkwMTIzNDU2Nyw4NC42NjU0MzIwOTg3NjU0MiwwKSIvPjx1c2UgeGxpbms6aHJlZj0iI2JwIiB0cmFuc2Zvcm09Im1hdHJpeCgwLjA2MjM0NTY3OTAxMjM0NTY3LDAsMCwwLjA2MjM0NTY3OTAxMjM0NTY3LDk3LjEzNDU2NzkwMTIzNDU2LDApIi8+PHVzZSB4bGluazpocmVmPSIjYnEiIHRyYW5zZm9ybT0ibWF0cml4KDAuMDYyMzQ1Njc5MDEyMzQ1NjcsMCwwLDAuMDYyMzQ1Njc5MDEyMzQ1NjcsMTA5LjYwMzcwMzcwMzcwMzcsMCkiLz48L2c+PHBhdGggaWQ9ImJWIiBkPSJNMzAgMHYtMjQ4aDE4N3YyOEg2M3Y3OWgxNDR2MjdINjN2ODdoMTYyVjBIMzAiIGZpbGw9IiMzYTQxNGEiLz48ZyBpZD0iYXUiPjx1c2UgeGxpbms6aHJlZj0iI2JWIiB0cmFuc2Zvcm09Im1hdHJpeCgwLjA2MjM0NTY3OTAxMjM0NTY3LDAsMCwwLjA2MjM0NTY3OTAxMjM0NTY3LDAsMCkiLz48dXNlIHhsaW5rOmhyZWY9IiNiaCIgdHJhbnNmb3JtPSJtYXRyaXgoMC4wNjIzNDU2NzkwMTIzNDU2NywwLDAsMC4wNjIzNDU2NzkwMTIzNDU2NywxNC45NjI5NjI5NjI5NjI5NiwwKSIvPjx1c2UgeGxpbms6aHJlZj0iI2JxIiB0cmFuc2Zvcm09Im1hdHJpeCgwLjA2MjM0NTY3OTAxMjM0NTY3LDAsMCwwLjA2MjM0NTY3OTAxMjM0NTY3LDI2LjE4NTE4NTE4NTE4NTE4LDApIi8+PHVzZSB4bGluazpocmVmPSIjYVQiIHRyYW5zZm9ybT0ibWF0cml4KDAuMDYyMzQ1Njc5MDEyMzQ1NjcsMCwwLDAuMDYyMzQ1Njc5MDEyMzQ1NjcsMzIuNDE5NzUzMDg2NDE5NzQ2LDApIi8+PHVzZSB4bGluazpocmVmPSIjYmQiIHRyYW5zZm9ybT0ibWF0cml4KDAuMDYyMzQ1Njc5MDEyMzQ1NjcsMCwwLDAuMDYyMzQ1Njc5MDEyMzQ1NjcsNDQuODg4ODg4ODg4ODg4ODgsMCkiLz48dXNlIHhsaW5rOmhyZWY9IiNicCIgdHJhbnNmb3JtPSJtYXRyaXgoMC4wNjIzNDU2NzkwMTIzNDU2NywwLDAsMC4wNjIzNDU2NzkwMTIzNDU2Nyw1Mi4zMDgwMjQ2OTEzNTgwMTQsMCkiLz48dXNlIHhsaW5rOmhyZWY9IiNhUSIgdHJhbnNmb3JtPSJtYXRyaXgoMC4wNjIzNDU2NzkwMTIzNDU2NywwLDAsMC4wNjIzNDU2NzkwMTIzNDU2Nyw2NC43NzcxNjA0OTM4MjcxNSwwKSIvPjx1c2UgeGxpbms6aHJlZj0iI2JvIiB0cmFuc2Zvcm09Im1hdHJpeCgwLjA2MjM0NTY3OTAxMjM0NTY3LDAsMCwwLjA2MjM0NTY3OTAxMjM0NTY3LDc3LjI0NjI5NjI5NjI5NjMsMCkiLz48L2c+PGcgaWQ9ImF2Ij48dXNlIHhsaW5rOmhyZWY9IiNibCIgdHJhbnNmb3JtPSJtYXRyaXgoMC4wNjIzNDU2NzkwMTIzNDU2NywwLDAsMC4wNjIzNDU2NzkwMTIzNDU2NywwLDApIi8+PHVzZSB4bGluazpocmVmPSIjYVQiIHRyYW5zZm9ybT0ibWF0cml4KDAuMDYyMzQ1Njc5MDEyMzQ1NjcsMCwwLDAuMDYyMzQ1Njc5MDEyMzQ1NjcsMTQuOTYyOTYyOTYyOTYyOTYsMCkiLz48dXNlIHhsaW5rOmhyZWY9IiNiZCIgdHJhbnNmb3JtPSJtYXRyaXgoMC4wNjIzNDU2NzkwMTIzNDU2NywwLDAsMC4wNjIzNDU2NzkwMTIzNDU2NywyNy40MzIwOTg3NjU0MzIwOTQsMCkiLz48dXNlIHhsaW5rOmhyZWY9IiNiYyIgdHJhbnNmb3JtPSJtYXRyaXgoMC4wNjIzNDU2NzkwMTIzNDU2NywwLDAsMC4wNjIzNDU2NzkwMTIzNDU2NywzNC44NTEyMzQ1Njc5MDEyMywwKSIvPjx1c2UgeGxpbms6aHJlZj0iI2JuIiB0cmFuc2Zvcm09Im1hdHJpeCgwLjA2MjM0NTY3OTAxMjM0NTY3LDAsMCwwLjA2MjM0NTY3OTAxMjM0NTY3LDQ2LjA3MzQ1Njc5MDEyMzQ1LDApIi8+PHVzZSB4bGluazpocmVmPSIjYVIiIHRyYW5zZm9ybT0ibWF0cml4KDAuMDYyMzQ1Njc5MDEyMzQ1NjcsMCwwLDAuMDYyMzQ1Njc5MDEyMzQ1NjcsNTAuOTk4NzY1NDMyMDk4NzYsMCkiLz48dXNlIHhsaW5rOmhyZWY9IiNhVCIgdHJhbnNmb3JtPSJtYXRyaXgoMC4wNjIzNDU2NzkwMTIzNDU2NywwLDAsMC4wNjIzNDU2NzkwMTIzNDU2Nyw2Mi4yMjA5ODc2NTQzMjA5OCwwKSIvPjwvZz48ZyBpZD0iYXciPjx1c2UgeGxpbms6aHJlZj0iI2JFIiB0cmFuc2Zvcm09Im1hdHJpeCgwLjA2MjM0NTY3OTAxMjM0NTY3LDAsMCwwLjA2MjM0NTY3OTAxMjM0NTY3LDAsMCkiLz48dXNlIHhsaW5rOmhyZWY9IiNhVCIgdHJhbnNmb3JtPSJtYXRyaXgoMC4wNjIzNDU2NzkwMTIzNDU2NywwLDAsMC4wNjIzNDU2NzkwMTIzNDU2NywxNi4xNDc1MzA4NjQxOTc1MjcsMCkiLz48dXNlIHhsaW5rOmhyZWY9IiNiZSIgdHJhbnNmb3JtPSJtYXRyaXgoMC4wNjIzNDU2NzkwMTIzNDU2NywwLDAsMC4wNjIzNDU2NzkwMTIzNDU2NywyOC42MTY2NjY2NjY2NjY2NiwwKSIvPjx1c2UgeGxpbms6aHJlZj0iI2FSIiB0cmFuc2Zvcm09Im1hdHJpeCgwLjA2MjM0NTY3OTAxMjM0NTY3LDAsMCwwLjA2MjM0NTY3OTAxMjM0NTY3LDM5LjgzODg4ODg4ODg4ODg4LDApIi8+PHVzZSB4bGluazpocmVmPSIjYmQiIHRyYW5zZm9ybT0ibWF0cml4KDAuMDYyMzQ1Njc5MDEyMzQ1NjcsMCwwLDAuMDYyMzQ1Njc5MDEyMzQ1NjcsNTEuMDYxMTExMTExMTExMSwwKSIvPjx1c2UgeGxpbms6aHJlZj0iI2JuIiB0cmFuc2Zvcm09Im1hdHJpeCgwLjA2MjM0NTY3OTAxMjM0NTY3LDAsMCwwLjA2MjM0NTY3OTAxMjM0NTY3LDU4LjQ4MDI0NjkxMzU4MDI0LDApIi8+PHVzZSB4bGluazpocmVmPSIjYVAiIHRyYW5zZm9ybT0ibWF0cml4KDAuMDYyMzQ1Njc5MDEyMzQ1NjcsMCwwLDAuMDYyMzQ1Njc5MDEyMzQ1NjcsNjMuNDA1NTU1NTU1NTU1NTQ0LDApIi8+PHVzZSB4bGluazpocmVmPSIjYnEiIHRyYW5zZm9ybT0ibWF0cml4KDAuMDYyMzQ1Njc5MDEyMzQ1NjcsMCwwLDAuMDYyMzQ1Njc5MDEyMzQ1NjcsNzUuODc0NjkxMzU4MDI0NjgsMCkiLz48dXNlIHhsaW5rOmhyZWY9IiNibiIgdHJhbnNmb3JtPSJtYXRyaXgoMC4wNjIzNDU2NzkwMTIzNDU2NywwLDAsMC4wNjIzNDU2NzkwMTIzNDU2Nyw4Mi4xMDkyNTkyNTkyNTkyNSwwKSIvPjx1c2UgeGxpbms6aHJlZj0iI2JnIiB0cmFuc2Zvcm09Im1hdHJpeCgwLjA2MjM0NTY3OTAxMjM0NTY3LDAsMCwwLjA2MjM0NTY3OTAxMjM0NTY3LDg3LjAzNDU2NzkwMTIzNDU1LDApIi8+PHVzZSB4bGluazpocmVmPSIjYnAiIHRyYW5zZm9ybT0ibWF0cml4KDAuMDYyMzQ1Njc5MDEyMzQ1NjcsMCwwLDAuMDYyMzQ1Njc5MDEyMzQ1NjcsOTkuNTAzNzAzNzAzNzAzNjgsMCkiLz48L2c+PGcgaWQ9ImF4Ij48dXNlIHhsaW5rOmhyZWY9IiNieCIgdHJhbnNmb3JtPSJtYXRyaXgoMC4wNjIzNDU2NzkwMTIzNDU2NywwLDAsMC4wNjIzNDU2NzkwMTIzNDU2NywwLDApIi8+PHVzZSB4bGluazpocmVmPSIjYnMiIHRyYW5zZm9ybT0ibWF0cml4KDAuMDYyMzQ1Njc5MDEyMzQ1NjcsMCwwLDAuMDYyMzQ1Njc5MDEyMzQ1NjcsMTguNjQxMzU4MDI0NjkxMzUzLDApIi8+PHVzZSB4bGluazpocmVmPSIjYm8iIHRyYW5zZm9ybT0ibWF0cml4KDAuMDYyMzQ1Njc5MDEyMzQ1NjcsMCwwLDAuMDYyMzQ1Njc5MDEyMzQ1NjcsMzEuMTEwNDkzODI3MTYwNDg2LDApIi8+PHVzZSB4bGluazpocmVmPSIjYnEiIHRyYW5zZm9ybT0ibWF0cml4KDAuMDYyMzQ1Njc5MDEyMzQ1NjcsMCwwLDAuMDYyMzQ1Njc5MDEyMzQ1NjcsMzYuMDM1ODAyNDY5MTM1Nzk1LDApIi8+PHVzZSB4bGluazpocmVmPSIjYm4iIHRyYW5zZm9ybT0ibWF0cml4KDAuMDYyMzQ1Njc5MDEyMzQ1NjcsMCwwLDAuMDYyMzQ1Njc5MDEyMzQ1NjcsNDIuMjcwMzcwMzcwMzcwMzYsMCkiLz48dXNlIHhsaW5rOmhyZWY9IiNhUCIgdHJhbnNmb3JtPSJtYXRyaXgoMC4wNjIzNDU2NzkwMTIzNDU2NywwLDAsMC4wNjIzNDU2NzkwMTIzNDU2Nyw0Ny4xOTU2NzkwMTIzNDU2NjQsMCkiLz48dXNlIHhsaW5rOmhyZWY9IiNibyIgdHJhbnNmb3JtPSJtYXRyaXgoMC4wNjIzNDU2NzkwMTIzNDU2NywwLDAsMC4wNjIzNDU2NzkwMTIzNDU2Nyw1OS42NjQ4MTQ4MTQ4MTQ4LDApIi8+PHVzZSB4bGluazpocmVmPSIjYVQiIHRyYW5zZm9ybT0ibWF0cml4KDAuMDYyMzQ1Njc5MDEyMzQ1NjcsMCwwLDAuMDYyMzQ1Njc5MDEyMzQ1NjcsNjQuNTkwMTIzNDU2NzkwMTEsMCkiLz48L2c+PGcgaWQ9ImF5Ij48dXNlIHhsaW5rOmhyZWY9IiNiRyIgdHJhbnNmb3JtPSJtYXRyaXgoMC4wNjIzNDU2NzkwMTIzNDU2NywwLDAsMC4wNjIzNDU2NzkwMTIzNDU2NywwLDApIi8+PHVzZSB4bGluazpocmVmPSIjYmciIHRyYW5zZm9ybT0ibWF0cml4KDAuMDYyMzQ1Njc5MDEyMzQ1NjcsMCwwLDAuMDYyMzQ1Njc5MDEyMzQ1NjcsMTYuMTQ3NTMwODY0MTk3NTI3LDApIi8+PHVzZSB4bGluazpocmVmPSIjYkEiIHRyYW5zZm9ybT0ibWF0cml4KDAuMDYyMzQ1Njc5MDEyMzQ1NjcsMCwwLDAuMDYyMzQ1Njc5MDEyMzQ1NjcsMjguNjE2NjY2NjY2NjY2NjYsMCkiLz48dXNlIHhsaW5rOmhyZWY9IiNhUCIgdHJhbnNmb3JtPSJtYXRyaXgoMC4wNjIzNDU2NzkwMTIzNDU2NywwLDAsMC4wNjIzNDU2NzkwMTIzNDU2Nyw0Ny4yNTgwMjQ2OTEzNTgwMiwwKSIvPjx1c2UgeGxpbms6aHJlZj0iI2JnIiB0cmFuc2Zvcm09Im1hdHJpeCgwLjA2MjM0NTY3OTAxMjM0NTY3LDAsMCwwLjA2MjM0NTY3OTAxMjM0NTY3LDU5LjcyNzE2MDQ5MzgyNzE1LDApIi8+PHVzZSB4bGluazpocmVmPSIjYnAiIHRyYW5zZm9ybT0ibWF0cml4KDAuMDYyMzQ1Njc5MDEyMzQ1NjcsMCwwLDAuMDYyMzQ1Njc5MDEyMzQ1NjcsNzIuMTk2Mjk2Mjk2Mjk2MjgsMCkiLz48dXNlIHhsaW5rOmhyZWY9IiNhVCIgdHJhbnNmb3JtPSJtYXRyaXgoMC4wNjIzNDU2NzkwMTIzNDU2NywwLDAsMC4wNjIzNDU2NzkwMTIzNDU2Nyw4NC42NjU0MzIwOTg3NjU0MiwwKSIvPjx1c2UgeGxpbms6aHJlZj0iI2JwIiB0cmFuc2Zvcm09Im1hdHJpeCgwLjA2MjM0NTY3OTAxMjM0NTY3LDAsMCwwLjA2MjM0NTY3OTAxMjM0NTY3LDk3LjEzNDU2NzkwMTIzNDU2LDApIi8+PHVzZSB4bGluazpocmVmPSIjYnEiIHRyYW5zZm9ybT0ibWF0cml4KDAuMDYyMzQ1Njc5MDEyMzQ1NjcsMCwwLDAuMDYyMzQ1Njc5MDEyMzQ1NjcsMTA5LjYwMzcwMzcwMzcwMzcsMCkiLz48dXNlIHhsaW5rOmhyZWY9IiNiZSIgdHJhbnNmb3JtPSJtYXRyaXgoMC4wNjIzNDU2NzkwMTIzNDU2NywwLDAsMC4wNjIzNDU2NzkwMTIzNDU2NywxMTUuODM4MjcxNjA0OTM4MjcsMCkiLz48L2c+PGcgaWQ9ImF6Ij48dXNlIHhsaW5rOmhyZWY9IiNiRCIgdHJhbnNmb3JtPSJtYXRyaXgoMC4wNjIzNDU2NzkwMTIzNDU2NywwLDAsMC4wNjIzNDU2NzkwMTIzNDU2NywwLDApIi8+PHVzZSB4bGluazpocmVmPSIjYnAiIHRyYW5zZm9ybT0ibWF0cml4KDAuMDYyMzQ1Njc5MDEyMzQ1NjcsMCwwLDAuMDYyMzQ1Njc5MDEyMzQ1NjcsNi4yMzQ1Njc5MDEyMzQ1NjYsMCkiLz48dXNlIHhsaW5rOmhyZWY9IiNicSIgdHJhbnNmb3JtPSJtYXRyaXgoMC4wNjIzNDU2NzkwMTIzNDU2NywwLDAsMC4wNjIzNDU2NzkwMTIzNDU2NywxOC43MDM3MDM3MDM3MDM3LDApIi8+PHVzZSB4bGluazpocmVmPSIjYVQiIHRyYW5zZm9ybT0ibWF0cml4KDAuMDYyMzQ1Njc5MDEyMzQ1NjcsMCwwLDAuMDYyMzQ1Njc5MDEyMzQ1NjcsMjQuOTM4MjcxNjA0OTM4MjY1LDApIi8+PHVzZSB4bGluazpocmVmPSIjYmQiIHRyYW5zZm9ybT0ibWF0cml4KDAuMDYyMzQ1Njc5MDEyMzQ1NjcsMCwwLDAuMDYyMzQ1Njc5MDEyMzQ1NjcsMzcuNDA3NDA3NDA3NDA3NCwwKSIvPjx1c2UgeGxpbms6aHJlZj0iI2JwIiB0cmFuc2Zvcm09Im1hdHJpeCgwLjA2MjM0NTY3OTAxMjM0NTY3LDAsMCwwLjA2MjM0NTY3OTAxMjM0NTY3LDQ0LjgyNjU0MzIwOTg3NjUzLDApIi8+PHVzZSB4bGluazpocmVmPSIjYVQiIHRyYW5zZm9ybT0ibWF0cml4KDAuMDYyMzQ1Njc5MDEyMzQ1NjcsMCwwLDAuMDYyMzQ1Njc5MDEyMzQ1NjcsNTcuMjk1Njc5MDEyMzQ1NjY2LDApIi8+PHVzZSB4bGluazpocmVmPSIjYnEiIHRyYW5zZm9ybT0ibWF0cml4KDAuMDYyMzQ1Njc5MDEyMzQ1NjcsMCwwLDAuMDYyMzQ1Njc5MDEyMzQ1NjcsNjkuNzY0ODE0ODE0ODE0OCwwKSIvPjwvZz48ZyBpZD0iYUEiPjx1c2UgeGxpbms6aHJlZj0iI2J0IiB0cmFuc2Zvcm09Im1hdHJpeCgwLjA2MjM0NTY3OTAxMjM0NTY3LDAsMCwwLjA2MjM0NTY3OTAxMjM0NTY3LDAsMCkiLz48dXNlIHhsaW5rOmhyZWY9IiNibiIgdHJhbnNmb3JtPSJtYXRyaXgoMC4wNjIzNDU2NzkwMTIzNDU2NywwLDAsMC4wNjIzNDU2NzkwMTIzNDU2NywxMy42NTM3MDM3MDM3MDM3MDIsMCkiLz48dXNlIHhsaW5rOmhyZWY9IiNibyIgdHJhbnNmb3JtPSJtYXRyaXgoMC4wNjIzNDU2NzkwMTIzNDU2NywwLDAsMC4wNjIzNDU2NzkwMTIzNDU2NywxOC41NzkwMTIzNDU2NzkwMSwwKSIvPjx1c2UgeGxpbms6aHJlZj0iI2JxIiB0cmFuc2Zvcm09Im1hdHJpeCgwLjA2MjM0NTY3OTAxMjM0NTY3LDAsMCwwLjA2MjM0NTY3OTAxMjM0NTY3LDIzLjUwNDMyMDk4NzY1NDMxNywwKSIvPjx1c2UgeGxpbms6aHJlZj0iI2FUIiB0cmFuc2Zvcm09Im1hdHJpeCgwLjA2MjM0NTY3OTAxMjM0NTY3LDAsMCwwLjA2MjM0NTY3OTAxMjM0NTY3LDI5LjczODg4ODg4ODg4ODg4NCwwKSIvPjx1c2UgeGxpbms6aHJlZj0iI2JkIiB0cmFuc2Zvcm09Im1hdHJpeCgwLjA2MjM0NTY3OTAxMjM0NTY3LDAsMCwwLjA2MjM0NTY3OTAxMjM0NTY3LDQyLjIwODAyNDY5MTM1ODAyLDApIi8+PHVzZSB4bGluazpocmVmPSIjYVQiIHRyYW5zZm9ybT0ibWF0cml4KDAuMDYyMzQ1Njc5MDEyMzQ1NjcsMCwwLDAuMDYyMzQ1Njc5MDEyMzQ1NjcsNDkuNjI3MTYwNDkzODI3MTU1LDApIi8+PHVzZSB4bGluazpocmVmPSIjYnYiIHRyYW5zZm9ybT0ibWF0cml4KDAuMDYyMzQ1Njc5MDEyMzQ1NjcsMCwwLDAuMDYyMzQ1Njc5MDEyMzQ1NjcsNjIuMDk2Mjk2Mjk2Mjk2MjksMCkiLz48L2c+PGcgaWQ9ImFCIj48dXNlIHhsaW5rOmhyZWY9IiNiTyIgdHJhbnNmb3JtPSJtYXRyaXgoMC4wNjIzNDU2NzkwMTIzNDU2NywwLDAsMC4wNjIzNDU2NzkwMTIzNDU2NywwLDApIi8+PHVzZSB4bGluazpocmVmPSIjYmQiIHRyYW5zZm9ybT0ibWF0cml4KDAuMDYyMzQ1Njc5MDEyMzQ1NjcsMCwwLDAuMDYyMzQ1Njc5MDEyMzQ1NjcsMTIuODQzMjA5ODc2NTQzMjA4LDApIi8+PHVzZSB4bGluazpocmVmPSIjYVEiIHRyYW5zZm9ybT0ibWF0cml4KDAuMDYyMzQ1Njc5MDEyMzQ1NjcsMCwwLDAuMDYyMzQ1Njc5MDEyMzQ1NjcsMjAuMjYyMzQ1Njc5MDEyMzQsMCkiLz48dXNlIHhsaW5rOmhyZWY9IiNibSIgdHJhbnNmb3JtPSJtYXRyaXgoMC4wNjIzNDU2NzkwMTIzNDU2NywwLDAsMC4wNjIzNDU2NzkwMTIzNDU2NywzMi43MzE0ODE0ODE0ODE0NzQsMCkiLz48dXNlIHhsaW5rOmhyZWY9IiNibSIgdHJhbnNmb3JtPSJtYXRyaXgoMC4wNjIzNDU2NzkwMTIzNDU2NywwLDAsMC4wNjIzNDU2NzkwMTIzNDU2NywzOC41Mjk2Mjk2Mjk2Mjk2MjUsMCkiLz48dXNlIHhsaW5rOmhyZWY9IiNibiIgdHJhbnNmb3JtPSJtYXRyaXgoMC4wNjIzNDU2NzkwMTIzNDU2NywwLDAsMC4wNjIzNDU2NzkwMTIzNDU2Nyw0NC43NjQxOTc1MzA4NjQxOTUsMCkiLz48dXNlIHhsaW5rOmhyZWY9IiNhUiIgdHJhbnNmb3JtPSJtYXRyaXgoMC4wNjIzNDU2NzkwMTIzNDU2NywwLDAsMC4wNjIzNDU2NzkwMTIzNDU2Nyw0OS42ODk1MDYxNzI4Mzk1LDApIi8+PC9nPjwvZGVmcz48L2c+PC9zdmc+;" vertex="1" parent="1">
          <mxGeometry width="1052" height="1200" as="geometry" />
        </mxCell>
      </root>
    </mxGraphModel>
  </diagram>
</mxfile>
